; NON-PLATED HOLES START AT T1
; THROUGH (PLATED) HOLES START AT T100
M48
INCH
T100C0.125000
T101C0.035000
%
T100
X015770Y002499
X015770Y015459
T101
X008210Y010519
X008210Y011519
X008210Y008519
X008210Y013519
X015210Y005199
X008210Y005519
X015210Y012759
X015210Y008439
X002210Y012519
X016330Y012219
X016330Y008979
X002210Y009519
X008210Y009519
X002210Y013519
X002210Y004519
X016330Y011139
X008210Y004519
X002210Y003519
X016330Y010059
X002210Y005519
X016330Y007899
X015210Y006279
X002210Y006519
X005210Y008519
X015210Y009519
X002210Y010519
X008210Y012519
X002210Y008519
X015210Y007359
X015210Y010599
X008210Y006519
X002210Y011519
X015210Y011679
X016330Y006819
X008210Y007518
X005210Y012519
X016330Y005739
X002210Y002519
X008210Y002519
X002210Y007518
X008210Y003519
T00
M30
