G04 MADE WITH FRITZING*
G04 WWW.FRITZING.ORG*
G04 DOUBLE SIDED*
G04 HOLES PLATED*
G04 CONTOUR ON CENTER OF CONTOUR VECTOR*
%ASAXBY*%
%FSLAX23Y23*%
%MOIN*%
%OFA0B0*%
%SFA1.0B1.0*%
%ADD10C,0.010000*%
%ADD11R,0.001000X0.001000*%
%LNSILK1*%
G90*
G70*
G54D10*
X554Y1142D02*
X554Y942D01*
D02*
X554Y942D02*
X488Y942D01*
D02*
X488Y942D02*
X488Y1142D01*
D02*
X488Y1142D02*
X554Y1142D01*
D02*
X171Y1502D02*
X171Y202D01*
D02*
X171Y202D02*
X871Y202D01*
D02*
X871Y202D02*
X871Y1502D01*
D02*
X171Y1502D02*
X471Y1502D01*
D02*
X571Y1502D02*
X871Y1502D01*
G54D11*
X0Y1769D02*
X1762Y1769D01*
X0Y1768D02*
X1762Y1768D01*
X0Y1767D02*
X1762Y1767D01*
X0Y1766D02*
X1762Y1766D01*
X0Y1765D02*
X1762Y1765D01*
X0Y1764D02*
X1762Y1764D01*
X0Y1763D02*
X1762Y1763D01*
X0Y1762D02*
X1762Y1762D01*
X0Y1761D02*
X7Y1761D01*
X1755Y1761D02*
X1762Y1761D01*
X0Y1760D02*
X7Y1760D01*
X1755Y1760D02*
X1762Y1760D01*
X0Y1759D02*
X7Y1759D01*
X1755Y1759D02*
X1762Y1759D01*
X0Y1758D02*
X7Y1758D01*
X1755Y1758D02*
X1762Y1758D01*
X0Y1757D02*
X7Y1757D01*
X1755Y1757D02*
X1762Y1757D01*
X0Y1756D02*
X7Y1756D01*
X1755Y1756D02*
X1762Y1756D01*
X0Y1755D02*
X7Y1755D01*
X1755Y1755D02*
X1762Y1755D01*
X0Y1754D02*
X7Y1754D01*
X1755Y1754D02*
X1762Y1754D01*
X0Y1753D02*
X7Y1753D01*
X1755Y1753D02*
X1762Y1753D01*
X0Y1752D02*
X7Y1752D01*
X1755Y1752D02*
X1762Y1752D01*
X0Y1751D02*
X7Y1751D01*
X1755Y1751D02*
X1762Y1751D01*
X0Y1750D02*
X7Y1750D01*
X1755Y1750D02*
X1762Y1750D01*
X0Y1749D02*
X7Y1749D01*
X1755Y1749D02*
X1762Y1749D01*
X0Y1748D02*
X7Y1748D01*
X1755Y1748D02*
X1762Y1748D01*
X0Y1747D02*
X7Y1747D01*
X1755Y1747D02*
X1762Y1747D01*
X0Y1746D02*
X7Y1746D01*
X1755Y1746D02*
X1762Y1746D01*
X0Y1745D02*
X7Y1745D01*
X1755Y1745D02*
X1762Y1745D01*
X0Y1744D02*
X7Y1744D01*
X1755Y1744D02*
X1762Y1744D01*
X0Y1743D02*
X7Y1743D01*
X1755Y1743D02*
X1762Y1743D01*
X0Y1742D02*
X7Y1742D01*
X1755Y1742D02*
X1762Y1742D01*
X0Y1741D02*
X7Y1741D01*
X1755Y1741D02*
X1762Y1741D01*
X0Y1740D02*
X7Y1740D01*
X1755Y1740D02*
X1762Y1740D01*
X0Y1739D02*
X7Y1739D01*
X1755Y1739D02*
X1762Y1739D01*
X0Y1738D02*
X7Y1738D01*
X1755Y1738D02*
X1762Y1738D01*
X0Y1737D02*
X7Y1737D01*
X1755Y1737D02*
X1762Y1737D01*
X0Y1736D02*
X7Y1736D01*
X1755Y1736D02*
X1762Y1736D01*
X0Y1735D02*
X7Y1735D01*
X1755Y1735D02*
X1762Y1735D01*
X0Y1734D02*
X7Y1734D01*
X1755Y1734D02*
X1762Y1734D01*
X0Y1733D02*
X7Y1733D01*
X1755Y1733D02*
X1762Y1733D01*
X0Y1732D02*
X7Y1732D01*
X1755Y1732D02*
X1762Y1732D01*
X0Y1731D02*
X7Y1731D01*
X1755Y1731D02*
X1762Y1731D01*
X0Y1730D02*
X7Y1730D01*
X1755Y1730D02*
X1762Y1730D01*
X0Y1729D02*
X7Y1729D01*
X1755Y1729D02*
X1762Y1729D01*
X0Y1728D02*
X7Y1728D01*
X1755Y1728D02*
X1762Y1728D01*
X0Y1727D02*
X7Y1727D01*
X1755Y1727D02*
X1762Y1727D01*
X0Y1726D02*
X7Y1726D01*
X1755Y1726D02*
X1762Y1726D01*
X0Y1725D02*
X7Y1725D01*
X1755Y1725D02*
X1762Y1725D01*
X0Y1724D02*
X7Y1724D01*
X1755Y1724D02*
X1762Y1724D01*
X0Y1723D02*
X7Y1723D01*
X1755Y1723D02*
X1762Y1723D01*
X0Y1722D02*
X7Y1722D01*
X1755Y1722D02*
X1762Y1722D01*
X0Y1721D02*
X7Y1721D01*
X1755Y1721D02*
X1762Y1721D01*
X0Y1720D02*
X7Y1720D01*
X1755Y1720D02*
X1762Y1720D01*
X0Y1719D02*
X7Y1719D01*
X1755Y1719D02*
X1762Y1719D01*
X0Y1718D02*
X7Y1718D01*
X1755Y1718D02*
X1762Y1718D01*
X0Y1717D02*
X7Y1717D01*
X1755Y1717D02*
X1762Y1717D01*
X0Y1716D02*
X7Y1716D01*
X1755Y1716D02*
X1762Y1716D01*
X0Y1715D02*
X7Y1715D01*
X1755Y1715D02*
X1762Y1715D01*
X0Y1714D02*
X7Y1714D01*
X1755Y1714D02*
X1762Y1714D01*
X0Y1713D02*
X7Y1713D01*
X1755Y1713D02*
X1762Y1713D01*
X0Y1712D02*
X7Y1712D01*
X1755Y1712D02*
X1762Y1712D01*
X0Y1711D02*
X7Y1711D01*
X1755Y1711D02*
X1762Y1711D01*
X0Y1710D02*
X7Y1710D01*
X1755Y1710D02*
X1762Y1710D01*
X0Y1709D02*
X7Y1709D01*
X1755Y1709D02*
X1762Y1709D01*
X0Y1708D02*
X7Y1708D01*
X1755Y1708D02*
X1762Y1708D01*
X0Y1707D02*
X7Y1707D01*
X1755Y1707D02*
X1762Y1707D01*
X0Y1706D02*
X7Y1706D01*
X1755Y1706D02*
X1762Y1706D01*
X0Y1705D02*
X7Y1705D01*
X1755Y1705D02*
X1762Y1705D01*
X0Y1704D02*
X7Y1704D01*
X1755Y1704D02*
X1762Y1704D01*
X0Y1703D02*
X7Y1703D01*
X1755Y1703D02*
X1762Y1703D01*
X0Y1702D02*
X7Y1702D01*
X1755Y1702D02*
X1762Y1702D01*
X0Y1701D02*
X7Y1701D01*
X1755Y1701D02*
X1762Y1701D01*
X0Y1700D02*
X7Y1700D01*
X1755Y1700D02*
X1762Y1700D01*
X0Y1699D02*
X7Y1699D01*
X1755Y1699D02*
X1762Y1699D01*
X0Y1698D02*
X7Y1698D01*
X1755Y1698D02*
X1762Y1698D01*
X0Y1697D02*
X7Y1697D01*
X1755Y1697D02*
X1762Y1697D01*
X0Y1696D02*
X7Y1696D01*
X1755Y1696D02*
X1762Y1696D01*
X0Y1695D02*
X7Y1695D01*
X1755Y1695D02*
X1762Y1695D01*
X0Y1694D02*
X7Y1694D01*
X1755Y1694D02*
X1762Y1694D01*
X0Y1693D02*
X7Y1693D01*
X1755Y1693D02*
X1762Y1693D01*
X0Y1692D02*
X7Y1692D01*
X1755Y1692D02*
X1762Y1692D01*
X0Y1691D02*
X7Y1691D01*
X1755Y1691D02*
X1762Y1691D01*
X0Y1690D02*
X7Y1690D01*
X1755Y1690D02*
X1762Y1690D01*
X0Y1689D02*
X7Y1689D01*
X1755Y1689D02*
X1762Y1689D01*
X0Y1688D02*
X7Y1688D01*
X1755Y1688D02*
X1762Y1688D01*
X0Y1687D02*
X7Y1687D01*
X1755Y1687D02*
X1762Y1687D01*
X0Y1686D02*
X7Y1686D01*
X1755Y1686D02*
X1762Y1686D01*
X0Y1685D02*
X7Y1685D01*
X1755Y1685D02*
X1762Y1685D01*
X0Y1684D02*
X7Y1684D01*
X1755Y1684D02*
X1762Y1684D01*
X0Y1683D02*
X7Y1683D01*
X1755Y1683D02*
X1762Y1683D01*
X0Y1682D02*
X7Y1682D01*
X1755Y1682D02*
X1762Y1682D01*
X0Y1681D02*
X7Y1681D01*
X1755Y1681D02*
X1762Y1681D01*
X0Y1680D02*
X7Y1680D01*
X1755Y1680D02*
X1762Y1680D01*
X0Y1679D02*
X7Y1679D01*
X1755Y1679D02*
X1762Y1679D01*
X0Y1678D02*
X7Y1678D01*
X1755Y1678D02*
X1762Y1678D01*
X0Y1677D02*
X7Y1677D01*
X1755Y1677D02*
X1762Y1677D01*
X0Y1676D02*
X7Y1676D01*
X1755Y1676D02*
X1762Y1676D01*
X0Y1675D02*
X7Y1675D01*
X1755Y1675D02*
X1762Y1675D01*
X0Y1674D02*
X7Y1674D01*
X1755Y1674D02*
X1762Y1674D01*
X0Y1673D02*
X7Y1673D01*
X1755Y1673D02*
X1762Y1673D01*
X0Y1672D02*
X7Y1672D01*
X1755Y1672D02*
X1762Y1672D01*
X0Y1671D02*
X7Y1671D01*
X1755Y1671D02*
X1762Y1671D01*
X0Y1670D02*
X7Y1670D01*
X1755Y1670D02*
X1762Y1670D01*
X0Y1669D02*
X7Y1669D01*
X1755Y1669D02*
X1762Y1669D01*
X0Y1668D02*
X7Y1668D01*
X1755Y1668D02*
X1762Y1668D01*
X0Y1667D02*
X7Y1667D01*
X1755Y1667D02*
X1762Y1667D01*
X0Y1666D02*
X7Y1666D01*
X1755Y1666D02*
X1762Y1666D01*
X0Y1665D02*
X7Y1665D01*
X1755Y1665D02*
X1762Y1665D01*
X0Y1664D02*
X7Y1664D01*
X1755Y1664D02*
X1762Y1664D01*
X0Y1663D02*
X7Y1663D01*
X1755Y1663D02*
X1762Y1663D01*
X0Y1662D02*
X7Y1662D01*
X1755Y1662D02*
X1762Y1662D01*
X0Y1661D02*
X7Y1661D01*
X1755Y1661D02*
X1762Y1661D01*
X0Y1660D02*
X7Y1660D01*
X1755Y1660D02*
X1762Y1660D01*
X0Y1659D02*
X7Y1659D01*
X1755Y1659D02*
X1762Y1659D01*
X0Y1658D02*
X7Y1658D01*
X1755Y1658D02*
X1762Y1658D01*
X0Y1657D02*
X7Y1657D01*
X1755Y1657D02*
X1762Y1657D01*
X0Y1656D02*
X7Y1656D01*
X1755Y1656D02*
X1762Y1656D01*
X0Y1655D02*
X7Y1655D01*
X1755Y1655D02*
X1762Y1655D01*
X0Y1654D02*
X7Y1654D01*
X1755Y1654D02*
X1762Y1654D01*
X0Y1653D02*
X7Y1653D01*
X1755Y1653D02*
X1762Y1653D01*
X0Y1652D02*
X7Y1652D01*
X1755Y1652D02*
X1762Y1652D01*
X0Y1651D02*
X7Y1651D01*
X1755Y1651D02*
X1762Y1651D01*
X0Y1650D02*
X7Y1650D01*
X1755Y1650D02*
X1762Y1650D01*
X0Y1649D02*
X7Y1649D01*
X1755Y1649D02*
X1762Y1649D01*
X0Y1648D02*
X7Y1648D01*
X1755Y1648D02*
X1762Y1648D01*
X0Y1647D02*
X7Y1647D01*
X1755Y1647D02*
X1762Y1647D01*
X0Y1646D02*
X7Y1646D01*
X1755Y1646D02*
X1762Y1646D01*
X0Y1645D02*
X7Y1645D01*
X1755Y1645D02*
X1762Y1645D01*
X0Y1644D02*
X7Y1644D01*
X1755Y1644D02*
X1762Y1644D01*
X0Y1643D02*
X7Y1643D01*
X1755Y1643D02*
X1762Y1643D01*
X0Y1642D02*
X7Y1642D01*
X1755Y1642D02*
X1762Y1642D01*
X0Y1641D02*
X7Y1641D01*
X1755Y1641D02*
X1762Y1641D01*
X0Y1640D02*
X7Y1640D01*
X1755Y1640D02*
X1762Y1640D01*
X0Y1639D02*
X7Y1639D01*
X1755Y1639D02*
X1762Y1639D01*
X0Y1638D02*
X7Y1638D01*
X1755Y1638D02*
X1762Y1638D01*
X0Y1637D02*
X7Y1637D01*
X1755Y1637D02*
X1762Y1637D01*
X0Y1636D02*
X7Y1636D01*
X1755Y1636D02*
X1762Y1636D01*
X0Y1635D02*
X7Y1635D01*
X1755Y1635D02*
X1762Y1635D01*
X0Y1634D02*
X7Y1634D01*
X1755Y1634D02*
X1762Y1634D01*
X0Y1633D02*
X7Y1633D01*
X1755Y1633D02*
X1762Y1633D01*
X0Y1632D02*
X7Y1632D01*
X1755Y1632D02*
X1762Y1632D01*
X0Y1631D02*
X7Y1631D01*
X1755Y1631D02*
X1762Y1631D01*
X0Y1630D02*
X7Y1630D01*
X1755Y1630D02*
X1762Y1630D01*
X0Y1629D02*
X7Y1629D01*
X1755Y1629D02*
X1762Y1629D01*
X0Y1628D02*
X7Y1628D01*
X1755Y1628D02*
X1762Y1628D01*
X0Y1627D02*
X7Y1627D01*
X1755Y1627D02*
X1762Y1627D01*
X0Y1626D02*
X7Y1626D01*
X1755Y1626D02*
X1762Y1626D01*
X0Y1625D02*
X7Y1625D01*
X1755Y1625D02*
X1762Y1625D01*
X0Y1624D02*
X7Y1624D01*
X1755Y1624D02*
X1762Y1624D01*
X0Y1623D02*
X7Y1623D01*
X1755Y1623D02*
X1762Y1623D01*
X0Y1622D02*
X7Y1622D01*
X1755Y1622D02*
X1762Y1622D01*
X0Y1621D02*
X7Y1621D01*
X1755Y1621D02*
X1762Y1621D01*
X0Y1620D02*
X7Y1620D01*
X1755Y1620D02*
X1762Y1620D01*
X0Y1619D02*
X7Y1619D01*
X1755Y1619D02*
X1762Y1619D01*
X0Y1618D02*
X7Y1618D01*
X1755Y1618D02*
X1762Y1618D01*
X0Y1617D02*
X7Y1617D01*
X1755Y1617D02*
X1762Y1617D01*
X0Y1616D02*
X7Y1616D01*
X1755Y1616D02*
X1762Y1616D01*
X0Y1615D02*
X7Y1615D01*
X1755Y1615D02*
X1762Y1615D01*
X0Y1614D02*
X7Y1614D01*
X1755Y1614D02*
X1762Y1614D01*
X0Y1613D02*
X7Y1613D01*
X1755Y1613D02*
X1762Y1613D01*
X0Y1612D02*
X7Y1612D01*
X1755Y1612D02*
X1762Y1612D01*
X0Y1611D02*
X7Y1611D01*
X1755Y1611D02*
X1762Y1611D01*
X0Y1610D02*
X7Y1610D01*
X1755Y1610D02*
X1762Y1610D01*
X0Y1609D02*
X7Y1609D01*
X1755Y1609D02*
X1762Y1609D01*
X0Y1608D02*
X7Y1608D01*
X1755Y1608D02*
X1762Y1608D01*
X0Y1607D02*
X7Y1607D01*
X1755Y1607D02*
X1762Y1607D01*
X0Y1606D02*
X7Y1606D01*
X1755Y1606D02*
X1762Y1606D01*
X0Y1605D02*
X7Y1605D01*
X1755Y1605D02*
X1762Y1605D01*
X0Y1604D02*
X7Y1604D01*
X1755Y1604D02*
X1762Y1604D01*
X0Y1603D02*
X7Y1603D01*
X1755Y1603D02*
X1762Y1603D01*
X0Y1602D02*
X7Y1602D01*
X1755Y1602D02*
X1762Y1602D01*
X0Y1601D02*
X7Y1601D01*
X1755Y1601D02*
X1762Y1601D01*
X0Y1600D02*
X7Y1600D01*
X1755Y1600D02*
X1762Y1600D01*
X0Y1599D02*
X7Y1599D01*
X1755Y1599D02*
X1762Y1599D01*
X0Y1598D02*
X7Y1598D01*
X1755Y1598D02*
X1762Y1598D01*
X0Y1597D02*
X7Y1597D01*
X1755Y1597D02*
X1762Y1597D01*
X0Y1596D02*
X7Y1596D01*
X1755Y1596D02*
X1762Y1596D01*
X0Y1595D02*
X7Y1595D01*
X1755Y1595D02*
X1762Y1595D01*
X0Y1594D02*
X7Y1594D01*
X1755Y1594D02*
X1762Y1594D01*
X0Y1593D02*
X7Y1593D01*
X1755Y1593D02*
X1762Y1593D01*
X0Y1592D02*
X7Y1592D01*
X1755Y1592D02*
X1762Y1592D01*
X0Y1591D02*
X7Y1591D01*
X1755Y1591D02*
X1762Y1591D01*
X0Y1590D02*
X7Y1590D01*
X1755Y1590D02*
X1762Y1590D01*
X0Y1589D02*
X7Y1589D01*
X1755Y1589D02*
X1762Y1589D01*
X0Y1588D02*
X7Y1588D01*
X1755Y1588D02*
X1762Y1588D01*
X0Y1587D02*
X7Y1587D01*
X1755Y1587D02*
X1762Y1587D01*
X0Y1586D02*
X7Y1586D01*
X1755Y1586D02*
X1762Y1586D01*
X0Y1585D02*
X7Y1585D01*
X1755Y1585D02*
X1762Y1585D01*
X0Y1584D02*
X7Y1584D01*
X1755Y1584D02*
X1762Y1584D01*
X0Y1583D02*
X7Y1583D01*
X1755Y1583D02*
X1762Y1583D01*
X0Y1582D02*
X7Y1582D01*
X1755Y1582D02*
X1762Y1582D01*
X0Y1581D02*
X7Y1581D01*
X1755Y1581D02*
X1762Y1581D01*
X0Y1580D02*
X7Y1580D01*
X1755Y1580D02*
X1762Y1580D01*
X0Y1579D02*
X7Y1579D01*
X1755Y1579D02*
X1762Y1579D01*
X0Y1578D02*
X7Y1578D01*
X1755Y1578D02*
X1762Y1578D01*
X0Y1577D02*
X7Y1577D01*
X1755Y1577D02*
X1762Y1577D01*
X0Y1576D02*
X7Y1576D01*
X1755Y1576D02*
X1762Y1576D01*
X0Y1575D02*
X7Y1575D01*
X1755Y1575D02*
X1762Y1575D01*
X0Y1574D02*
X7Y1574D01*
X1755Y1574D02*
X1762Y1574D01*
X0Y1573D02*
X7Y1573D01*
X1755Y1573D02*
X1762Y1573D01*
X0Y1572D02*
X7Y1572D01*
X1755Y1572D02*
X1762Y1572D01*
X0Y1571D02*
X7Y1571D01*
X1755Y1571D02*
X1762Y1571D01*
X0Y1570D02*
X7Y1570D01*
X1755Y1570D02*
X1762Y1570D01*
X0Y1569D02*
X7Y1569D01*
X1755Y1569D02*
X1762Y1569D01*
X0Y1568D02*
X7Y1568D01*
X1755Y1568D02*
X1762Y1568D01*
X0Y1567D02*
X7Y1567D01*
X1755Y1567D02*
X1762Y1567D01*
X0Y1566D02*
X7Y1566D01*
X1755Y1566D02*
X1762Y1566D01*
X0Y1565D02*
X7Y1565D01*
X1755Y1565D02*
X1762Y1565D01*
X0Y1564D02*
X7Y1564D01*
X1755Y1564D02*
X1762Y1564D01*
X0Y1563D02*
X7Y1563D01*
X1755Y1563D02*
X1762Y1563D01*
X0Y1562D02*
X7Y1562D01*
X1755Y1562D02*
X1762Y1562D01*
X0Y1561D02*
X7Y1561D01*
X1755Y1561D02*
X1762Y1561D01*
X0Y1560D02*
X7Y1560D01*
X1755Y1560D02*
X1762Y1560D01*
X0Y1559D02*
X7Y1559D01*
X1755Y1559D02*
X1762Y1559D01*
X0Y1558D02*
X7Y1558D01*
X1755Y1558D02*
X1762Y1558D01*
X0Y1557D02*
X7Y1557D01*
X1755Y1557D02*
X1762Y1557D01*
X0Y1556D02*
X7Y1556D01*
X1755Y1556D02*
X1762Y1556D01*
X0Y1555D02*
X7Y1555D01*
X1755Y1555D02*
X1762Y1555D01*
X0Y1554D02*
X7Y1554D01*
X1755Y1554D02*
X1762Y1554D01*
X0Y1553D02*
X7Y1553D01*
X1755Y1553D02*
X1762Y1553D01*
X0Y1552D02*
X7Y1552D01*
X1755Y1552D02*
X1762Y1552D01*
X0Y1551D02*
X7Y1551D01*
X1755Y1551D02*
X1762Y1551D01*
X0Y1550D02*
X7Y1550D01*
X1755Y1550D02*
X1762Y1550D01*
X0Y1549D02*
X7Y1549D01*
X1755Y1549D02*
X1762Y1549D01*
X0Y1548D02*
X7Y1548D01*
X1755Y1548D02*
X1762Y1548D01*
X0Y1547D02*
X7Y1547D01*
X1755Y1547D02*
X1762Y1547D01*
X0Y1546D02*
X7Y1546D01*
X1755Y1546D02*
X1762Y1546D01*
X0Y1545D02*
X7Y1545D01*
X1755Y1545D02*
X1762Y1545D01*
X0Y1544D02*
X7Y1544D01*
X1755Y1544D02*
X1762Y1544D01*
X0Y1543D02*
X7Y1543D01*
X1755Y1543D02*
X1762Y1543D01*
X0Y1542D02*
X7Y1542D01*
X1755Y1542D02*
X1762Y1542D01*
X0Y1541D02*
X7Y1541D01*
X1755Y1541D02*
X1762Y1541D01*
X0Y1540D02*
X7Y1540D01*
X1755Y1540D02*
X1762Y1540D01*
X0Y1539D02*
X7Y1539D01*
X1755Y1539D02*
X1762Y1539D01*
X0Y1538D02*
X7Y1538D01*
X1755Y1538D02*
X1762Y1538D01*
X0Y1537D02*
X7Y1537D01*
X1755Y1537D02*
X1762Y1537D01*
X0Y1536D02*
X7Y1536D01*
X1755Y1536D02*
X1762Y1536D01*
X0Y1535D02*
X7Y1535D01*
X1755Y1535D02*
X1762Y1535D01*
X0Y1534D02*
X7Y1534D01*
X1755Y1534D02*
X1762Y1534D01*
X0Y1533D02*
X7Y1533D01*
X1755Y1533D02*
X1762Y1533D01*
X0Y1532D02*
X7Y1532D01*
X1755Y1532D02*
X1762Y1532D01*
X0Y1531D02*
X7Y1531D01*
X1755Y1531D02*
X1762Y1531D01*
X0Y1530D02*
X7Y1530D01*
X1755Y1530D02*
X1762Y1530D01*
X0Y1529D02*
X7Y1529D01*
X1755Y1529D02*
X1762Y1529D01*
X0Y1528D02*
X7Y1528D01*
X1755Y1528D02*
X1762Y1528D01*
X0Y1527D02*
X7Y1527D01*
X1755Y1527D02*
X1762Y1527D01*
X0Y1526D02*
X7Y1526D01*
X1755Y1526D02*
X1762Y1526D01*
X0Y1525D02*
X7Y1525D01*
X1755Y1525D02*
X1762Y1525D01*
X0Y1524D02*
X7Y1524D01*
X1755Y1524D02*
X1762Y1524D01*
X0Y1523D02*
X7Y1523D01*
X1755Y1523D02*
X1762Y1523D01*
X0Y1522D02*
X7Y1522D01*
X1755Y1522D02*
X1762Y1522D01*
X0Y1521D02*
X7Y1521D01*
X1755Y1521D02*
X1762Y1521D01*
X0Y1520D02*
X7Y1520D01*
X1755Y1520D02*
X1762Y1520D01*
X0Y1519D02*
X7Y1519D01*
X1755Y1519D02*
X1762Y1519D01*
X0Y1518D02*
X7Y1518D01*
X1755Y1518D02*
X1762Y1518D01*
X0Y1517D02*
X7Y1517D01*
X1755Y1517D02*
X1762Y1517D01*
X0Y1516D02*
X7Y1516D01*
X1755Y1516D02*
X1762Y1516D01*
X0Y1515D02*
X7Y1515D01*
X1755Y1515D02*
X1762Y1515D01*
X0Y1514D02*
X7Y1514D01*
X1755Y1514D02*
X1762Y1514D01*
X0Y1513D02*
X7Y1513D01*
X1755Y1513D02*
X1762Y1513D01*
X0Y1512D02*
X7Y1512D01*
X1755Y1512D02*
X1762Y1512D01*
X0Y1511D02*
X7Y1511D01*
X1755Y1511D02*
X1762Y1511D01*
X0Y1510D02*
X7Y1510D01*
X1755Y1510D02*
X1762Y1510D01*
X0Y1509D02*
X7Y1509D01*
X1755Y1509D02*
X1762Y1509D01*
X0Y1508D02*
X7Y1508D01*
X1755Y1508D02*
X1762Y1508D01*
X0Y1507D02*
X7Y1507D01*
X1755Y1507D02*
X1762Y1507D01*
X0Y1506D02*
X7Y1506D01*
X1755Y1506D02*
X1762Y1506D01*
X0Y1505D02*
X7Y1505D01*
X1755Y1505D02*
X1762Y1505D01*
X0Y1504D02*
X7Y1504D01*
X1755Y1504D02*
X1762Y1504D01*
X0Y1503D02*
X7Y1503D01*
X1755Y1503D02*
X1762Y1503D01*
X0Y1502D02*
X7Y1502D01*
X1755Y1502D02*
X1762Y1502D01*
X0Y1501D02*
X7Y1501D01*
X1755Y1501D02*
X1762Y1501D01*
X0Y1500D02*
X7Y1500D01*
X1755Y1500D02*
X1762Y1500D01*
X0Y1499D02*
X7Y1499D01*
X1755Y1499D02*
X1762Y1499D01*
X0Y1498D02*
X7Y1498D01*
X1755Y1498D02*
X1762Y1498D01*
X0Y1497D02*
X7Y1497D01*
X1755Y1497D02*
X1762Y1497D01*
X0Y1496D02*
X7Y1496D01*
X1755Y1496D02*
X1762Y1496D01*
X0Y1495D02*
X7Y1495D01*
X1755Y1495D02*
X1762Y1495D01*
X0Y1494D02*
X7Y1494D01*
X1755Y1494D02*
X1762Y1494D01*
X0Y1493D02*
X7Y1493D01*
X1755Y1493D02*
X1762Y1493D01*
X0Y1492D02*
X7Y1492D01*
X1755Y1492D02*
X1762Y1492D01*
X0Y1491D02*
X7Y1491D01*
X1755Y1491D02*
X1762Y1491D01*
X0Y1490D02*
X7Y1490D01*
X1755Y1490D02*
X1762Y1490D01*
X0Y1489D02*
X7Y1489D01*
X1755Y1489D02*
X1762Y1489D01*
X0Y1488D02*
X7Y1488D01*
X1755Y1488D02*
X1762Y1488D01*
X0Y1487D02*
X7Y1487D01*
X1755Y1487D02*
X1762Y1487D01*
X0Y1486D02*
X7Y1486D01*
X1755Y1486D02*
X1762Y1486D01*
X0Y1485D02*
X7Y1485D01*
X1755Y1485D02*
X1762Y1485D01*
X0Y1484D02*
X7Y1484D01*
X1755Y1484D02*
X1762Y1484D01*
X0Y1483D02*
X7Y1483D01*
X1755Y1483D02*
X1762Y1483D01*
X0Y1482D02*
X7Y1482D01*
X1755Y1482D02*
X1762Y1482D01*
X0Y1481D02*
X7Y1481D01*
X1755Y1481D02*
X1762Y1481D01*
X0Y1480D02*
X7Y1480D01*
X1755Y1480D02*
X1762Y1480D01*
X0Y1479D02*
X7Y1479D01*
X1755Y1479D02*
X1762Y1479D01*
X0Y1478D02*
X7Y1478D01*
X1755Y1478D02*
X1762Y1478D01*
X0Y1477D02*
X7Y1477D01*
X1755Y1477D02*
X1762Y1477D01*
X0Y1476D02*
X7Y1476D01*
X1755Y1476D02*
X1762Y1476D01*
X0Y1475D02*
X7Y1475D01*
X1755Y1475D02*
X1762Y1475D01*
X0Y1474D02*
X7Y1474D01*
X1755Y1474D02*
X1762Y1474D01*
X0Y1473D02*
X7Y1473D01*
X1755Y1473D02*
X1762Y1473D01*
X0Y1472D02*
X7Y1472D01*
X1755Y1472D02*
X1762Y1472D01*
X0Y1471D02*
X7Y1471D01*
X1755Y1471D02*
X1762Y1471D01*
X0Y1470D02*
X7Y1470D01*
X1755Y1470D02*
X1762Y1470D01*
X0Y1469D02*
X7Y1469D01*
X1755Y1469D02*
X1762Y1469D01*
X0Y1468D02*
X7Y1468D01*
X1755Y1468D02*
X1762Y1468D01*
X0Y1467D02*
X7Y1467D01*
X1755Y1467D02*
X1762Y1467D01*
X0Y1466D02*
X7Y1466D01*
X1755Y1466D02*
X1762Y1466D01*
X0Y1465D02*
X7Y1465D01*
X1755Y1465D02*
X1762Y1465D01*
X0Y1464D02*
X7Y1464D01*
X1755Y1464D02*
X1762Y1464D01*
X0Y1463D02*
X7Y1463D01*
X1755Y1463D02*
X1762Y1463D01*
X0Y1462D02*
X7Y1462D01*
X1755Y1462D02*
X1762Y1462D01*
X0Y1461D02*
X7Y1461D01*
X1755Y1461D02*
X1762Y1461D01*
X0Y1460D02*
X7Y1460D01*
X1755Y1460D02*
X1762Y1460D01*
X0Y1459D02*
X7Y1459D01*
X1755Y1459D02*
X1762Y1459D01*
X0Y1458D02*
X7Y1458D01*
X1755Y1458D02*
X1762Y1458D01*
X0Y1457D02*
X7Y1457D01*
X1755Y1457D02*
X1762Y1457D01*
X0Y1456D02*
X7Y1456D01*
X1755Y1456D02*
X1762Y1456D01*
X0Y1455D02*
X7Y1455D01*
X1755Y1455D02*
X1762Y1455D01*
X0Y1454D02*
X7Y1454D01*
X1755Y1454D02*
X1762Y1454D01*
X0Y1453D02*
X7Y1453D01*
X1755Y1453D02*
X1762Y1453D01*
X0Y1452D02*
X7Y1452D01*
X1755Y1452D02*
X1762Y1452D01*
X0Y1451D02*
X7Y1451D01*
X1755Y1451D02*
X1762Y1451D01*
X0Y1450D02*
X7Y1450D01*
X1755Y1450D02*
X1762Y1450D01*
X0Y1449D02*
X7Y1449D01*
X1755Y1449D02*
X1762Y1449D01*
X0Y1448D02*
X7Y1448D01*
X1755Y1448D02*
X1762Y1448D01*
X0Y1447D02*
X7Y1447D01*
X1755Y1447D02*
X1762Y1447D01*
X0Y1446D02*
X7Y1446D01*
X1755Y1446D02*
X1762Y1446D01*
X0Y1445D02*
X7Y1445D01*
X1755Y1445D02*
X1762Y1445D01*
X0Y1444D02*
X7Y1444D01*
X1755Y1444D02*
X1762Y1444D01*
X0Y1443D02*
X7Y1443D01*
X1755Y1443D02*
X1762Y1443D01*
X0Y1442D02*
X7Y1442D01*
X1755Y1442D02*
X1762Y1442D01*
X0Y1441D02*
X7Y1441D01*
X1755Y1441D02*
X1762Y1441D01*
X0Y1440D02*
X7Y1440D01*
X1755Y1440D02*
X1762Y1440D01*
X0Y1439D02*
X7Y1439D01*
X1755Y1439D02*
X1762Y1439D01*
X0Y1438D02*
X7Y1438D01*
X1755Y1438D02*
X1762Y1438D01*
X0Y1437D02*
X7Y1437D01*
X1755Y1437D02*
X1762Y1437D01*
X0Y1436D02*
X7Y1436D01*
X1755Y1436D02*
X1762Y1436D01*
X0Y1435D02*
X7Y1435D01*
X1755Y1435D02*
X1762Y1435D01*
X0Y1434D02*
X7Y1434D01*
X1755Y1434D02*
X1762Y1434D01*
X0Y1433D02*
X7Y1433D01*
X1755Y1433D02*
X1762Y1433D01*
X0Y1432D02*
X7Y1432D01*
X1755Y1432D02*
X1762Y1432D01*
X0Y1431D02*
X7Y1431D01*
X1755Y1431D02*
X1762Y1431D01*
X0Y1430D02*
X7Y1430D01*
X1755Y1430D02*
X1762Y1430D01*
X0Y1429D02*
X7Y1429D01*
X1755Y1429D02*
X1762Y1429D01*
X0Y1428D02*
X7Y1428D01*
X1755Y1428D02*
X1762Y1428D01*
X0Y1427D02*
X7Y1427D01*
X1755Y1427D02*
X1762Y1427D01*
X0Y1426D02*
X7Y1426D01*
X1755Y1426D02*
X1762Y1426D01*
X0Y1425D02*
X7Y1425D01*
X1755Y1425D02*
X1762Y1425D01*
X0Y1424D02*
X7Y1424D01*
X1755Y1424D02*
X1762Y1424D01*
X0Y1423D02*
X7Y1423D01*
X1755Y1423D02*
X1762Y1423D01*
X0Y1422D02*
X7Y1422D01*
X1755Y1422D02*
X1762Y1422D01*
X0Y1421D02*
X7Y1421D01*
X1755Y1421D02*
X1762Y1421D01*
X0Y1420D02*
X7Y1420D01*
X1755Y1420D02*
X1762Y1420D01*
X0Y1419D02*
X7Y1419D01*
X1755Y1419D02*
X1762Y1419D01*
X0Y1418D02*
X7Y1418D01*
X1755Y1418D02*
X1762Y1418D01*
X0Y1417D02*
X7Y1417D01*
X1755Y1417D02*
X1762Y1417D01*
X0Y1416D02*
X7Y1416D01*
X1755Y1416D02*
X1762Y1416D01*
X0Y1415D02*
X7Y1415D01*
X1755Y1415D02*
X1762Y1415D01*
X0Y1414D02*
X7Y1414D01*
X1755Y1414D02*
X1762Y1414D01*
X0Y1413D02*
X7Y1413D01*
X1755Y1413D02*
X1762Y1413D01*
X0Y1412D02*
X7Y1412D01*
X1755Y1412D02*
X1762Y1412D01*
X0Y1411D02*
X7Y1411D01*
X1755Y1411D02*
X1762Y1411D01*
X0Y1410D02*
X7Y1410D01*
X1755Y1410D02*
X1762Y1410D01*
X0Y1409D02*
X7Y1409D01*
X1755Y1409D02*
X1762Y1409D01*
X0Y1408D02*
X7Y1408D01*
X1755Y1408D02*
X1762Y1408D01*
X0Y1407D02*
X7Y1407D01*
X1755Y1407D02*
X1762Y1407D01*
X0Y1406D02*
X7Y1406D01*
X1755Y1406D02*
X1762Y1406D01*
X0Y1405D02*
X7Y1405D01*
X1755Y1405D02*
X1762Y1405D01*
X0Y1404D02*
X7Y1404D01*
X1755Y1404D02*
X1762Y1404D01*
X0Y1403D02*
X7Y1403D01*
X1755Y1403D02*
X1762Y1403D01*
X0Y1402D02*
X7Y1402D01*
X1755Y1402D02*
X1762Y1402D01*
X0Y1401D02*
X7Y1401D01*
X1755Y1401D02*
X1762Y1401D01*
X0Y1400D02*
X7Y1400D01*
X1755Y1400D02*
X1762Y1400D01*
X0Y1399D02*
X7Y1399D01*
X1755Y1399D02*
X1762Y1399D01*
X0Y1398D02*
X7Y1398D01*
X1755Y1398D02*
X1762Y1398D01*
X0Y1397D02*
X7Y1397D01*
X1755Y1397D02*
X1762Y1397D01*
X0Y1396D02*
X7Y1396D01*
X1755Y1396D02*
X1762Y1396D01*
X0Y1395D02*
X7Y1395D01*
X1755Y1395D02*
X1762Y1395D01*
X0Y1394D02*
X7Y1394D01*
X1755Y1394D02*
X1762Y1394D01*
X0Y1393D02*
X7Y1393D01*
X1755Y1393D02*
X1762Y1393D01*
X0Y1392D02*
X7Y1392D01*
X1755Y1392D02*
X1762Y1392D01*
X0Y1391D02*
X7Y1391D01*
X1755Y1391D02*
X1762Y1391D01*
X0Y1390D02*
X7Y1390D01*
X1755Y1390D02*
X1762Y1390D01*
X0Y1389D02*
X7Y1389D01*
X1755Y1389D02*
X1762Y1389D01*
X0Y1388D02*
X7Y1388D01*
X1755Y1388D02*
X1762Y1388D01*
X0Y1387D02*
X7Y1387D01*
X1755Y1387D02*
X1762Y1387D01*
X0Y1386D02*
X7Y1386D01*
X1755Y1386D02*
X1762Y1386D01*
X0Y1385D02*
X7Y1385D01*
X1755Y1385D02*
X1762Y1385D01*
X0Y1384D02*
X7Y1384D01*
X1755Y1384D02*
X1762Y1384D01*
X0Y1383D02*
X7Y1383D01*
X1755Y1383D02*
X1762Y1383D01*
X0Y1382D02*
X7Y1382D01*
X1755Y1382D02*
X1762Y1382D01*
X0Y1381D02*
X7Y1381D01*
X1755Y1381D02*
X1762Y1381D01*
X0Y1380D02*
X7Y1380D01*
X1755Y1380D02*
X1762Y1380D01*
X0Y1379D02*
X7Y1379D01*
X1755Y1379D02*
X1762Y1379D01*
X0Y1378D02*
X7Y1378D01*
X1755Y1378D02*
X1762Y1378D01*
X0Y1377D02*
X7Y1377D01*
X1755Y1377D02*
X1762Y1377D01*
X0Y1376D02*
X7Y1376D01*
X1755Y1376D02*
X1762Y1376D01*
X0Y1375D02*
X7Y1375D01*
X277Y1375D02*
X304Y1375D01*
X318Y1375D02*
X320Y1375D01*
X340Y1375D02*
X342Y1375D01*
X367Y1375D02*
X372Y1375D01*
X658Y1375D02*
X679Y1375D01*
X710Y1375D02*
X712Y1375D01*
X739Y1375D02*
X741Y1375D01*
X760Y1375D02*
X763Y1375D01*
X1755Y1375D02*
X1762Y1375D01*
X0Y1374D02*
X7Y1374D01*
X277Y1374D02*
X304Y1374D01*
X317Y1374D02*
X321Y1374D01*
X339Y1374D02*
X343Y1374D01*
X366Y1374D02*
X374Y1374D01*
X658Y1374D02*
X681Y1374D01*
X709Y1374D02*
X713Y1374D01*
X738Y1374D02*
X742Y1374D01*
X760Y1374D02*
X764Y1374D01*
X1755Y1374D02*
X1762Y1374D01*
X0Y1373D02*
X7Y1373D01*
X277Y1373D02*
X304Y1373D01*
X317Y1373D02*
X322Y1373D01*
X338Y1373D02*
X343Y1373D01*
X365Y1373D02*
X375Y1373D01*
X658Y1373D02*
X682Y1373D01*
X709Y1373D02*
X713Y1373D01*
X738Y1373D02*
X742Y1373D01*
X759Y1373D02*
X764Y1373D01*
X1755Y1373D02*
X1762Y1373D01*
X0Y1372D02*
X7Y1372D01*
X277Y1372D02*
X304Y1372D01*
X317Y1372D02*
X322Y1372D01*
X338Y1372D02*
X343Y1372D01*
X364Y1372D02*
X375Y1372D01*
X658Y1372D02*
X683Y1372D01*
X708Y1372D02*
X714Y1372D01*
X738Y1372D02*
X742Y1372D01*
X759Y1372D02*
X764Y1372D01*
X1755Y1372D02*
X1762Y1372D01*
X0Y1371D02*
X7Y1371D01*
X277Y1371D02*
X304Y1371D01*
X317Y1371D02*
X323Y1371D01*
X337Y1371D02*
X343Y1371D01*
X363Y1371D02*
X376Y1371D01*
X658Y1371D02*
X684Y1371D01*
X708Y1371D02*
X714Y1371D01*
X738Y1371D02*
X742Y1371D01*
X759Y1371D02*
X764Y1371D01*
X1755Y1371D02*
X1762Y1371D01*
X0Y1370D02*
X7Y1370D01*
X277Y1370D02*
X282Y1370D01*
X288Y1370D02*
X293Y1370D01*
X299Y1370D02*
X304Y1370D01*
X318Y1370D02*
X323Y1370D01*
X336Y1370D02*
X342Y1370D01*
X363Y1370D02*
X376Y1370D01*
X658Y1370D02*
X663Y1370D01*
X678Y1370D02*
X684Y1370D01*
X708Y1370D02*
X714Y1370D01*
X738Y1370D02*
X742Y1370D01*
X759Y1370D02*
X764Y1370D01*
X1755Y1370D02*
X1762Y1370D01*
X0Y1369D02*
X7Y1369D01*
X277Y1369D02*
X282Y1369D01*
X288Y1369D02*
X293Y1369D01*
X299Y1369D02*
X304Y1369D01*
X319Y1369D02*
X324Y1369D01*
X336Y1369D02*
X341Y1369D01*
X362Y1369D02*
X368Y1369D01*
X372Y1369D02*
X377Y1369D01*
X658Y1369D02*
X663Y1369D01*
X679Y1369D02*
X685Y1369D01*
X708Y1369D02*
X715Y1369D01*
X738Y1369D02*
X742Y1369D01*
X759Y1369D02*
X764Y1369D01*
X1755Y1369D02*
X1762Y1369D01*
X0Y1368D02*
X7Y1368D01*
X277Y1368D02*
X282Y1368D01*
X288Y1368D02*
X293Y1368D01*
X299Y1368D02*
X304Y1368D01*
X319Y1368D02*
X325Y1368D01*
X335Y1368D02*
X341Y1368D01*
X362Y1368D02*
X367Y1368D01*
X372Y1368D02*
X377Y1368D01*
X658Y1368D02*
X663Y1368D01*
X680Y1368D02*
X685Y1368D01*
X707Y1368D02*
X715Y1368D01*
X738Y1368D02*
X742Y1368D01*
X759Y1368D02*
X764Y1368D01*
X1755Y1368D02*
X1762Y1368D01*
X0Y1367D02*
X7Y1367D01*
X278Y1367D02*
X281Y1367D01*
X288Y1367D02*
X293Y1367D01*
X299Y1367D02*
X303Y1367D01*
X320Y1367D02*
X325Y1367D01*
X335Y1367D02*
X340Y1367D01*
X361Y1367D02*
X367Y1367D01*
X373Y1367D02*
X378Y1367D01*
X658Y1367D02*
X663Y1367D01*
X680Y1367D02*
X685Y1367D01*
X707Y1367D02*
X715Y1367D01*
X738Y1367D02*
X742Y1367D01*
X759Y1367D02*
X764Y1367D01*
X1755Y1367D02*
X1762Y1367D01*
X0Y1366D02*
X7Y1366D01*
X278Y1366D02*
X281Y1366D01*
X288Y1366D02*
X293Y1366D01*
X300Y1366D02*
X302Y1366D01*
X320Y1366D02*
X326Y1366D01*
X334Y1366D02*
X340Y1366D01*
X361Y1366D02*
X366Y1366D01*
X373Y1366D02*
X378Y1366D01*
X658Y1366D02*
X663Y1366D01*
X680Y1366D02*
X685Y1366D01*
X707Y1366D02*
X716Y1366D01*
X738Y1366D02*
X742Y1366D01*
X759Y1366D02*
X764Y1366D01*
X1755Y1366D02*
X1762Y1366D01*
X0Y1365D02*
X7Y1365D01*
X288Y1365D02*
X293Y1365D01*
X321Y1365D02*
X326Y1365D01*
X334Y1365D02*
X339Y1365D01*
X360Y1365D02*
X366Y1365D01*
X374Y1365D02*
X379Y1365D01*
X658Y1365D02*
X663Y1365D01*
X680Y1365D02*
X685Y1365D01*
X706Y1365D02*
X716Y1365D01*
X738Y1365D02*
X742Y1365D01*
X759Y1365D02*
X764Y1365D01*
X1755Y1365D02*
X1762Y1365D01*
X0Y1364D02*
X7Y1364D01*
X288Y1364D02*
X293Y1364D01*
X321Y1364D02*
X327Y1364D01*
X333Y1364D02*
X338Y1364D01*
X360Y1364D02*
X365Y1364D01*
X374Y1364D02*
X379Y1364D01*
X658Y1364D02*
X663Y1364D01*
X680Y1364D02*
X685Y1364D01*
X706Y1364D02*
X716Y1364D01*
X738Y1364D02*
X742Y1364D01*
X759Y1364D02*
X764Y1364D01*
X1755Y1364D02*
X1762Y1364D01*
X0Y1363D02*
X7Y1363D01*
X288Y1363D02*
X293Y1363D01*
X322Y1363D02*
X328Y1363D01*
X332Y1363D02*
X338Y1363D01*
X359Y1363D02*
X365Y1363D01*
X375Y1363D02*
X380Y1363D01*
X658Y1363D02*
X663Y1363D01*
X680Y1363D02*
X685Y1363D01*
X706Y1363D02*
X716Y1363D01*
X738Y1363D02*
X742Y1363D01*
X759Y1363D02*
X764Y1363D01*
X1755Y1363D02*
X1762Y1363D01*
X0Y1362D02*
X7Y1362D01*
X288Y1362D02*
X293Y1362D01*
X323Y1362D02*
X328Y1362D01*
X332Y1362D02*
X337Y1362D01*
X359Y1362D02*
X364Y1362D01*
X375Y1362D02*
X380Y1362D01*
X658Y1362D02*
X663Y1362D01*
X679Y1362D02*
X684Y1362D01*
X706Y1362D02*
X710Y1362D01*
X712Y1362D02*
X717Y1362D01*
X738Y1362D02*
X742Y1362D01*
X759Y1362D02*
X764Y1362D01*
X1755Y1362D02*
X1762Y1362D01*
X0Y1361D02*
X7Y1361D01*
X288Y1361D02*
X293Y1361D01*
X323Y1361D02*
X329Y1361D01*
X331Y1361D02*
X337Y1361D01*
X358Y1361D02*
X364Y1361D01*
X376Y1361D02*
X381Y1361D01*
X658Y1361D02*
X684Y1361D01*
X705Y1361D02*
X710Y1361D01*
X712Y1361D02*
X717Y1361D01*
X738Y1361D02*
X742Y1361D01*
X750Y1361D02*
X752Y1361D01*
X759Y1361D02*
X764Y1361D01*
X1755Y1361D02*
X1762Y1361D01*
X0Y1360D02*
X7Y1360D01*
X288Y1360D02*
X293Y1360D01*
X324Y1360D02*
X336Y1360D01*
X358Y1360D02*
X363Y1360D01*
X376Y1360D02*
X381Y1360D01*
X658Y1360D02*
X683Y1360D01*
X705Y1360D02*
X710Y1360D01*
X712Y1360D02*
X717Y1360D01*
X738Y1360D02*
X742Y1360D01*
X749Y1360D02*
X753Y1360D01*
X759Y1360D02*
X764Y1360D01*
X1755Y1360D02*
X1762Y1360D01*
X0Y1359D02*
X7Y1359D01*
X288Y1359D02*
X293Y1359D01*
X324Y1359D02*
X336Y1359D01*
X357Y1359D02*
X363Y1359D01*
X377Y1359D02*
X382Y1359D01*
X658Y1359D02*
X683Y1359D01*
X705Y1359D02*
X709Y1359D01*
X713Y1359D02*
X718Y1359D01*
X738Y1359D02*
X742Y1359D01*
X748Y1359D02*
X753Y1359D01*
X759Y1359D02*
X764Y1359D01*
X1755Y1359D02*
X1762Y1359D01*
X0Y1358D02*
X7Y1358D01*
X288Y1358D02*
X293Y1358D01*
X325Y1358D02*
X335Y1358D01*
X357Y1358D02*
X362Y1358D01*
X377Y1358D02*
X382Y1358D01*
X658Y1358D02*
X682Y1358D01*
X704Y1358D02*
X709Y1358D01*
X713Y1358D02*
X718Y1358D01*
X738Y1358D02*
X742Y1358D01*
X748Y1358D02*
X753Y1358D01*
X759Y1358D02*
X764Y1358D01*
X1755Y1358D02*
X1762Y1358D01*
X0Y1357D02*
X7Y1357D01*
X288Y1357D02*
X293Y1357D01*
X326Y1357D02*
X334Y1357D01*
X357Y1357D02*
X362Y1357D01*
X378Y1357D02*
X382Y1357D01*
X658Y1357D02*
X680Y1357D01*
X704Y1357D02*
X709Y1357D01*
X713Y1357D02*
X718Y1357D01*
X738Y1357D02*
X742Y1357D01*
X748Y1357D02*
X753Y1357D01*
X759Y1357D02*
X764Y1357D01*
X1755Y1357D02*
X1762Y1357D01*
X0Y1356D02*
X7Y1356D01*
X288Y1356D02*
X293Y1356D01*
X326Y1356D02*
X334Y1356D01*
X357Y1356D02*
X361Y1356D01*
X378Y1356D02*
X383Y1356D01*
X658Y1356D02*
X663Y1356D01*
X667Y1356D02*
X674Y1356D01*
X704Y1356D02*
X709Y1356D01*
X714Y1356D02*
X718Y1356D01*
X738Y1356D02*
X742Y1356D01*
X748Y1356D02*
X753Y1356D01*
X759Y1356D02*
X764Y1356D01*
X1755Y1356D02*
X1762Y1356D01*
X0Y1355D02*
X7Y1355D01*
X288Y1355D02*
X293Y1355D01*
X327Y1355D02*
X333Y1355D01*
X356Y1355D02*
X361Y1355D01*
X378Y1355D02*
X383Y1355D01*
X658Y1355D02*
X663Y1355D01*
X668Y1355D02*
X674Y1355D01*
X703Y1355D02*
X708Y1355D01*
X714Y1355D02*
X719Y1355D01*
X738Y1355D02*
X742Y1355D01*
X748Y1355D02*
X753Y1355D01*
X759Y1355D02*
X764Y1355D01*
X1755Y1355D02*
X1762Y1355D01*
X0Y1354D02*
X7Y1354D01*
X288Y1354D02*
X293Y1354D01*
X327Y1354D02*
X333Y1354D01*
X356Y1354D02*
X361Y1354D01*
X378Y1354D02*
X383Y1354D01*
X658Y1354D02*
X663Y1354D01*
X669Y1354D02*
X674Y1354D01*
X703Y1354D02*
X708Y1354D01*
X714Y1354D02*
X719Y1354D01*
X738Y1354D02*
X742Y1354D01*
X748Y1354D02*
X753Y1354D01*
X759Y1354D02*
X764Y1354D01*
X1755Y1354D02*
X1762Y1354D01*
X0Y1353D02*
X7Y1353D01*
X288Y1353D02*
X293Y1353D01*
X327Y1353D02*
X333Y1353D01*
X357Y1353D02*
X361Y1353D01*
X378Y1353D02*
X383Y1353D01*
X658Y1353D02*
X663Y1353D01*
X669Y1353D02*
X675Y1353D01*
X703Y1353D02*
X708Y1353D01*
X715Y1353D02*
X719Y1353D01*
X738Y1353D02*
X742Y1353D01*
X748Y1353D02*
X753Y1353D01*
X759Y1353D02*
X764Y1353D01*
X1755Y1353D02*
X1762Y1353D01*
X0Y1352D02*
X7Y1352D01*
X288Y1352D02*
X293Y1352D01*
X326Y1352D02*
X334Y1352D01*
X357Y1352D02*
X361Y1352D01*
X378Y1352D02*
X383Y1352D01*
X658Y1352D02*
X663Y1352D01*
X670Y1352D02*
X676Y1352D01*
X703Y1352D02*
X707Y1352D01*
X715Y1352D02*
X720Y1352D01*
X738Y1352D02*
X742Y1352D01*
X748Y1352D02*
X753Y1352D01*
X759Y1352D02*
X764Y1352D01*
X1755Y1352D02*
X1762Y1352D01*
X0Y1351D02*
X7Y1351D01*
X288Y1351D02*
X293Y1351D01*
X325Y1351D02*
X335Y1351D01*
X357Y1351D02*
X362Y1351D01*
X377Y1351D02*
X382Y1351D01*
X658Y1351D02*
X663Y1351D01*
X671Y1351D02*
X676Y1351D01*
X702Y1351D02*
X707Y1351D01*
X715Y1351D02*
X720Y1351D01*
X738Y1351D02*
X742Y1351D01*
X748Y1351D02*
X753Y1351D01*
X759Y1351D02*
X764Y1351D01*
X1755Y1351D02*
X1762Y1351D01*
X0Y1350D02*
X7Y1350D01*
X288Y1350D02*
X293Y1350D01*
X325Y1350D02*
X335Y1350D01*
X357Y1350D02*
X362Y1350D01*
X377Y1350D02*
X382Y1350D01*
X658Y1350D02*
X663Y1350D01*
X671Y1350D02*
X677Y1350D01*
X702Y1350D02*
X707Y1350D01*
X715Y1350D02*
X720Y1350D01*
X738Y1350D02*
X742Y1350D01*
X748Y1350D02*
X753Y1350D01*
X759Y1350D02*
X764Y1350D01*
X1755Y1350D02*
X1762Y1350D01*
X0Y1349D02*
X7Y1349D01*
X288Y1349D02*
X293Y1349D01*
X324Y1349D02*
X336Y1349D01*
X358Y1349D02*
X363Y1349D01*
X376Y1349D02*
X382Y1349D01*
X658Y1349D02*
X663Y1349D01*
X672Y1349D02*
X677Y1349D01*
X702Y1349D02*
X707Y1349D01*
X716Y1349D02*
X720Y1349D01*
X738Y1349D02*
X742Y1349D01*
X748Y1349D02*
X753Y1349D01*
X759Y1349D02*
X764Y1349D01*
X1755Y1349D02*
X1762Y1349D01*
X0Y1348D02*
X7Y1348D01*
X288Y1348D02*
X293Y1348D01*
X324Y1348D02*
X329Y1348D01*
X331Y1348D02*
X336Y1348D01*
X358Y1348D02*
X363Y1348D01*
X376Y1348D02*
X381Y1348D01*
X658Y1348D02*
X663Y1348D01*
X672Y1348D02*
X678Y1348D01*
X701Y1348D02*
X706Y1348D01*
X716Y1348D02*
X721Y1348D01*
X738Y1348D02*
X742Y1348D01*
X748Y1348D02*
X753Y1348D01*
X759Y1348D02*
X764Y1348D01*
X1755Y1348D02*
X1762Y1348D01*
X0Y1347D02*
X7Y1347D01*
X288Y1347D02*
X293Y1347D01*
X323Y1347D02*
X329Y1347D01*
X331Y1347D02*
X337Y1347D01*
X358Y1347D02*
X364Y1347D01*
X375Y1347D02*
X381Y1347D01*
X658Y1347D02*
X663Y1347D01*
X673Y1347D02*
X678Y1347D01*
X701Y1347D02*
X721Y1347D01*
X738Y1347D02*
X742Y1347D01*
X748Y1347D02*
X753Y1347D01*
X759Y1347D02*
X764Y1347D01*
X1755Y1347D02*
X1762Y1347D01*
X0Y1346D02*
X7Y1346D01*
X288Y1346D02*
X293Y1346D01*
X322Y1346D02*
X328Y1346D01*
X332Y1346D02*
X337Y1346D01*
X359Y1346D02*
X364Y1346D01*
X375Y1346D02*
X380Y1346D01*
X658Y1346D02*
X663Y1346D01*
X674Y1346D02*
X679Y1346D01*
X701Y1346D02*
X721Y1346D01*
X738Y1346D02*
X742Y1346D01*
X748Y1346D02*
X753Y1346D01*
X759Y1346D02*
X764Y1346D01*
X1755Y1346D02*
X1762Y1346D01*
X0Y1345D02*
X7Y1345D01*
X288Y1345D02*
X293Y1345D01*
X322Y1345D02*
X327Y1345D01*
X333Y1345D02*
X338Y1345D01*
X359Y1345D02*
X365Y1345D01*
X374Y1345D02*
X380Y1345D01*
X658Y1345D02*
X663Y1345D01*
X674Y1345D02*
X680Y1345D01*
X701Y1345D02*
X722Y1345D01*
X738Y1345D02*
X742Y1345D01*
X748Y1345D02*
X753Y1345D01*
X759Y1345D02*
X764Y1345D01*
X1755Y1345D02*
X1762Y1345D01*
X0Y1344D02*
X7Y1344D01*
X288Y1344D02*
X293Y1344D01*
X321Y1344D02*
X327Y1344D01*
X333Y1344D02*
X339Y1344D01*
X360Y1344D02*
X365Y1344D01*
X374Y1344D02*
X379Y1344D01*
X658Y1344D02*
X663Y1344D01*
X675Y1344D02*
X680Y1344D01*
X700Y1344D02*
X722Y1344D01*
X738Y1344D02*
X742Y1344D01*
X748Y1344D02*
X753Y1344D01*
X759Y1344D02*
X764Y1344D01*
X1755Y1344D02*
X1762Y1344D01*
X0Y1343D02*
X7Y1343D01*
X288Y1343D02*
X293Y1343D01*
X321Y1343D02*
X326Y1343D01*
X334Y1343D02*
X339Y1343D01*
X360Y1343D02*
X366Y1343D01*
X373Y1343D02*
X379Y1343D01*
X658Y1343D02*
X663Y1343D01*
X675Y1343D02*
X681Y1343D01*
X700Y1343D02*
X722Y1343D01*
X738Y1343D02*
X742Y1343D01*
X748Y1343D02*
X753Y1343D01*
X759Y1343D02*
X764Y1343D01*
X1755Y1343D02*
X1762Y1343D01*
X0Y1342D02*
X7Y1342D01*
X288Y1342D02*
X293Y1342D01*
X320Y1342D02*
X326Y1342D01*
X334Y1342D02*
X340Y1342D01*
X361Y1342D02*
X366Y1342D01*
X373Y1342D02*
X378Y1342D01*
X658Y1342D02*
X663Y1342D01*
X676Y1342D02*
X681Y1342D01*
X700Y1342D02*
X705Y1342D01*
X717Y1342D02*
X723Y1342D01*
X738Y1342D02*
X742Y1342D01*
X748Y1342D02*
X753Y1342D01*
X759Y1342D02*
X764Y1342D01*
X1755Y1342D02*
X1762Y1342D01*
X0Y1341D02*
X7Y1341D01*
X288Y1341D02*
X293Y1341D01*
X320Y1341D02*
X325Y1341D01*
X335Y1341D02*
X340Y1341D01*
X361Y1341D02*
X367Y1341D01*
X372Y1341D02*
X378Y1341D01*
X658Y1341D02*
X663Y1341D01*
X676Y1341D02*
X682Y1341D01*
X699Y1341D02*
X704Y1341D01*
X718Y1341D02*
X723Y1341D01*
X738Y1341D02*
X742Y1341D01*
X748Y1341D02*
X753Y1341D01*
X759Y1341D02*
X764Y1341D01*
X1755Y1341D02*
X1762Y1341D01*
X0Y1340D02*
X7Y1340D01*
X288Y1340D02*
X293Y1340D01*
X319Y1340D02*
X324Y1340D01*
X336Y1340D02*
X341Y1340D01*
X362Y1340D02*
X367Y1340D01*
X372Y1340D02*
X377Y1340D01*
X658Y1340D02*
X663Y1340D01*
X677Y1340D02*
X683Y1340D01*
X699Y1340D02*
X704Y1340D01*
X718Y1340D02*
X723Y1340D01*
X738Y1340D02*
X743Y1340D01*
X748Y1340D02*
X754Y1340D01*
X759Y1340D02*
X764Y1340D01*
X1755Y1340D02*
X1762Y1340D01*
X0Y1339D02*
X7Y1339D01*
X288Y1339D02*
X293Y1339D01*
X318Y1339D02*
X324Y1339D01*
X336Y1339D02*
X342Y1339D01*
X362Y1339D02*
X368Y1339D01*
X371Y1339D02*
X377Y1339D01*
X658Y1339D02*
X663Y1339D01*
X678Y1339D02*
X683Y1339D01*
X699Y1339D02*
X704Y1339D01*
X719Y1339D02*
X723Y1339D01*
X738Y1339D02*
X743Y1339D01*
X747Y1339D02*
X754Y1339D01*
X758Y1339D02*
X764Y1339D01*
X1755Y1339D02*
X1762Y1339D01*
X0Y1338D02*
X7Y1338D01*
X288Y1338D02*
X293Y1338D01*
X318Y1338D02*
X323Y1338D01*
X337Y1338D02*
X342Y1338D01*
X363Y1338D02*
X376Y1338D01*
X658Y1338D02*
X663Y1338D01*
X678Y1338D02*
X684Y1338D01*
X698Y1338D02*
X703Y1338D01*
X719Y1338D02*
X724Y1338D01*
X738Y1338D02*
X763Y1338D01*
X1755Y1338D02*
X1762Y1338D01*
X0Y1337D02*
X7Y1337D01*
X288Y1337D02*
X293Y1337D01*
X317Y1337D02*
X323Y1337D01*
X337Y1337D02*
X343Y1337D01*
X363Y1337D02*
X376Y1337D01*
X658Y1337D02*
X663Y1337D01*
X679Y1337D02*
X684Y1337D01*
X698Y1337D02*
X703Y1337D01*
X719Y1337D02*
X724Y1337D01*
X739Y1337D02*
X763Y1337D01*
X1755Y1337D02*
X1762Y1337D01*
X0Y1336D02*
X7Y1336D01*
X288Y1336D02*
X293Y1336D01*
X317Y1336D02*
X322Y1336D01*
X338Y1336D02*
X343Y1336D01*
X364Y1336D02*
X375Y1336D01*
X658Y1336D02*
X663Y1336D01*
X679Y1336D02*
X685Y1336D01*
X698Y1336D02*
X703Y1336D01*
X720Y1336D02*
X724Y1336D01*
X740Y1336D02*
X762Y1336D01*
X1755Y1336D02*
X1762Y1336D01*
X0Y1335D02*
X7Y1335D01*
X288Y1335D02*
X293Y1335D01*
X317Y1335D02*
X321Y1335D01*
X338Y1335D02*
X343Y1335D01*
X365Y1335D02*
X374Y1335D01*
X658Y1335D02*
X663Y1335D01*
X680Y1335D02*
X685Y1335D01*
X698Y1335D02*
X702Y1335D01*
X720Y1335D02*
X724Y1335D01*
X740Y1335D02*
X761Y1335D01*
X1755Y1335D02*
X1762Y1335D01*
X0Y1334D02*
X7Y1334D01*
X289Y1334D02*
X292Y1334D01*
X317Y1334D02*
X321Y1334D01*
X339Y1334D02*
X343Y1334D01*
X366Y1334D02*
X373Y1334D01*
X659Y1334D02*
X662Y1334D01*
X681Y1334D02*
X684Y1334D01*
X698Y1334D02*
X702Y1334D01*
X720Y1334D02*
X724Y1334D01*
X741Y1334D02*
X750Y1334D01*
X752Y1334D02*
X761Y1334D01*
X1755Y1334D02*
X1762Y1334D01*
X0Y1333D02*
X7Y1333D01*
X290Y1333D02*
X291Y1333D01*
X318Y1333D02*
X320Y1333D01*
X340Y1333D02*
X341Y1333D01*
X368Y1333D02*
X371Y1333D01*
X660Y1333D02*
X661Y1333D01*
X682Y1333D02*
X683Y1333D01*
X700Y1333D02*
X701Y1333D01*
X721Y1333D02*
X723Y1333D01*
X742Y1333D02*
X749Y1333D01*
X753Y1333D02*
X759Y1333D01*
X1755Y1333D02*
X1762Y1333D01*
X0Y1332D02*
X7Y1332D01*
X1755Y1332D02*
X1762Y1332D01*
X0Y1331D02*
X7Y1331D01*
X1755Y1331D02*
X1762Y1331D01*
X0Y1330D02*
X7Y1330D01*
X1755Y1330D02*
X1762Y1330D01*
X0Y1329D02*
X7Y1329D01*
X1755Y1329D02*
X1762Y1329D01*
X0Y1328D02*
X7Y1328D01*
X1755Y1328D02*
X1762Y1328D01*
X0Y1327D02*
X7Y1327D01*
X1755Y1327D02*
X1762Y1327D01*
X0Y1326D02*
X7Y1326D01*
X1755Y1326D02*
X1762Y1326D01*
X0Y1325D02*
X7Y1325D01*
X1755Y1325D02*
X1762Y1325D01*
X0Y1324D02*
X7Y1324D01*
X1755Y1324D02*
X1762Y1324D01*
X0Y1323D02*
X7Y1323D01*
X1755Y1323D02*
X1762Y1323D01*
X0Y1322D02*
X7Y1322D01*
X1755Y1322D02*
X1762Y1322D01*
X0Y1321D02*
X7Y1321D01*
X1755Y1321D02*
X1762Y1321D01*
X0Y1320D02*
X7Y1320D01*
X1755Y1320D02*
X1762Y1320D01*
X0Y1319D02*
X7Y1319D01*
X1755Y1319D02*
X1762Y1319D01*
X0Y1318D02*
X7Y1318D01*
X1755Y1318D02*
X1762Y1318D01*
X0Y1317D02*
X7Y1317D01*
X1755Y1317D02*
X1762Y1317D01*
X0Y1316D02*
X7Y1316D01*
X1755Y1316D02*
X1762Y1316D01*
X0Y1315D02*
X7Y1315D01*
X1755Y1315D02*
X1762Y1315D01*
X0Y1314D02*
X7Y1314D01*
X1755Y1314D02*
X1762Y1314D01*
X0Y1313D02*
X7Y1313D01*
X1755Y1313D02*
X1762Y1313D01*
X0Y1312D02*
X7Y1312D01*
X1755Y1312D02*
X1762Y1312D01*
X0Y1311D02*
X7Y1311D01*
X1755Y1311D02*
X1762Y1311D01*
X0Y1310D02*
X7Y1310D01*
X1755Y1310D02*
X1762Y1310D01*
X0Y1309D02*
X7Y1309D01*
X1755Y1309D02*
X1762Y1309D01*
X0Y1308D02*
X7Y1308D01*
X1755Y1308D02*
X1762Y1308D01*
X0Y1307D02*
X7Y1307D01*
X1755Y1307D02*
X1762Y1307D01*
X0Y1306D02*
X7Y1306D01*
X1755Y1306D02*
X1762Y1306D01*
X0Y1305D02*
X7Y1305D01*
X1755Y1305D02*
X1762Y1305D01*
X0Y1304D02*
X7Y1304D01*
X1755Y1304D02*
X1762Y1304D01*
X0Y1303D02*
X7Y1303D01*
X1755Y1303D02*
X1762Y1303D01*
X0Y1302D02*
X7Y1302D01*
X1755Y1302D02*
X1762Y1302D01*
X0Y1301D02*
X7Y1301D01*
X1755Y1301D02*
X1762Y1301D01*
X0Y1300D02*
X7Y1300D01*
X1755Y1300D02*
X1762Y1300D01*
X0Y1299D02*
X7Y1299D01*
X1755Y1299D02*
X1762Y1299D01*
X0Y1298D02*
X7Y1298D01*
X1755Y1298D02*
X1762Y1298D01*
X0Y1297D02*
X7Y1297D01*
X1755Y1297D02*
X1762Y1297D01*
X0Y1296D02*
X7Y1296D01*
X1755Y1296D02*
X1762Y1296D01*
X0Y1295D02*
X7Y1295D01*
X1755Y1295D02*
X1762Y1295D01*
X0Y1294D02*
X7Y1294D01*
X1755Y1294D02*
X1762Y1294D01*
X0Y1293D02*
X7Y1293D01*
X1755Y1293D02*
X1762Y1293D01*
X0Y1292D02*
X7Y1292D01*
X1755Y1292D02*
X1762Y1292D01*
X0Y1291D02*
X7Y1291D01*
X1755Y1291D02*
X1762Y1291D01*
X0Y1290D02*
X7Y1290D01*
X1755Y1290D02*
X1762Y1290D01*
X0Y1289D02*
X7Y1289D01*
X1755Y1289D02*
X1762Y1289D01*
X0Y1288D02*
X7Y1288D01*
X1755Y1288D02*
X1762Y1288D01*
X0Y1287D02*
X7Y1287D01*
X1755Y1287D02*
X1762Y1287D01*
X0Y1286D02*
X7Y1286D01*
X0Y1285D02*
X7Y1285D01*
X0Y1284D02*
X7Y1284D01*
X0Y1283D02*
X7Y1283D01*
X0Y1282D02*
X7Y1282D01*
X0Y1281D02*
X7Y1281D01*
X0Y1280D02*
X7Y1280D01*
X0Y1279D02*
X7Y1279D01*
X0Y1278D02*
X7Y1278D01*
X0Y1277D02*
X7Y1277D01*
X0Y1276D02*
X7Y1276D01*
X0Y1275D02*
X7Y1275D01*
X277Y1275D02*
X298Y1275D01*
X318Y1275D02*
X320Y1275D01*
X340Y1275D02*
X342Y1275D01*
X357Y1275D02*
X382Y1275D01*
X671Y1275D02*
X684Y1275D01*
X698Y1275D02*
X705Y1275D01*
X721Y1275D02*
X723Y1275D01*
X739Y1275D02*
X753Y1275D01*
X0Y1274D02*
X7Y1274D01*
X277Y1274D02*
X300Y1274D01*
X317Y1274D02*
X321Y1274D01*
X339Y1274D02*
X343Y1274D01*
X357Y1274D02*
X382Y1274D01*
X670Y1274D02*
X684Y1274D01*
X698Y1274D02*
X705Y1274D01*
X720Y1274D02*
X724Y1274D01*
X738Y1274D02*
X754Y1274D01*
X0Y1273D02*
X7Y1273D01*
X277Y1273D02*
X301Y1273D01*
X317Y1273D02*
X322Y1273D01*
X338Y1273D02*
X343Y1273D01*
X356Y1273D02*
X383Y1273D01*
X669Y1273D02*
X685Y1273D01*
X698Y1273D02*
X705Y1273D01*
X720Y1273D02*
X724Y1273D01*
X738Y1273D02*
X756Y1273D01*
X0Y1272D02*
X7Y1272D01*
X277Y1272D02*
X302Y1272D01*
X317Y1272D02*
X322Y1272D01*
X338Y1272D02*
X343Y1272D01*
X357Y1272D02*
X383Y1272D01*
X668Y1272D02*
X685Y1272D01*
X698Y1272D02*
X706Y1272D01*
X720Y1272D02*
X724Y1272D01*
X738Y1272D02*
X756Y1272D01*
X0Y1271D02*
X7Y1271D01*
X277Y1271D02*
X303Y1271D01*
X317Y1271D02*
X323Y1271D01*
X337Y1271D02*
X343Y1271D01*
X357Y1271D02*
X382Y1271D01*
X667Y1271D02*
X684Y1271D01*
X698Y1271D02*
X706Y1271D01*
X720Y1271D02*
X724Y1271D01*
X738Y1271D02*
X757Y1271D01*
X0Y1270D02*
X7Y1270D01*
X277Y1270D02*
X282Y1270D01*
X297Y1270D02*
X303Y1270D01*
X318Y1270D02*
X323Y1270D01*
X336Y1270D02*
X342Y1270D01*
X367Y1270D02*
X372Y1270D01*
X666Y1270D02*
X673Y1270D01*
X698Y1270D02*
X707Y1270D01*
X720Y1270D02*
X724Y1270D01*
X743Y1270D02*
X748Y1270D01*
X751Y1270D02*
X757Y1270D01*
X0Y1269D02*
X7Y1269D01*
X277Y1269D02*
X282Y1269D01*
X298Y1269D02*
X303Y1269D01*
X319Y1269D02*
X324Y1269D01*
X336Y1269D02*
X341Y1269D01*
X367Y1269D02*
X372Y1269D01*
X665Y1269D02*
X672Y1269D01*
X698Y1269D02*
X707Y1269D01*
X720Y1269D02*
X724Y1269D01*
X743Y1269D02*
X748Y1269D01*
X753Y1269D02*
X758Y1269D01*
X0Y1268D02*
X7Y1268D01*
X277Y1268D02*
X282Y1268D01*
X299Y1268D02*
X304Y1268D01*
X319Y1268D02*
X325Y1268D01*
X335Y1268D02*
X341Y1268D01*
X367Y1268D02*
X372Y1268D01*
X665Y1268D02*
X671Y1268D01*
X698Y1268D02*
X708Y1268D01*
X720Y1268D02*
X724Y1268D01*
X743Y1268D02*
X748Y1268D01*
X753Y1268D02*
X758Y1268D01*
X0Y1267D02*
X7Y1267D01*
X277Y1267D02*
X282Y1267D01*
X299Y1267D02*
X304Y1267D01*
X320Y1267D02*
X325Y1267D01*
X335Y1267D02*
X340Y1267D01*
X367Y1267D02*
X372Y1267D01*
X664Y1267D02*
X670Y1267D01*
X698Y1267D02*
X708Y1267D01*
X720Y1267D02*
X724Y1267D01*
X743Y1267D02*
X748Y1267D01*
X754Y1267D02*
X759Y1267D01*
X0Y1266D02*
X7Y1266D01*
X277Y1266D02*
X282Y1266D01*
X299Y1266D02*
X304Y1266D01*
X320Y1266D02*
X326Y1266D01*
X334Y1266D02*
X340Y1266D01*
X367Y1266D02*
X372Y1266D01*
X663Y1266D02*
X669Y1266D01*
X698Y1266D02*
X709Y1266D01*
X720Y1266D02*
X724Y1266D01*
X743Y1266D02*
X748Y1266D01*
X754Y1266D02*
X759Y1266D01*
X1755Y1266D02*
X1762Y1266D01*
X0Y1265D02*
X7Y1265D01*
X277Y1265D02*
X282Y1265D01*
X299Y1265D02*
X304Y1265D01*
X321Y1265D02*
X326Y1265D01*
X334Y1265D02*
X339Y1265D01*
X367Y1265D02*
X372Y1265D01*
X662Y1265D02*
X668Y1265D01*
X698Y1265D02*
X709Y1265D01*
X720Y1265D02*
X724Y1265D01*
X743Y1265D02*
X748Y1265D01*
X755Y1265D02*
X760Y1265D01*
X1755Y1265D02*
X1762Y1265D01*
X0Y1264D02*
X7Y1264D01*
X277Y1264D02*
X282Y1264D01*
X299Y1264D02*
X304Y1264D01*
X322Y1264D02*
X327Y1264D01*
X333Y1264D02*
X338Y1264D01*
X367Y1264D02*
X372Y1264D01*
X662Y1264D02*
X668Y1264D01*
X698Y1264D02*
X709Y1264D01*
X720Y1264D02*
X724Y1264D01*
X743Y1264D02*
X748Y1264D01*
X755Y1264D02*
X760Y1264D01*
X1755Y1264D02*
X1762Y1264D01*
X0Y1263D02*
X7Y1263D01*
X277Y1263D02*
X282Y1263D01*
X299Y1263D02*
X303Y1263D01*
X322Y1263D02*
X328Y1263D01*
X332Y1263D02*
X338Y1263D01*
X367Y1263D02*
X372Y1263D01*
X661Y1263D02*
X667Y1263D01*
X698Y1263D02*
X703Y1263D01*
X705Y1263D02*
X710Y1263D01*
X720Y1263D02*
X724Y1263D01*
X743Y1263D02*
X748Y1263D01*
X756Y1263D02*
X761Y1263D01*
X1755Y1263D02*
X1762Y1263D01*
X0Y1262D02*
X7Y1262D01*
X277Y1262D02*
X282Y1262D01*
X297Y1262D02*
X303Y1262D01*
X323Y1262D02*
X328Y1262D01*
X332Y1262D02*
X337Y1262D01*
X367Y1262D02*
X372Y1262D01*
X660Y1262D02*
X666Y1262D01*
X698Y1262D02*
X703Y1262D01*
X705Y1262D02*
X710Y1262D01*
X720Y1262D02*
X724Y1262D01*
X743Y1262D02*
X748Y1262D01*
X756Y1262D02*
X762Y1262D01*
X1755Y1262D02*
X1762Y1262D01*
X0Y1261D02*
X7Y1261D01*
X277Y1261D02*
X303Y1261D01*
X323Y1261D02*
X329Y1261D01*
X331Y1261D02*
X337Y1261D01*
X367Y1261D02*
X372Y1261D01*
X660Y1261D02*
X665Y1261D01*
X698Y1261D02*
X703Y1261D01*
X706Y1261D02*
X711Y1261D01*
X720Y1261D02*
X724Y1261D01*
X743Y1261D02*
X748Y1261D01*
X757Y1261D02*
X762Y1261D01*
X1755Y1261D02*
X1762Y1261D01*
X0Y1260D02*
X7Y1260D01*
X277Y1260D02*
X302Y1260D01*
X324Y1260D02*
X336Y1260D01*
X367Y1260D02*
X372Y1260D01*
X659Y1260D02*
X664Y1260D01*
X698Y1260D02*
X703Y1260D01*
X706Y1260D02*
X711Y1260D01*
X720Y1260D02*
X724Y1260D01*
X743Y1260D02*
X748Y1260D01*
X757Y1260D02*
X762Y1260D01*
X1755Y1260D02*
X1762Y1260D01*
X0Y1259D02*
X7Y1259D01*
X277Y1259D02*
X301Y1259D01*
X324Y1259D02*
X335Y1259D01*
X367Y1259D02*
X372Y1259D01*
X659Y1259D02*
X664Y1259D01*
X698Y1259D02*
X703Y1259D01*
X706Y1259D02*
X712Y1259D01*
X720Y1259D02*
X724Y1259D01*
X743Y1259D02*
X748Y1259D01*
X758Y1259D02*
X763Y1259D01*
X1755Y1259D02*
X1762Y1259D01*
X0Y1258D02*
X7Y1258D01*
X277Y1258D02*
X300Y1258D01*
X325Y1258D02*
X335Y1258D01*
X367Y1258D02*
X372Y1258D01*
X659Y1258D02*
X663Y1258D01*
X698Y1258D02*
X703Y1258D01*
X707Y1258D02*
X712Y1258D01*
X720Y1258D02*
X724Y1258D01*
X743Y1258D02*
X748Y1258D01*
X758Y1258D02*
X763Y1258D01*
X1755Y1258D02*
X1762Y1258D01*
X0Y1257D02*
X7Y1257D01*
X277Y1257D02*
X299Y1257D01*
X326Y1257D02*
X334Y1257D01*
X367Y1257D02*
X372Y1257D01*
X658Y1257D02*
X663Y1257D01*
X698Y1257D02*
X703Y1257D01*
X707Y1257D02*
X712Y1257D01*
X720Y1257D02*
X724Y1257D01*
X743Y1257D02*
X748Y1257D01*
X759Y1257D02*
X764Y1257D01*
X1755Y1257D02*
X1762Y1257D01*
X0Y1256D02*
X7Y1256D01*
X277Y1256D02*
X282Y1256D01*
X286Y1256D02*
X293Y1256D01*
X326Y1256D02*
X334Y1256D01*
X367Y1256D02*
X372Y1256D01*
X658Y1256D02*
X663Y1256D01*
X698Y1256D02*
X703Y1256D01*
X708Y1256D02*
X713Y1256D01*
X720Y1256D02*
X724Y1256D01*
X743Y1256D02*
X748Y1256D01*
X759Y1256D02*
X764Y1256D01*
X1755Y1256D02*
X1762Y1256D01*
X0Y1255D02*
X7Y1255D01*
X277Y1255D02*
X282Y1255D01*
X287Y1255D02*
X293Y1255D01*
X327Y1255D02*
X333Y1255D01*
X367Y1255D02*
X372Y1255D01*
X658Y1255D02*
X663Y1255D01*
X698Y1255D02*
X703Y1255D01*
X708Y1255D02*
X713Y1255D01*
X720Y1255D02*
X724Y1255D01*
X743Y1255D02*
X748Y1255D01*
X759Y1255D02*
X764Y1255D01*
X1755Y1255D02*
X1762Y1255D01*
X0Y1254D02*
X7Y1254D01*
X277Y1254D02*
X282Y1254D01*
X288Y1254D02*
X293Y1254D01*
X327Y1254D02*
X333Y1254D01*
X367Y1254D02*
X372Y1254D01*
X658Y1254D02*
X663Y1254D01*
X698Y1254D02*
X703Y1254D01*
X709Y1254D02*
X714Y1254D01*
X720Y1254D02*
X724Y1254D01*
X743Y1254D02*
X748Y1254D01*
X759Y1254D02*
X764Y1254D01*
X1755Y1254D02*
X1762Y1254D01*
X0Y1253D02*
X7Y1253D01*
X277Y1253D02*
X282Y1253D01*
X288Y1253D02*
X294Y1253D01*
X327Y1253D02*
X333Y1253D01*
X367Y1253D02*
X372Y1253D01*
X658Y1253D02*
X663Y1253D01*
X698Y1253D02*
X703Y1253D01*
X709Y1253D02*
X714Y1253D01*
X720Y1253D02*
X724Y1253D01*
X743Y1253D02*
X748Y1253D01*
X759Y1253D02*
X764Y1253D01*
X1755Y1253D02*
X1762Y1253D01*
X0Y1252D02*
X7Y1252D01*
X277Y1252D02*
X282Y1252D01*
X289Y1252D02*
X294Y1252D01*
X326Y1252D02*
X334Y1252D01*
X367Y1252D02*
X372Y1252D01*
X658Y1252D02*
X663Y1252D01*
X673Y1252D02*
X685Y1252D01*
X698Y1252D02*
X703Y1252D01*
X710Y1252D02*
X715Y1252D01*
X720Y1252D02*
X724Y1252D01*
X743Y1252D02*
X748Y1252D01*
X759Y1252D02*
X764Y1252D01*
X1755Y1252D02*
X1762Y1252D01*
X0Y1251D02*
X7Y1251D01*
X277Y1251D02*
X282Y1251D01*
X290Y1251D02*
X295Y1251D01*
X325Y1251D02*
X335Y1251D01*
X367Y1251D02*
X372Y1251D01*
X658Y1251D02*
X663Y1251D01*
X672Y1251D02*
X685Y1251D01*
X698Y1251D02*
X703Y1251D01*
X710Y1251D02*
X715Y1251D01*
X720Y1251D02*
X724Y1251D01*
X743Y1251D02*
X748Y1251D01*
X759Y1251D02*
X763Y1251D01*
X1755Y1251D02*
X1762Y1251D01*
X0Y1250D02*
X7Y1250D01*
X277Y1250D02*
X282Y1250D01*
X290Y1250D02*
X296Y1250D01*
X325Y1250D02*
X335Y1250D01*
X367Y1250D02*
X372Y1250D01*
X658Y1250D02*
X663Y1250D01*
X672Y1250D02*
X685Y1250D01*
X698Y1250D02*
X703Y1250D01*
X710Y1250D02*
X716Y1250D01*
X720Y1250D02*
X724Y1250D01*
X743Y1250D02*
X748Y1250D01*
X758Y1250D02*
X763Y1250D01*
X1755Y1250D02*
X1762Y1250D01*
X0Y1249D02*
X7Y1249D01*
X277Y1249D02*
X282Y1249D01*
X291Y1249D02*
X296Y1249D01*
X324Y1249D02*
X336Y1249D01*
X367Y1249D02*
X372Y1249D01*
X658Y1249D02*
X663Y1249D01*
X672Y1249D02*
X685Y1249D01*
X698Y1249D02*
X703Y1249D01*
X711Y1249D02*
X716Y1249D01*
X720Y1249D02*
X724Y1249D01*
X743Y1249D02*
X748Y1249D01*
X758Y1249D02*
X763Y1249D01*
X1755Y1249D02*
X1762Y1249D01*
X0Y1248D02*
X7Y1248D01*
X277Y1248D02*
X282Y1248D01*
X291Y1248D02*
X297Y1248D01*
X324Y1248D02*
X329Y1248D01*
X331Y1248D02*
X336Y1248D01*
X367Y1248D02*
X372Y1248D01*
X658Y1248D02*
X663Y1248D01*
X673Y1248D02*
X685Y1248D01*
X698Y1248D02*
X703Y1248D01*
X711Y1248D02*
X716Y1248D01*
X720Y1248D02*
X724Y1248D01*
X743Y1248D02*
X748Y1248D01*
X757Y1248D02*
X762Y1248D01*
X1755Y1248D02*
X1762Y1248D01*
X0Y1247D02*
X7Y1247D01*
X277Y1247D02*
X282Y1247D01*
X292Y1247D02*
X297Y1247D01*
X323Y1247D02*
X329Y1247D01*
X331Y1247D02*
X337Y1247D01*
X367Y1247D02*
X372Y1247D01*
X658Y1247D02*
X663Y1247D01*
X674Y1247D02*
X685Y1247D01*
X698Y1247D02*
X703Y1247D01*
X712Y1247D02*
X717Y1247D01*
X720Y1247D02*
X724Y1247D01*
X743Y1247D02*
X748Y1247D01*
X757Y1247D02*
X762Y1247D01*
X1755Y1247D02*
X1762Y1247D01*
X0Y1246D02*
X7Y1246D01*
X277Y1246D02*
X282Y1246D01*
X292Y1246D02*
X298Y1246D01*
X322Y1246D02*
X328Y1246D01*
X332Y1246D02*
X338Y1246D01*
X367Y1246D02*
X372Y1246D01*
X658Y1246D02*
X663Y1246D01*
X680Y1246D02*
X685Y1246D01*
X698Y1246D02*
X703Y1246D01*
X712Y1246D02*
X717Y1246D01*
X720Y1246D02*
X724Y1246D01*
X743Y1246D02*
X748Y1246D01*
X756Y1246D02*
X761Y1246D01*
X1755Y1246D02*
X1762Y1246D01*
X0Y1245D02*
X7Y1245D01*
X277Y1245D02*
X282Y1245D01*
X293Y1245D02*
X299Y1245D01*
X322Y1245D02*
X327Y1245D01*
X333Y1245D02*
X338Y1245D01*
X367Y1245D02*
X372Y1245D01*
X658Y1245D02*
X663Y1245D01*
X680Y1245D02*
X685Y1245D01*
X698Y1245D02*
X703Y1245D01*
X713Y1245D02*
X718Y1245D01*
X720Y1245D02*
X724Y1245D01*
X743Y1245D02*
X748Y1245D01*
X756Y1245D02*
X761Y1245D01*
X1755Y1245D02*
X1762Y1245D01*
X0Y1244D02*
X7Y1244D01*
X277Y1244D02*
X282Y1244D01*
X294Y1244D02*
X299Y1244D01*
X321Y1244D02*
X327Y1244D01*
X333Y1244D02*
X339Y1244D01*
X367Y1244D02*
X372Y1244D01*
X658Y1244D02*
X663Y1244D01*
X680Y1244D02*
X685Y1244D01*
X698Y1244D02*
X703Y1244D01*
X713Y1244D02*
X718Y1244D01*
X720Y1244D02*
X724Y1244D01*
X743Y1244D02*
X748Y1244D01*
X755Y1244D02*
X760Y1244D01*
X1755Y1244D02*
X1762Y1244D01*
X0Y1243D02*
X7Y1243D01*
X277Y1243D02*
X282Y1243D01*
X294Y1243D02*
X300Y1243D01*
X321Y1243D02*
X326Y1243D01*
X334Y1243D02*
X339Y1243D01*
X367Y1243D02*
X372Y1243D01*
X658Y1243D02*
X663Y1243D01*
X680Y1243D02*
X685Y1243D01*
X698Y1243D02*
X703Y1243D01*
X713Y1243D02*
X724Y1243D01*
X743Y1243D02*
X748Y1243D01*
X755Y1243D02*
X760Y1243D01*
X1755Y1243D02*
X1762Y1243D01*
X0Y1242D02*
X7Y1242D01*
X277Y1242D02*
X282Y1242D01*
X295Y1242D02*
X300Y1242D01*
X320Y1242D02*
X326Y1242D01*
X334Y1242D02*
X340Y1242D01*
X367Y1242D02*
X372Y1242D01*
X658Y1242D02*
X663Y1242D01*
X680Y1242D02*
X685Y1242D01*
X698Y1242D02*
X703Y1242D01*
X714Y1242D02*
X724Y1242D01*
X743Y1242D02*
X748Y1242D01*
X754Y1242D02*
X759Y1242D01*
X1755Y1242D02*
X1762Y1242D01*
X0Y1241D02*
X7Y1241D01*
X277Y1241D02*
X282Y1241D01*
X295Y1241D02*
X301Y1241D01*
X319Y1241D02*
X325Y1241D01*
X335Y1241D02*
X340Y1241D01*
X367Y1241D02*
X372Y1241D01*
X658Y1241D02*
X663Y1241D01*
X680Y1241D02*
X685Y1241D01*
X698Y1241D02*
X703Y1241D01*
X714Y1241D02*
X724Y1241D01*
X743Y1241D02*
X748Y1241D01*
X754Y1241D02*
X759Y1241D01*
X1755Y1241D02*
X1762Y1241D01*
X0Y1240D02*
X7Y1240D01*
X277Y1240D02*
X282Y1240D01*
X296Y1240D02*
X301Y1240D01*
X319Y1240D02*
X324Y1240D01*
X336Y1240D02*
X341Y1240D01*
X367Y1240D02*
X372Y1240D01*
X658Y1240D02*
X663Y1240D01*
X680Y1240D02*
X685Y1240D01*
X698Y1240D02*
X703Y1240D01*
X715Y1240D02*
X724Y1240D01*
X743Y1240D02*
X748Y1240D01*
X753Y1240D02*
X758Y1240D01*
X1755Y1240D02*
X1762Y1240D01*
X0Y1239D02*
X7Y1239D01*
X277Y1239D02*
X282Y1239D01*
X297Y1239D02*
X302Y1239D01*
X318Y1239D02*
X324Y1239D01*
X336Y1239D02*
X342Y1239D01*
X367Y1239D02*
X372Y1239D01*
X659Y1239D02*
X664Y1239D01*
X679Y1239D02*
X684Y1239D01*
X698Y1239D02*
X703Y1239D01*
X715Y1239D02*
X724Y1239D01*
X743Y1239D02*
X748Y1239D01*
X752Y1239D02*
X758Y1239D01*
X1755Y1239D02*
X1762Y1239D01*
X0Y1238D02*
X7Y1238D01*
X277Y1238D02*
X282Y1238D01*
X297Y1238D02*
X303Y1238D01*
X318Y1238D02*
X323Y1238D01*
X337Y1238D02*
X342Y1238D01*
X358Y1238D02*
X381Y1238D01*
X659Y1238D02*
X684Y1238D01*
X698Y1238D02*
X703Y1238D01*
X716Y1238D02*
X724Y1238D01*
X739Y1238D02*
X757Y1238D01*
X1755Y1238D02*
X1762Y1238D01*
X0Y1237D02*
X7Y1237D01*
X277Y1237D02*
X282Y1237D01*
X298Y1237D02*
X303Y1237D01*
X317Y1237D02*
X323Y1237D01*
X337Y1237D02*
X343Y1237D01*
X357Y1237D02*
X382Y1237D01*
X659Y1237D02*
X684Y1237D01*
X698Y1237D02*
X703Y1237D01*
X716Y1237D02*
X724Y1237D01*
X738Y1237D02*
X757Y1237D01*
X1755Y1237D02*
X1762Y1237D01*
X0Y1236D02*
X7Y1236D01*
X277Y1236D02*
X282Y1236D01*
X298Y1236D02*
X303Y1236D01*
X317Y1236D02*
X322Y1236D01*
X338Y1236D02*
X343Y1236D01*
X356Y1236D02*
X383Y1236D01*
X660Y1236D02*
X683Y1236D01*
X698Y1236D02*
X703Y1236D01*
X717Y1236D02*
X724Y1236D01*
X738Y1236D02*
X756Y1236D01*
X1755Y1236D02*
X1762Y1236D01*
X0Y1235D02*
X7Y1235D01*
X277Y1235D02*
X282Y1235D01*
X299Y1235D02*
X303Y1235D01*
X317Y1235D02*
X321Y1235D01*
X338Y1235D02*
X343Y1235D01*
X357Y1235D02*
X383Y1235D01*
X661Y1235D02*
X682Y1235D01*
X698Y1235D02*
X702Y1235D01*
X717Y1235D02*
X724Y1235D01*
X738Y1235D02*
X755Y1235D01*
X1755Y1235D02*
X1762Y1235D01*
X0Y1234D02*
X7Y1234D01*
X278Y1234D02*
X281Y1234D01*
X300Y1234D02*
X303Y1234D01*
X317Y1234D02*
X321Y1234D01*
X339Y1234D02*
X343Y1234D01*
X357Y1234D02*
X382Y1234D01*
X662Y1234D02*
X681Y1234D01*
X698Y1234D02*
X702Y1234D01*
X717Y1234D02*
X724Y1234D01*
X738Y1234D02*
X754Y1234D01*
X1755Y1234D02*
X1762Y1234D01*
X0Y1233D02*
X7Y1233D01*
X279Y1233D02*
X280Y1233D01*
X301Y1233D02*
X302Y1233D01*
X319Y1233D02*
X319Y1233D01*
X340Y1233D02*
X341Y1233D01*
X358Y1233D02*
X381Y1233D01*
X665Y1233D02*
X678Y1233D01*
X700Y1233D02*
X701Y1233D01*
X718Y1233D02*
X724Y1233D01*
X739Y1233D02*
X751Y1233D01*
X1755Y1233D02*
X1762Y1233D01*
X0Y1232D02*
X7Y1232D01*
X0Y1231D02*
X7Y1231D01*
X0Y1230D02*
X7Y1230D01*
X0Y1229D02*
X7Y1229D01*
X0Y1228D02*
X7Y1228D01*
X0Y1227D02*
X7Y1227D01*
X0Y1226D02*
X7Y1226D01*
X0Y1225D02*
X7Y1225D01*
X0Y1224D02*
X7Y1224D01*
X0Y1223D02*
X7Y1223D01*
X0Y1222D02*
X7Y1222D01*
X0Y1221D02*
X7Y1221D01*
X0Y1220D02*
X7Y1220D01*
X0Y1219D02*
X7Y1219D01*
X0Y1218D02*
X7Y1218D01*
X0Y1217D02*
X7Y1217D01*
X0Y1216D02*
X7Y1216D01*
X0Y1215D02*
X7Y1215D01*
X0Y1214D02*
X7Y1214D01*
X0Y1213D02*
X7Y1213D01*
X0Y1212D02*
X7Y1212D01*
X1755Y1212D02*
X1762Y1212D01*
X0Y1211D02*
X7Y1211D01*
X1755Y1211D02*
X1762Y1211D01*
X0Y1210D02*
X7Y1210D01*
X516Y1210D02*
X525Y1210D01*
X1755Y1210D02*
X1762Y1210D01*
X0Y1209D02*
X7Y1209D01*
X516Y1209D02*
X525Y1209D01*
X1755Y1209D02*
X1762Y1209D01*
X0Y1208D02*
X7Y1208D01*
X516Y1208D02*
X525Y1208D01*
X1755Y1208D02*
X1762Y1208D01*
X0Y1207D02*
X7Y1207D01*
X516Y1207D02*
X525Y1207D01*
X1755Y1207D02*
X1762Y1207D01*
X0Y1206D02*
X7Y1206D01*
X516Y1206D02*
X525Y1206D01*
X1755Y1206D02*
X1762Y1206D01*
X0Y1205D02*
X7Y1205D01*
X516Y1205D02*
X525Y1205D01*
X1755Y1205D02*
X1762Y1205D01*
X0Y1204D02*
X7Y1204D01*
X516Y1204D02*
X525Y1204D01*
X1755Y1204D02*
X1762Y1204D01*
X0Y1203D02*
X7Y1203D01*
X516Y1203D02*
X525Y1203D01*
X1755Y1203D02*
X1762Y1203D01*
X0Y1202D02*
X7Y1202D01*
X516Y1202D02*
X525Y1202D01*
X1755Y1202D02*
X1762Y1202D01*
X0Y1201D02*
X7Y1201D01*
X516Y1201D02*
X525Y1201D01*
X1755Y1201D02*
X1762Y1201D01*
X0Y1200D02*
X7Y1200D01*
X516Y1200D02*
X525Y1200D01*
X1755Y1200D02*
X1762Y1200D01*
X0Y1199D02*
X7Y1199D01*
X516Y1199D02*
X525Y1199D01*
X1755Y1199D02*
X1762Y1199D01*
X0Y1198D02*
X7Y1198D01*
X516Y1198D02*
X525Y1198D01*
X1755Y1198D02*
X1762Y1198D01*
X0Y1197D02*
X7Y1197D01*
X516Y1197D02*
X525Y1197D01*
X1755Y1197D02*
X1762Y1197D01*
X0Y1196D02*
X7Y1196D01*
X516Y1196D02*
X525Y1196D01*
X1755Y1196D02*
X1762Y1196D01*
X0Y1195D02*
X7Y1195D01*
X516Y1195D02*
X525Y1195D01*
X1755Y1195D02*
X1762Y1195D01*
X0Y1194D02*
X7Y1194D01*
X516Y1194D02*
X525Y1194D01*
X1755Y1194D02*
X1762Y1194D01*
X0Y1193D02*
X7Y1193D01*
X516Y1193D02*
X525Y1193D01*
X1755Y1193D02*
X1762Y1193D01*
X0Y1192D02*
X7Y1192D01*
X516Y1192D02*
X525Y1192D01*
X1755Y1192D02*
X1762Y1192D01*
X0Y1191D02*
X7Y1191D01*
X516Y1191D02*
X525Y1191D01*
X1755Y1191D02*
X1762Y1191D01*
X0Y1190D02*
X7Y1190D01*
X516Y1190D02*
X525Y1190D01*
X1755Y1190D02*
X1762Y1190D01*
X0Y1189D02*
X7Y1189D01*
X516Y1189D02*
X525Y1189D01*
X1755Y1189D02*
X1762Y1189D01*
X0Y1188D02*
X7Y1188D01*
X516Y1188D02*
X525Y1188D01*
X1755Y1188D02*
X1762Y1188D01*
X0Y1187D02*
X7Y1187D01*
X516Y1187D02*
X525Y1187D01*
X1755Y1187D02*
X1762Y1187D01*
X0Y1186D02*
X7Y1186D01*
X516Y1186D02*
X525Y1186D01*
X1755Y1186D02*
X1762Y1186D01*
X0Y1185D02*
X7Y1185D01*
X516Y1185D02*
X525Y1185D01*
X1755Y1185D02*
X1762Y1185D01*
X0Y1184D02*
X7Y1184D01*
X516Y1184D02*
X525Y1184D01*
X1755Y1184D02*
X1762Y1184D01*
X0Y1183D02*
X7Y1183D01*
X516Y1183D02*
X525Y1183D01*
X1755Y1183D02*
X1762Y1183D01*
X0Y1182D02*
X7Y1182D01*
X516Y1182D02*
X525Y1182D01*
X1755Y1182D02*
X1762Y1182D01*
X0Y1181D02*
X7Y1181D01*
X516Y1181D02*
X525Y1181D01*
X1755Y1181D02*
X1762Y1181D01*
X0Y1180D02*
X7Y1180D01*
X516Y1180D02*
X525Y1180D01*
X1755Y1180D02*
X1762Y1180D01*
X0Y1179D02*
X7Y1179D01*
X516Y1179D02*
X525Y1179D01*
X1755Y1179D02*
X1762Y1179D01*
X0Y1178D02*
X7Y1178D01*
X516Y1178D02*
X525Y1178D01*
X0Y1177D02*
X7Y1177D01*
X516Y1177D02*
X525Y1177D01*
X0Y1176D02*
X7Y1176D01*
X516Y1176D02*
X525Y1176D01*
X0Y1175D02*
X7Y1175D01*
X290Y1175D02*
X303Y1175D01*
X317Y1175D02*
X323Y1175D01*
X340Y1175D02*
X342Y1175D01*
X357Y1175D02*
X372Y1175D01*
X516Y1175D02*
X525Y1175D01*
X658Y1175D02*
X680Y1175D01*
X701Y1175D02*
X720Y1175D01*
X738Y1175D02*
X764Y1175D01*
X0Y1174D02*
X7Y1174D01*
X288Y1174D02*
X303Y1174D01*
X317Y1174D02*
X324Y1174D01*
X339Y1174D02*
X343Y1174D01*
X357Y1174D02*
X373Y1174D01*
X516Y1174D02*
X525Y1174D01*
X658Y1174D02*
X681Y1174D01*
X700Y1174D02*
X722Y1174D01*
X738Y1174D02*
X764Y1174D01*
X0Y1173D02*
X7Y1173D01*
X287Y1173D02*
X304Y1173D01*
X317Y1173D02*
X324Y1173D01*
X339Y1173D02*
X343Y1173D01*
X356Y1173D02*
X374Y1173D01*
X516Y1173D02*
X525Y1173D01*
X658Y1173D02*
X682Y1173D01*
X699Y1173D02*
X723Y1173D01*
X738Y1173D02*
X764Y1173D01*
X0Y1172D02*
X7Y1172D01*
X287Y1172D02*
X303Y1172D01*
X317Y1172D02*
X325Y1172D01*
X339Y1172D02*
X343Y1172D01*
X357Y1172D02*
X375Y1172D01*
X516Y1172D02*
X525Y1172D01*
X658Y1172D02*
X683Y1172D01*
X698Y1172D02*
X723Y1172D01*
X738Y1172D02*
X764Y1172D01*
X0Y1171D02*
X7Y1171D01*
X286Y1171D02*
X303Y1171D01*
X317Y1171D02*
X325Y1171D01*
X339Y1171D02*
X343Y1171D01*
X357Y1171D02*
X376Y1171D01*
X516Y1171D02*
X525Y1171D01*
X658Y1171D02*
X684Y1171D01*
X698Y1171D02*
X724Y1171D01*
X738Y1171D02*
X764Y1171D01*
X0Y1170D02*
X7Y1170D01*
X285Y1170D02*
X292Y1170D01*
X317Y1170D02*
X326Y1170D01*
X339Y1170D02*
X343Y1170D01*
X362Y1170D02*
X367Y1170D01*
X370Y1170D02*
X376Y1170D01*
X516Y1170D02*
X525Y1170D01*
X658Y1170D02*
X663Y1170D01*
X678Y1170D02*
X684Y1170D01*
X698Y1170D02*
X703Y1170D01*
X718Y1170D02*
X724Y1170D01*
X738Y1170D02*
X742Y1170D01*
X748Y1170D02*
X753Y1170D01*
X759Y1170D02*
X764Y1170D01*
X0Y1169D02*
X7Y1169D01*
X284Y1169D02*
X290Y1169D01*
X317Y1169D02*
X326Y1169D01*
X339Y1169D02*
X343Y1169D01*
X362Y1169D02*
X366Y1169D01*
X371Y1169D02*
X377Y1169D01*
X516Y1169D02*
X525Y1169D01*
X658Y1169D02*
X663Y1169D01*
X680Y1169D02*
X685Y1169D01*
X698Y1169D02*
X703Y1169D01*
X720Y1169D02*
X724Y1169D01*
X738Y1169D02*
X742Y1169D01*
X748Y1169D02*
X753Y1169D01*
X759Y1169D02*
X764Y1169D01*
X0Y1168D02*
X7Y1168D01*
X284Y1168D02*
X290Y1168D01*
X317Y1168D02*
X327Y1168D01*
X339Y1168D02*
X343Y1168D01*
X362Y1168D02*
X366Y1168D01*
X372Y1168D02*
X377Y1168D01*
X516Y1168D02*
X525Y1168D01*
X658Y1168D02*
X663Y1168D01*
X680Y1168D02*
X685Y1168D01*
X698Y1168D02*
X703Y1168D01*
X720Y1168D02*
X724Y1168D01*
X738Y1168D02*
X742Y1168D01*
X748Y1168D02*
X753Y1168D01*
X759Y1168D02*
X764Y1168D01*
X0Y1167D02*
X7Y1167D01*
X283Y1167D02*
X289Y1167D01*
X317Y1167D02*
X327Y1167D01*
X339Y1167D02*
X343Y1167D01*
X362Y1167D02*
X366Y1167D01*
X373Y1167D02*
X378Y1167D01*
X516Y1167D02*
X525Y1167D01*
X658Y1167D02*
X663Y1167D01*
X680Y1167D02*
X685Y1167D01*
X698Y1167D02*
X704Y1167D01*
X720Y1167D02*
X724Y1167D01*
X738Y1167D02*
X742Y1167D01*
X748Y1167D02*
X753Y1167D01*
X760Y1167D02*
X764Y1167D01*
X0Y1166D02*
X7Y1166D01*
X282Y1166D02*
X288Y1166D01*
X317Y1166D02*
X327Y1166D01*
X339Y1166D02*
X343Y1166D01*
X362Y1166D02*
X366Y1166D01*
X373Y1166D02*
X378Y1166D01*
X516Y1166D02*
X525Y1166D01*
X658Y1166D02*
X663Y1166D01*
X680Y1166D02*
X685Y1166D01*
X699Y1166D02*
X705Y1166D01*
X721Y1166D02*
X723Y1166D01*
X739Y1166D02*
X741Y1166D01*
X748Y1166D02*
X753Y1166D01*
X761Y1166D02*
X763Y1166D01*
X0Y1165D02*
X7Y1165D01*
X281Y1165D02*
X287Y1165D01*
X317Y1165D02*
X328Y1165D01*
X339Y1165D02*
X343Y1165D01*
X362Y1165D02*
X366Y1165D01*
X374Y1165D02*
X379Y1165D01*
X516Y1165D02*
X525Y1165D01*
X658Y1165D02*
X663Y1165D01*
X680Y1165D02*
X685Y1165D01*
X700Y1165D02*
X706Y1165D01*
X748Y1165D02*
X753Y1165D01*
X0Y1164D02*
X7Y1164D01*
X280Y1164D02*
X286Y1164D01*
X317Y1164D02*
X321Y1164D01*
X323Y1164D02*
X328Y1164D01*
X339Y1164D02*
X343Y1164D01*
X362Y1164D02*
X366Y1164D01*
X374Y1164D02*
X379Y1164D01*
X516Y1164D02*
X525Y1164D01*
X658Y1164D02*
X663Y1164D01*
X680Y1164D02*
X685Y1164D01*
X700Y1164D02*
X707Y1164D01*
X748Y1164D02*
X753Y1164D01*
X0Y1163D02*
X7Y1163D01*
X280Y1163D02*
X286Y1163D01*
X317Y1163D02*
X321Y1163D01*
X324Y1163D02*
X329Y1163D01*
X339Y1163D02*
X343Y1163D01*
X362Y1163D02*
X366Y1163D01*
X375Y1163D02*
X380Y1163D01*
X516Y1163D02*
X525Y1163D01*
X658Y1163D02*
X663Y1163D01*
X680Y1163D02*
X685Y1163D01*
X701Y1163D02*
X707Y1163D01*
X748Y1163D02*
X753Y1163D01*
X0Y1162D02*
X7Y1162D01*
X279Y1162D02*
X285Y1162D01*
X317Y1162D02*
X321Y1162D01*
X324Y1162D02*
X329Y1162D01*
X339Y1162D02*
X343Y1162D01*
X362Y1162D02*
X366Y1162D01*
X375Y1162D02*
X380Y1162D01*
X516Y1162D02*
X525Y1162D01*
X658Y1162D02*
X663Y1162D01*
X678Y1162D02*
X684Y1162D01*
X702Y1162D02*
X708Y1162D01*
X748Y1162D02*
X753Y1162D01*
X0Y1161D02*
X7Y1161D01*
X278Y1161D02*
X284Y1161D01*
X317Y1161D02*
X321Y1161D01*
X324Y1161D02*
X330Y1161D01*
X339Y1161D02*
X343Y1161D01*
X362Y1161D02*
X366Y1161D01*
X376Y1161D02*
X381Y1161D01*
X516Y1161D02*
X525Y1161D01*
X658Y1161D02*
X684Y1161D01*
X703Y1161D02*
X709Y1161D01*
X748Y1161D02*
X753Y1161D01*
X0Y1160D02*
X7Y1160D01*
X278Y1160D02*
X283Y1160D01*
X317Y1160D02*
X321Y1160D01*
X325Y1160D02*
X330Y1160D01*
X339Y1160D02*
X343Y1160D01*
X362Y1160D02*
X366Y1160D01*
X376Y1160D02*
X381Y1160D01*
X516Y1160D02*
X525Y1160D01*
X658Y1160D02*
X683Y1160D01*
X704Y1160D02*
X710Y1160D01*
X748Y1160D02*
X753Y1160D01*
X0Y1159D02*
X7Y1159D01*
X278Y1159D02*
X283Y1159D01*
X317Y1159D02*
X321Y1159D01*
X325Y1159D02*
X330Y1159D01*
X339Y1159D02*
X343Y1159D01*
X362Y1159D02*
X366Y1159D01*
X377Y1159D02*
X382Y1159D01*
X516Y1159D02*
X525Y1159D01*
X658Y1159D02*
X683Y1159D01*
X704Y1159D02*
X710Y1159D01*
X748Y1159D02*
X753Y1159D01*
X0Y1158D02*
X7Y1158D01*
X277Y1158D02*
X282Y1158D01*
X317Y1158D02*
X321Y1158D01*
X326Y1158D02*
X331Y1158D01*
X339Y1158D02*
X343Y1158D01*
X362Y1158D02*
X366Y1158D01*
X377Y1158D02*
X382Y1158D01*
X516Y1158D02*
X525Y1158D01*
X658Y1158D02*
X682Y1158D01*
X705Y1158D02*
X711Y1158D01*
X748Y1158D02*
X753Y1158D01*
X1755Y1158D02*
X1762Y1158D01*
X0Y1157D02*
X7Y1157D01*
X277Y1157D02*
X282Y1157D01*
X317Y1157D02*
X321Y1157D01*
X326Y1157D02*
X331Y1157D01*
X339Y1157D02*
X343Y1157D01*
X362Y1157D02*
X366Y1157D01*
X378Y1157D02*
X382Y1157D01*
X516Y1157D02*
X525Y1157D01*
X658Y1157D02*
X680Y1157D01*
X706Y1157D02*
X712Y1157D01*
X748Y1157D02*
X753Y1157D01*
X1755Y1157D02*
X1762Y1157D01*
X0Y1156D02*
X7Y1156D01*
X277Y1156D02*
X282Y1156D01*
X317Y1156D02*
X321Y1156D01*
X327Y1156D02*
X332Y1156D01*
X339Y1156D02*
X343Y1156D01*
X362Y1156D02*
X366Y1156D01*
X378Y1156D02*
X383Y1156D01*
X516Y1156D02*
X525Y1156D01*
X658Y1156D02*
X663Y1156D01*
X668Y1156D02*
X674Y1156D01*
X707Y1156D02*
X713Y1156D01*
X748Y1156D02*
X753Y1156D01*
X1755Y1156D02*
X1762Y1156D01*
X0Y1155D02*
X7Y1155D01*
X277Y1155D02*
X282Y1155D01*
X317Y1155D02*
X321Y1155D01*
X327Y1155D02*
X332Y1155D01*
X339Y1155D02*
X343Y1155D01*
X362Y1155D02*
X366Y1155D01*
X378Y1155D02*
X383Y1155D01*
X516Y1155D02*
X525Y1155D01*
X658Y1155D02*
X663Y1155D01*
X668Y1155D02*
X674Y1155D01*
X707Y1155D02*
X714Y1155D01*
X748Y1155D02*
X753Y1155D01*
X1755Y1155D02*
X1762Y1155D01*
X0Y1154D02*
X7Y1154D01*
X277Y1154D02*
X282Y1154D01*
X317Y1154D02*
X321Y1154D01*
X328Y1154D02*
X333Y1154D01*
X339Y1154D02*
X343Y1154D01*
X362Y1154D02*
X366Y1154D01*
X378Y1154D02*
X383Y1154D01*
X516Y1154D02*
X525Y1154D01*
X658Y1154D02*
X663Y1154D01*
X669Y1154D02*
X674Y1154D01*
X708Y1154D02*
X714Y1154D01*
X748Y1154D02*
X753Y1154D01*
X1755Y1154D02*
X1762Y1154D01*
X0Y1153D02*
X7Y1153D01*
X277Y1153D02*
X282Y1153D01*
X317Y1153D02*
X321Y1153D01*
X328Y1153D02*
X333Y1153D01*
X339Y1153D02*
X343Y1153D01*
X362Y1153D02*
X366Y1153D01*
X378Y1153D02*
X383Y1153D01*
X516Y1153D02*
X525Y1153D01*
X658Y1153D02*
X663Y1153D01*
X670Y1153D02*
X675Y1153D01*
X709Y1153D02*
X715Y1153D01*
X748Y1153D02*
X753Y1153D01*
X1755Y1153D02*
X1762Y1153D01*
X0Y1152D02*
X7Y1152D01*
X277Y1152D02*
X282Y1152D01*
X292Y1152D02*
X304Y1152D01*
X317Y1152D02*
X321Y1152D01*
X328Y1152D02*
X334Y1152D01*
X339Y1152D02*
X343Y1152D01*
X362Y1152D02*
X366Y1152D01*
X378Y1152D02*
X383Y1152D01*
X516Y1152D02*
X525Y1152D01*
X658Y1152D02*
X663Y1152D01*
X670Y1152D02*
X676Y1152D01*
X710Y1152D02*
X716Y1152D01*
X748Y1152D02*
X753Y1152D01*
X1755Y1152D02*
X1762Y1152D01*
X0Y1151D02*
X7Y1151D01*
X277Y1151D02*
X282Y1151D01*
X291Y1151D02*
X304Y1151D01*
X317Y1151D02*
X321Y1151D01*
X329Y1151D02*
X334Y1151D01*
X339Y1151D02*
X343Y1151D01*
X362Y1151D02*
X366Y1151D01*
X377Y1151D02*
X382Y1151D01*
X516Y1151D02*
X525Y1151D01*
X658Y1151D02*
X663Y1151D01*
X671Y1151D02*
X676Y1151D01*
X711Y1151D02*
X717Y1151D01*
X748Y1151D02*
X753Y1151D01*
X1755Y1151D02*
X1762Y1151D01*
X0Y1150D02*
X7Y1150D01*
X277Y1150D02*
X282Y1150D01*
X291Y1150D02*
X304Y1150D01*
X317Y1150D02*
X321Y1150D01*
X329Y1150D02*
X334Y1150D01*
X339Y1150D02*
X343Y1150D01*
X362Y1150D02*
X366Y1150D01*
X377Y1150D02*
X382Y1150D01*
X516Y1150D02*
X525Y1150D01*
X658Y1150D02*
X663Y1150D01*
X671Y1150D02*
X677Y1150D01*
X711Y1150D02*
X717Y1150D01*
X748Y1150D02*
X753Y1150D01*
X1755Y1150D02*
X1762Y1150D01*
X0Y1149D02*
X7Y1149D01*
X277Y1149D02*
X282Y1149D01*
X291Y1149D02*
X304Y1149D01*
X317Y1149D02*
X321Y1149D01*
X330Y1149D02*
X335Y1149D01*
X339Y1149D02*
X343Y1149D01*
X362Y1149D02*
X366Y1149D01*
X376Y1149D02*
X382Y1149D01*
X516Y1149D02*
X525Y1149D01*
X658Y1149D02*
X663Y1149D01*
X672Y1149D02*
X677Y1149D01*
X712Y1149D02*
X718Y1149D01*
X748Y1149D02*
X753Y1149D01*
X1755Y1149D02*
X1762Y1149D01*
X0Y1148D02*
X7Y1148D01*
X277Y1148D02*
X282Y1148D01*
X291Y1148D02*
X304Y1148D01*
X317Y1148D02*
X321Y1148D01*
X330Y1148D02*
X335Y1148D01*
X339Y1148D02*
X343Y1148D01*
X362Y1148D02*
X366Y1148D01*
X376Y1148D02*
X381Y1148D01*
X516Y1148D02*
X525Y1148D01*
X658Y1148D02*
X663Y1148D01*
X672Y1148D02*
X678Y1148D01*
X713Y1148D02*
X719Y1148D01*
X748Y1148D02*
X753Y1148D01*
X1755Y1148D02*
X1762Y1148D01*
X0Y1147D02*
X7Y1147D01*
X277Y1147D02*
X282Y1147D01*
X293Y1147D02*
X304Y1147D01*
X317Y1147D02*
X321Y1147D01*
X331Y1147D02*
X336Y1147D01*
X339Y1147D02*
X343Y1147D01*
X362Y1147D02*
X366Y1147D01*
X375Y1147D02*
X381Y1147D01*
X516Y1147D02*
X525Y1147D01*
X658Y1147D02*
X663Y1147D01*
X673Y1147D02*
X679Y1147D01*
X714Y1147D02*
X720Y1147D01*
X748Y1147D02*
X753Y1147D01*
X1755Y1147D02*
X1762Y1147D01*
X0Y1146D02*
X7Y1146D01*
X277Y1146D02*
X282Y1146D01*
X299Y1146D02*
X304Y1146D01*
X317Y1146D02*
X321Y1146D01*
X331Y1146D02*
X336Y1146D01*
X339Y1146D02*
X343Y1146D01*
X362Y1146D02*
X366Y1146D01*
X375Y1146D02*
X380Y1146D01*
X516Y1146D02*
X525Y1146D01*
X658Y1146D02*
X663Y1146D01*
X674Y1146D02*
X679Y1146D01*
X714Y1146D02*
X721Y1146D01*
X748Y1146D02*
X753Y1146D01*
X1755Y1146D02*
X1762Y1146D01*
X0Y1145D02*
X7Y1145D01*
X277Y1145D02*
X282Y1145D01*
X299Y1145D02*
X304Y1145D01*
X317Y1145D02*
X321Y1145D01*
X331Y1145D02*
X337Y1145D01*
X339Y1145D02*
X343Y1145D01*
X362Y1145D02*
X366Y1145D01*
X374Y1145D02*
X380Y1145D01*
X516Y1145D02*
X525Y1145D01*
X658Y1145D02*
X663Y1145D01*
X674Y1145D02*
X680Y1145D01*
X715Y1145D02*
X721Y1145D01*
X748Y1145D02*
X753Y1145D01*
X1755Y1145D02*
X1762Y1145D01*
X0Y1144D02*
X7Y1144D01*
X277Y1144D02*
X282Y1144D01*
X299Y1144D02*
X304Y1144D01*
X317Y1144D02*
X321Y1144D01*
X332Y1144D02*
X337Y1144D01*
X339Y1144D02*
X343Y1144D01*
X362Y1144D02*
X366Y1144D01*
X374Y1144D02*
X379Y1144D01*
X516Y1144D02*
X525Y1144D01*
X658Y1144D02*
X663Y1144D01*
X675Y1144D02*
X680Y1144D01*
X716Y1144D02*
X722Y1144D01*
X748Y1144D02*
X753Y1144D01*
X1755Y1144D02*
X1762Y1144D01*
X0Y1143D02*
X7Y1143D01*
X277Y1143D02*
X282Y1143D01*
X299Y1143D02*
X304Y1143D01*
X317Y1143D02*
X321Y1143D01*
X332Y1143D02*
X343Y1143D01*
X362Y1143D02*
X366Y1143D01*
X373Y1143D02*
X379Y1143D01*
X658Y1143D02*
X663Y1143D01*
X675Y1143D02*
X681Y1143D01*
X700Y1143D02*
X700Y1143D01*
X717Y1143D02*
X723Y1143D01*
X748Y1143D02*
X753Y1143D01*
X1755Y1143D02*
X1762Y1143D01*
X0Y1142D02*
X7Y1142D01*
X277Y1142D02*
X282Y1142D01*
X299Y1142D02*
X304Y1142D01*
X317Y1142D02*
X321Y1142D01*
X333Y1142D02*
X343Y1142D01*
X362Y1142D02*
X366Y1142D01*
X373Y1142D02*
X378Y1142D01*
X658Y1142D02*
X663Y1142D01*
X676Y1142D02*
X681Y1142D01*
X699Y1142D02*
X702Y1142D01*
X718Y1142D02*
X724Y1142D01*
X748Y1142D02*
X753Y1142D01*
X1755Y1142D02*
X1762Y1142D01*
X0Y1141D02*
X7Y1141D01*
X277Y1141D02*
X282Y1141D01*
X299Y1141D02*
X304Y1141D01*
X317Y1141D02*
X321Y1141D01*
X333Y1141D02*
X343Y1141D01*
X362Y1141D02*
X366Y1141D01*
X372Y1141D02*
X378Y1141D01*
X658Y1141D02*
X663Y1141D01*
X677Y1141D02*
X682Y1141D01*
X698Y1141D02*
X702Y1141D01*
X718Y1141D02*
X724Y1141D01*
X748Y1141D02*
X753Y1141D01*
X1755Y1141D02*
X1762Y1141D01*
X0Y1140D02*
X7Y1140D01*
X277Y1140D02*
X282Y1140D01*
X299Y1140D02*
X303Y1140D01*
X317Y1140D02*
X321Y1140D01*
X334Y1140D02*
X343Y1140D01*
X362Y1140D02*
X366Y1140D01*
X372Y1140D02*
X377Y1140D01*
X658Y1140D02*
X663Y1140D01*
X677Y1140D02*
X683Y1140D01*
X698Y1140D02*
X703Y1140D01*
X719Y1140D02*
X724Y1140D01*
X748Y1140D02*
X753Y1140D01*
X1755Y1140D02*
X1762Y1140D01*
X0Y1139D02*
X7Y1139D01*
X278Y1139D02*
X283Y1139D01*
X298Y1139D02*
X303Y1139D01*
X317Y1139D02*
X321Y1139D01*
X334Y1139D02*
X343Y1139D01*
X362Y1139D02*
X366Y1139D01*
X371Y1139D02*
X377Y1139D01*
X658Y1139D02*
X663Y1139D01*
X678Y1139D02*
X683Y1139D01*
X698Y1139D02*
X703Y1139D01*
X720Y1139D02*
X724Y1139D01*
X748Y1139D02*
X753Y1139D01*
X1755Y1139D02*
X1762Y1139D01*
X0Y1138D02*
X7Y1138D01*
X278Y1138D02*
X303Y1138D01*
X317Y1138D02*
X321Y1138D01*
X335Y1138D02*
X343Y1138D01*
X358Y1138D02*
X376Y1138D01*
X658Y1138D02*
X663Y1138D01*
X678Y1138D02*
X684Y1138D01*
X698Y1138D02*
X724Y1138D01*
X748Y1138D02*
X753Y1138D01*
X1755Y1138D02*
X1762Y1138D01*
X0Y1137D02*
X7Y1137D01*
X278Y1137D02*
X302Y1137D01*
X317Y1137D02*
X321Y1137D01*
X335Y1137D02*
X343Y1137D01*
X357Y1137D02*
X376Y1137D01*
X658Y1137D02*
X663Y1137D01*
X679Y1137D02*
X684Y1137D01*
X699Y1137D02*
X724Y1137D01*
X748Y1137D02*
X753Y1137D01*
X1755Y1137D02*
X1762Y1137D01*
X0Y1136D02*
X7Y1136D01*
X279Y1136D02*
X302Y1136D01*
X317Y1136D02*
X321Y1136D01*
X335Y1136D02*
X343Y1136D01*
X356Y1136D02*
X375Y1136D01*
X658Y1136D02*
X663Y1136D01*
X679Y1136D02*
X685Y1136D01*
X699Y1136D02*
X723Y1136D01*
X748Y1136D02*
X753Y1136D01*
X1755Y1136D02*
X1762Y1136D01*
X0Y1135D02*
X7Y1135D01*
X280Y1135D02*
X301Y1135D01*
X317Y1135D02*
X321Y1135D01*
X336Y1135D02*
X343Y1135D01*
X357Y1135D02*
X374Y1135D01*
X658Y1135D02*
X663Y1135D01*
X680Y1135D02*
X685Y1135D01*
X700Y1135D02*
X723Y1135D01*
X749Y1135D02*
X753Y1135D01*
X1755Y1135D02*
X1762Y1135D01*
X0Y1134D02*
X7Y1134D01*
X281Y1134D02*
X299Y1134D01*
X317Y1134D02*
X321Y1134D01*
X336Y1134D02*
X343Y1134D01*
X357Y1134D02*
X373Y1134D01*
X659Y1134D02*
X662Y1134D01*
X681Y1134D02*
X684Y1134D01*
X701Y1134D02*
X721Y1134D01*
X749Y1134D02*
X752Y1134D01*
X1755Y1134D02*
X1762Y1134D01*
X0Y1133D02*
X7Y1133D01*
X284Y1133D02*
X297Y1133D01*
X319Y1133D02*
X319Y1133D01*
X337Y1133D02*
X343Y1133D01*
X358Y1133D02*
X370Y1133D01*
X660Y1133D02*
X661Y1133D01*
X682Y1133D02*
X683Y1133D01*
X704Y1133D02*
X719Y1133D01*
X750Y1133D02*
X751Y1133D01*
X1755Y1133D02*
X1762Y1133D01*
X0Y1132D02*
X7Y1132D01*
X1755Y1132D02*
X1762Y1132D01*
X0Y1131D02*
X7Y1131D01*
X1755Y1131D02*
X1762Y1131D01*
X0Y1130D02*
X7Y1130D01*
X1755Y1130D02*
X1762Y1130D01*
X0Y1129D02*
X7Y1129D01*
X1755Y1129D02*
X1762Y1129D01*
X0Y1128D02*
X7Y1128D01*
X1755Y1128D02*
X1762Y1128D01*
X0Y1127D02*
X7Y1127D01*
X1755Y1127D02*
X1762Y1127D01*
X0Y1126D02*
X7Y1126D01*
X1755Y1126D02*
X1762Y1126D01*
X0Y1125D02*
X7Y1125D01*
X1755Y1125D02*
X1762Y1125D01*
X0Y1124D02*
X7Y1124D01*
X0Y1123D02*
X7Y1123D01*
X0Y1122D02*
X7Y1122D01*
X0Y1121D02*
X7Y1121D01*
X0Y1120D02*
X7Y1120D01*
X0Y1119D02*
X7Y1119D01*
X0Y1118D02*
X7Y1118D01*
X0Y1117D02*
X7Y1117D01*
X0Y1116D02*
X7Y1116D01*
X0Y1115D02*
X7Y1115D01*
X0Y1114D02*
X7Y1114D01*
X0Y1113D02*
X7Y1113D01*
X0Y1112D02*
X7Y1112D01*
X0Y1111D02*
X7Y1111D01*
X0Y1110D02*
X7Y1110D01*
X0Y1109D02*
X7Y1109D01*
X0Y1108D02*
X7Y1108D01*
X0Y1107D02*
X7Y1107D01*
X0Y1106D02*
X7Y1106D01*
X0Y1105D02*
X7Y1105D01*
X0Y1104D02*
X7Y1104D01*
X1755Y1104D02*
X1762Y1104D01*
X0Y1103D02*
X7Y1103D01*
X1755Y1103D02*
X1762Y1103D01*
X0Y1102D02*
X7Y1102D01*
X1755Y1102D02*
X1762Y1102D01*
X0Y1101D02*
X7Y1101D01*
X1755Y1101D02*
X1762Y1101D01*
X0Y1100D02*
X7Y1100D01*
X1755Y1100D02*
X1762Y1100D01*
X0Y1099D02*
X7Y1099D01*
X1755Y1099D02*
X1762Y1099D01*
X0Y1098D02*
X7Y1098D01*
X1755Y1098D02*
X1762Y1098D01*
X0Y1097D02*
X7Y1097D01*
X1755Y1097D02*
X1762Y1097D01*
X0Y1096D02*
X7Y1096D01*
X1755Y1096D02*
X1762Y1096D01*
X0Y1095D02*
X7Y1095D01*
X1755Y1095D02*
X1762Y1095D01*
X0Y1094D02*
X7Y1094D01*
X1755Y1094D02*
X1762Y1094D01*
X0Y1093D02*
X7Y1093D01*
X1755Y1093D02*
X1762Y1093D01*
X0Y1092D02*
X7Y1092D01*
X1755Y1092D02*
X1762Y1092D01*
X0Y1091D02*
X7Y1091D01*
X1755Y1091D02*
X1762Y1091D01*
X0Y1090D02*
X7Y1090D01*
X1755Y1090D02*
X1762Y1090D01*
X0Y1089D02*
X7Y1089D01*
X1755Y1089D02*
X1762Y1089D01*
X0Y1088D02*
X7Y1088D01*
X1755Y1088D02*
X1762Y1088D01*
X0Y1087D02*
X7Y1087D01*
X1755Y1087D02*
X1762Y1087D01*
X0Y1086D02*
X7Y1086D01*
X1755Y1086D02*
X1762Y1086D01*
X0Y1085D02*
X7Y1085D01*
X1755Y1085D02*
X1762Y1085D01*
X0Y1084D02*
X7Y1084D01*
X1755Y1084D02*
X1762Y1084D01*
X0Y1083D02*
X7Y1083D01*
X1755Y1083D02*
X1762Y1083D01*
X0Y1082D02*
X7Y1082D01*
X1755Y1082D02*
X1762Y1082D01*
X0Y1081D02*
X7Y1081D01*
X1755Y1081D02*
X1762Y1081D01*
X0Y1080D02*
X7Y1080D01*
X1755Y1080D02*
X1762Y1080D01*
X0Y1079D02*
X7Y1079D01*
X1755Y1079D02*
X1762Y1079D01*
X0Y1078D02*
X7Y1078D01*
X1755Y1078D02*
X1762Y1078D01*
X0Y1077D02*
X7Y1077D01*
X1755Y1077D02*
X1762Y1077D01*
X0Y1076D02*
X7Y1076D01*
X1755Y1076D02*
X1762Y1076D01*
X0Y1075D02*
X7Y1075D01*
X290Y1075D02*
X303Y1075D01*
X317Y1075D02*
X323Y1075D01*
X340Y1075D02*
X342Y1075D01*
X357Y1075D02*
X372Y1075D01*
X659Y1075D02*
X662Y1075D01*
X681Y1075D02*
X684Y1075D01*
X709Y1075D02*
X723Y1075D01*
X749Y1075D02*
X763Y1075D01*
X1755Y1075D02*
X1762Y1075D01*
X0Y1074D02*
X7Y1074D01*
X288Y1074D02*
X303Y1074D01*
X317Y1074D02*
X324Y1074D01*
X339Y1074D02*
X343Y1074D01*
X357Y1074D02*
X373Y1074D01*
X659Y1074D02*
X663Y1074D01*
X680Y1074D02*
X684Y1074D01*
X707Y1074D02*
X724Y1074D01*
X747Y1074D02*
X764Y1074D01*
X1755Y1074D02*
X1762Y1074D01*
X0Y1073D02*
X7Y1073D01*
X287Y1073D02*
X304Y1073D01*
X317Y1073D02*
X324Y1073D01*
X339Y1073D02*
X343Y1073D01*
X356Y1073D02*
X374Y1073D01*
X658Y1073D02*
X663Y1073D01*
X680Y1073D02*
X685Y1073D01*
X706Y1073D02*
X724Y1073D01*
X746Y1073D02*
X764Y1073D01*
X1755Y1073D02*
X1762Y1073D01*
X0Y1072D02*
X7Y1072D01*
X287Y1072D02*
X303Y1072D01*
X317Y1072D02*
X325Y1072D01*
X339Y1072D02*
X343Y1072D01*
X357Y1072D02*
X375Y1072D01*
X658Y1072D02*
X663Y1072D01*
X680Y1072D02*
X685Y1072D01*
X705Y1072D02*
X724Y1072D01*
X745Y1072D02*
X764Y1072D01*
X1755Y1072D02*
X1762Y1072D01*
X0Y1071D02*
X7Y1071D01*
X286Y1071D02*
X303Y1071D01*
X317Y1071D02*
X325Y1071D01*
X339Y1071D02*
X343Y1071D01*
X357Y1071D02*
X376Y1071D01*
X658Y1071D02*
X663Y1071D01*
X680Y1071D02*
X685Y1071D01*
X705Y1071D02*
X723Y1071D01*
X744Y1071D02*
X763Y1071D01*
X1755Y1071D02*
X1762Y1071D01*
X0Y1070D02*
X7Y1070D01*
X285Y1070D02*
X292Y1070D01*
X317Y1070D02*
X326Y1070D01*
X339Y1070D02*
X343Y1070D01*
X362Y1070D02*
X367Y1070D01*
X370Y1070D02*
X376Y1070D01*
X658Y1070D02*
X663Y1070D01*
X680Y1070D02*
X685Y1070D01*
X704Y1070D02*
X711Y1070D01*
X744Y1070D02*
X750Y1070D01*
X0Y1069D02*
X7Y1069D01*
X284Y1069D02*
X290Y1069D01*
X317Y1069D02*
X326Y1069D01*
X339Y1069D02*
X343Y1069D01*
X362Y1069D02*
X366Y1069D01*
X372Y1069D02*
X377Y1069D01*
X658Y1069D02*
X663Y1069D01*
X680Y1069D02*
X685Y1069D01*
X704Y1069D02*
X709Y1069D01*
X743Y1069D02*
X749Y1069D01*
X0Y1068D02*
X7Y1068D01*
X283Y1068D02*
X290Y1068D01*
X317Y1068D02*
X327Y1068D01*
X339Y1068D02*
X343Y1068D01*
X362Y1068D02*
X366Y1068D01*
X372Y1068D02*
X377Y1068D01*
X658Y1068D02*
X663Y1068D01*
X680Y1068D02*
X685Y1068D01*
X703Y1068D02*
X709Y1068D01*
X743Y1068D02*
X748Y1068D01*
X0Y1067D02*
X7Y1067D01*
X283Y1067D02*
X289Y1067D01*
X317Y1067D02*
X327Y1067D01*
X339Y1067D02*
X343Y1067D01*
X362Y1067D02*
X366Y1067D01*
X373Y1067D02*
X378Y1067D01*
X658Y1067D02*
X663Y1067D01*
X680Y1067D02*
X685Y1067D01*
X703Y1067D02*
X708Y1067D01*
X742Y1067D02*
X748Y1067D01*
X0Y1066D02*
X7Y1066D01*
X282Y1066D02*
X288Y1066D01*
X317Y1066D02*
X327Y1066D01*
X339Y1066D02*
X343Y1066D01*
X362Y1066D02*
X366Y1066D01*
X373Y1066D02*
X378Y1066D01*
X658Y1066D02*
X663Y1066D01*
X680Y1066D02*
X685Y1066D01*
X702Y1066D02*
X708Y1066D01*
X742Y1066D02*
X747Y1066D01*
X0Y1065D02*
X7Y1065D01*
X281Y1065D02*
X287Y1065D01*
X317Y1065D02*
X328Y1065D01*
X339Y1065D02*
X343Y1065D01*
X362Y1065D02*
X366Y1065D01*
X374Y1065D02*
X379Y1065D01*
X658Y1065D02*
X663Y1065D01*
X680Y1065D02*
X685Y1065D01*
X702Y1065D02*
X707Y1065D01*
X741Y1065D02*
X747Y1065D01*
X0Y1064D02*
X7Y1064D01*
X280Y1064D02*
X286Y1064D01*
X317Y1064D02*
X321Y1064D01*
X323Y1064D02*
X328Y1064D01*
X339Y1064D02*
X343Y1064D01*
X362Y1064D02*
X366Y1064D01*
X374Y1064D02*
X379Y1064D01*
X658Y1064D02*
X663Y1064D01*
X680Y1064D02*
X685Y1064D01*
X701Y1064D02*
X707Y1064D01*
X741Y1064D02*
X746Y1064D01*
X0Y1063D02*
X7Y1063D01*
X280Y1063D02*
X286Y1063D01*
X317Y1063D02*
X321Y1063D01*
X324Y1063D02*
X329Y1063D01*
X339Y1063D02*
X343Y1063D01*
X362Y1063D02*
X366Y1063D01*
X375Y1063D02*
X380Y1063D01*
X658Y1063D02*
X663Y1063D01*
X680Y1063D02*
X685Y1063D01*
X701Y1063D02*
X706Y1063D01*
X740Y1063D02*
X746Y1063D01*
X0Y1062D02*
X7Y1062D01*
X279Y1062D02*
X285Y1062D01*
X317Y1062D02*
X321Y1062D01*
X324Y1062D02*
X329Y1062D01*
X339Y1062D02*
X343Y1062D01*
X362Y1062D02*
X366Y1062D01*
X375Y1062D02*
X380Y1062D01*
X659Y1062D02*
X664Y1062D01*
X679Y1062D02*
X684Y1062D01*
X700Y1062D02*
X705Y1062D01*
X740Y1062D02*
X745Y1062D01*
X0Y1061D02*
X7Y1061D01*
X278Y1061D02*
X284Y1061D01*
X317Y1061D02*
X321Y1061D01*
X324Y1061D02*
X330Y1061D01*
X339Y1061D02*
X343Y1061D01*
X362Y1061D02*
X366Y1061D01*
X376Y1061D02*
X381Y1061D01*
X659Y1061D02*
X664Y1061D01*
X679Y1061D02*
X684Y1061D01*
X700Y1061D02*
X705Y1061D01*
X739Y1061D02*
X745Y1061D01*
X0Y1060D02*
X7Y1060D01*
X278Y1060D02*
X283Y1060D01*
X317Y1060D02*
X321Y1060D01*
X325Y1060D02*
X330Y1060D01*
X339Y1060D02*
X343Y1060D01*
X362Y1060D02*
X366Y1060D01*
X376Y1060D02*
X381Y1060D01*
X660Y1060D02*
X665Y1060D01*
X679Y1060D02*
X684Y1060D01*
X699Y1060D02*
X704Y1060D01*
X739Y1060D02*
X744Y1060D01*
X0Y1059D02*
X7Y1059D01*
X278Y1059D02*
X283Y1059D01*
X317Y1059D02*
X321Y1059D01*
X325Y1059D02*
X330Y1059D01*
X339Y1059D02*
X343Y1059D01*
X362Y1059D02*
X366Y1059D01*
X377Y1059D02*
X382Y1059D01*
X660Y1059D02*
X665Y1059D01*
X678Y1059D02*
X683Y1059D01*
X699Y1059D02*
X704Y1059D01*
X739Y1059D02*
X744Y1059D01*
X0Y1058D02*
X7Y1058D01*
X277Y1058D02*
X282Y1058D01*
X317Y1058D02*
X321Y1058D01*
X326Y1058D02*
X331Y1058D01*
X339Y1058D02*
X343Y1058D01*
X362Y1058D02*
X366Y1058D01*
X377Y1058D02*
X382Y1058D01*
X660Y1058D02*
X665Y1058D01*
X678Y1058D02*
X683Y1058D01*
X699Y1058D02*
X703Y1058D01*
X738Y1058D02*
X743Y1058D01*
X0Y1057D02*
X7Y1057D01*
X277Y1057D02*
X282Y1057D01*
X317Y1057D02*
X321Y1057D01*
X326Y1057D02*
X331Y1057D01*
X339Y1057D02*
X343Y1057D01*
X362Y1057D02*
X366Y1057D01*
X378Y1057D02*
X382Y1057D01*
X661Y1057D02*
X666Y1057D01*
X677Y1057D02*
X682Y1057D01*
X698Y1057D02*
X703Y1057D01*
X738Y1057D02*
X743Y1057D01*
X0Y1056D02*
X7Y1056D01*
X277Y1056D02*
X282Y1056D01*
X317Y1056D02*
X321Y1056D01*
X327Y1056D02*
X332Y1056D01*
X339Y1056D02*
X343Y1056D01*
X362Y1056D02*
X366Y1056D01*
X378Y1056D02*
X383Y1056D01*
X661Y1056D02*
X666Y1056D01*
X677Y1056D02*
X682Y1056D01*
X698Y1056D02*
X703Y1056D01*
X738Y1056D02*
X742Y1056D01*
X0Y1055D02*
X7Y1055D01*
X277Y1055D02*
X282Y1055D01*
X317Y1055D02*
X321Y1055D01*
X327Y1055D02*
X332Y1055D01*
X339Y1055D02*
X343Y1055D01*
X362Y1055D02*
X366Y1055D01*
X378Y1055D02*
X383Y1055D01*
X661Y1055D02*
X666Y1055D01*
X677Y1055D02*
X682Y1055D01*
X698Y1055D02*
X703Y1055D01*
X738Y1055D02*
X742Y1055D01*
X0Y1054D02*
X7Y1054D01*
X277Y1054D02*
X282Y1054D01*
X317Y1054D02*
X321Y1054D01*
X328Y1054D02*
X333Y1054D01*
X339Y1054D02*
X343Y1054D01*
X362Y1054D02*
X366Y1054D01*
X378Y1054D02*
X383Y1054D01*
X662Y1054D02*
X667Y1054D01*
X676Y1054D02*
X681Y1054D01*
X698Y1054D02*
X703Y1054D01*
X738Y1054D02*
X742Y1054D01*
X0Y1053D02*
X7Y1053D01*
X277Y1053D02*
X282Y1053D01*
X317Y1053D02*
X321Y1053D01*
X328Y1053D02*
X333Y1053D01*
X339Y1053D02*
X343Y1053D01*
X362Y1053D02*
X366Y1053D01*
X378Y1053D02*
X383Y1053D01*
X662Y1053D02*
X667Y1053D01*
X676Y1053D02*
X681Y1053D01*
X698Y1053D02*
X703Y1053D01*
X738Y1053D02*
X742Y1053D01*
X0Y1052D02*
X7Y1052D01*
X277Y1052D02*
X282Y1052D01*
X292Y1052D02*
X304Y1052D01*
X317Y1052D02*
X321Y1052D01*
X328Y1052D02*
X334Y1052D01*
X339Y1052D02*
X343Y1052D01*
X362Y1052D02*
X366Y1052D01*
X378Y1052D02*
X383Y1052D01*
X663Y1052D02*
X668Y1052D01*
X675Y1052D02*
X680Y1052D01*
X698Y1052D02*
X703Y1052D01*
X738Y1052D02*
X743Y1052D01*
X0Y1051D02*
X7Y1051D01*
X277Y1051D02*
X282Y1051D01*
X291Y1051D02*
X304Y1051D01*
X317Y1051D02*
X321Y1051D01*
X329Y1051D02*
X334Y1051D01*
X339Y1051D02*
X343Y1051D01*
X362Y1051D02*
X366Y1051D01*
X377Y1051D02*
X382Y1051D01*
X663Y1051D02*
X668Y1051D01*
X675Y1051D02*
X680Y1051D01*
X698Y1051D02*
X703Y1051D01*
X738Y1051D02*
X743Y1051D01*
X0Y1050D02*
X7Y1050D01*
X277Y1050D02*
X282Y1050D01*
X291Y1050D02*
X304Y1050D01*
X317Y1050D02*
X321Y1050D01*
X329Y1050D02*
X334Y1050D01*
X339Y1050D02*
X343Y1050D01*
X362Y1050D02*
X366Y1050D01*
X377Y1050D02*
X382Y1050D01*
X663Y1050D02*
X668Y1050D01*
X675Y1050D02*
X680Y1050D01*
X699Y1050D02*
X704Y1050D01*
X738Y1050D02*
X743Y1050D01*
X1755Y1050D02*
X1762Y1050D01*
X0Y1049D02*
X7Y1049D01*
X277Y1049D02*
X282Y1049D01*
X291Y1049D02*
X304Y1049D01*
X317Y1049D02*
X321Y1049D01*
X330Y1049D02*
X335Y1049D01*
X339Y1049D02*
X343Y1049D01*
X362Y1049D02*
X366Y1049D01*
X376Y1049D02*
X382Y1049D01*
X664Y1049D02*
X669Y1049D01*
X674Y1049D02*
X679Y1049D01*
X699Y1049D02*
X704Y1049D01*
X739Y1049D02*
X744Y1049D01*
X1755Y1049D02*
X1762Y1049D01*
X0Y1048D02*
X7Y1048D01*
X277Y1048D02*
X282Y1048D01*
X291Y1048D02*
X304Y1048D01*
X317Y1048D02*
X321Y1048D01*
X330Y1048D02*
X335Y1048D01*
X339Y1048D02*
X343Y1048D01*
X362Y1048D02*
X366Y1048D01*
X376Y1048D02*
X381Y1048D01*
X664Y1048D02*
X669Y1048D01*
X674Y1048D02*
X679Y1048D01*
X700Y1048D02*
X705Y1048D01*
X739Y1048D02*
X744Y1048D01*
X1755Y1048D02*
X1762Y1048D01*
X0Y1047D02*
X7Y1047D01*
X277Y1047D02*
X282Y1047D01*
X293Y1047D02*
X304Y1047D01*
X317Y1047D02*
X321Y1047D01*
X331Y1047D02*
X336Y1047D01*
X339Y1047D02*
X343Y1047D01*
X362Y1047D02*
X366Y1047D01*
X375Y1047D02*
X381Y1047D01*
X665Y1047D02*
X670Y1047D01*
X673Y1047D02*
X678Y1047D01*
X700Y1047D02*
X705Y1047D01*
X740Y1047D02*
X745Y1047D01*
X1755Y1047D02*
X1762Y1047D01*
X0Y1046D02*
X7Y1046D01*
X277Y1046D02*
X282Y1046D01*
X299Y1046D02*
X304Y1046D01*
X317Y1046D02*
X321Y1046D01*
X331Y1046D02*
X336Y1046D01*
X339Y1046D02*
X343Y1046D01*
X362Y1046D02*
X366Y1046D01*
X375Y1046D02*
X380Y1046D01*
X665Y1046D02*
X670Y1046D01*
X673Y1046D02*
X678Y1046D01*
X701Y1046D02*
X706Y1046D01*
X740Y1046D02*
X745Y1046D01*
X1755Y1046D02*
X1762Y1046D01*
X0Y1045D02*
X7Y1045D01*
X277Y1045D02*
X282Y1045D01*
X299Y1045D02*
X304Y1045D01*
X317Y1045D02*
X321Y1045D01*
X332Y1045D02*
X337Y1045D01*
X339Y1045D02*
X343Y1045D01*
X362Y1045D02*
X366Y1045D01*
X374Y1045D02*
X380Y1045D01*
X665Y1045D02*
X670Y1045D01*
X673Y1045D02*
X678Y1045D01*
X701Y1045D02*
X706Y1045D01*
X741Y1045D02*
X746Y1045D01*
X1755Y1045D02*
X1762Y1045D01*
X0Y1044D02*
X7Y1044D01*
X277Y1044D02*
X282Y1044D01*
X299Y1044D02*
X304Y1044D01*
X317Y1044D02*
X321Y1044D01*
X332Y1044D02*
X337Y1044D01*
X339Y1044D02*
X343Y1044D01*
X362Y1044D02*
X366Y1044D01*
X374Y1044D02*
X379Y1044D01*
X666Y1044D02*
X677Y1044D01*
X702Y1044D02*
X707Y1044D01*
X741Y1044D02*
X746Y1044D01*
X1755Y1044D02*
X1762Y1044D01*
X0Y1043D02*
X7Y1043D01*
X277Y1043D02*
X282Y1043D01*
X299Y1043D02*
X304Y1043D01*
X317Y1043D02*
X321Y1043D01*
X332Y1043D02*
X343Y1043D01*
X362Y1043D02*
X366Y1043D01*
X373Y1043D02*
X379Y1043D01*
X666Y1043D02*
X677Y1043D01*
X702Y1043D02*
X707Y1043D01*
X742Y1043D02*
X747Y1043D01*
X1755Y1043D02*
X1762Y1043D01*
X0Y1042D02*
X7Y1042D01*
X277Y1042D02*
X282Y1042D01*
X299Y1042D02*
X304Y1042D01*
X317Y1042D02*
X321Y1042D01*
X333Y1042D02*
X343Y1042D01*
X362Y1042D02*
X366Y1042D01*
X373Y1042D02*
X378Y1042D01*
X667Y1042D02*
X676Y1042D01*
X703Y1042D02*
X708Y1042D01*
X742Y1042D02*
X747Y1042D01*
X1755Y1042D02*
X1762Y1042D01*
X0Y1041D02*
X7Y1041D01*
X277Y1041D02*
X282Y1041D01*
X299Y1041D02*
X304Y1041D01*
X317Y1041D02*
X321Y1041D01*
X333Y1041D02*
X343Y1041D01*
X362Y1041D02*
X366Y1041D01*
X372Y1041D02*
X378Y1041D01*
X667Y1041D02*
X676Y1041D01*
X703Y1041D02*
X708Y1041D01*
X743Y1041D02*
X748Y1041D01*
X1755Y1041D02*
X1762Y1041D01*
X0Y1040D02*
X7Y1040D01*
X277Y1040D02*
X282Y1040D01*
X299Y1040D02*
X303Y1040D01*
X317Y1040D02*
X321Y1040D01*
X334Y1040D02*
X343Y1040D01*
X362Y1040D02*
X366Y1040D01*
X372Y1040D02*
X377Y1040D01*
X667Y1040D02*
X676Y1040D01*
X704Y1040D02*
X709Y1040D01*
X743Y1040D02*
X749Y1040D01*
X1755Y1040D02*
X1762Y1040D01*
X0Y1039D02*
X7Y1039D01*
X278Y1039D02*
X283Y1039D01*
X298Y1039D02*
X303Y1039D01*
X317Y1039D02*
X321Y1039D01*
X334Y1039D02*
X343Y1039D01*
X362Y1039D02*
X366Y1039D01*
X371Y1039D02*
X377Y1039D01*
X668Y1039D02*
X675Y1039D01*
X704Y1039D02*
X710Y1039D01*
X744Y1039D02*
X749Y1039D01*
X1755Y1039D02*
X1762Y1039D01*
X0Y1038D02*
X7Y1038D01*
X278Y1038D02*
X303Y1038D01*
X317Y1038D02*
X321Y1038D01*
X335Y1038D02*
X343Y1038D01*
X358Y1038D02*
X376Y1038D01*
X668Y1038D02*
X675Y1038D01*
X705Y1038D02*
X723Y1038D01*
X744Y1038D02*
X763Y1038D01*
X1755Y1038D02*
X1762Y1038D01*
X0Y1037D02*
X7Y1037D01*
X278Y1037D02*
X302Y1037D01*
X317Y1037D02*
X321Y1037D01*
X335Y1037D02*
X343Y1037D01*
X357Y1037D02*
X376Y1037D01*
X668Y1037D02*
X675Y1037D01*
X705Y1037D02*
X724Y1037D01*
X745Y1037D02*
X764Y1037D01*
X1755Y1037D02*
X1762Y1037D01*
X0Y1036D02*
X7Y1036D01*
X279Y1036D02*
X302Y1036D01*
X317Y1036D02*
X321Y1036D01*
X335Y1036D02*
X343Y1036D01*
X356Y1036D02*
X375Y1036D01*
X669Y1036D02*
X674Y1036D01*
X706Y1036D02*
X724Y1036D01*
X746Y1036D02*
X764Y1036D01*
X1755Y1036D02*
X1762Y1036D01*
X0Y1035D02*
X7Y1035D01*
X280Y1035D02*
X301Y1035D01*
X317Y1035D02*
X321Y1035D01*
X336Y1035D02*
X343Y1035D01*
X357Y1035D02*
X374Y1035D01*
X669Y1035D02*
X674Y1035D01*
X707Y1035D02*
X724Y1035D01*
X747Y1035D02*
X764Y1035D01*
X1755Y1035D02*
X1762Y1035D01*
X0Y1034D02*
X7Y1034D01*
X281Y1034D02*
X299Y1034D01*
X317Y1034D02*
X321Y1034D01*
X336Y1034D02*
X343Y1034D01*
X357Y1034D02*
X373Y1034D01*
X670Y1034D02*
X673Y1034D01*
X708Y1034D02*
X724Y1034D01*
X748Y1034D02*
X763Y1034D01*
X1755Y1034D02*
X1762Y1034D01*
X0Y1033D02*
X7Y1033D01*
X284Y1033D02*
X296Y1033D01*
X319Y1033D02*
X319Y1033D01*
X337Y1033D02*
X343Y1033D01*
X359Y1033D02*
X369Y1033D01*
X671Y1033D02*
X672Y1033D01*
X712Y1033D02*
X722Y1033D01*
X751Y1033D02*
X762Y1033D01*
X1755Y1033D02*
X1762Y1033D01*
X0Y1032D02*
X7Y1032D01*
X1755Y1032D02*
X1762Y1032D01*
X0Y1031D02*
X7Y1031D01*
X1755Y1031D02*
X1762Y1031D01*
X0Y1030D02*
X7Y1030D01*
X1755Y1030D02*
X1762Y1030D01*
X0Y1029D02*
X7Y1029D01*
X1755Y1029D02*
X1762Y1029D01*
X0Y1028D02*
X7Y1028D01*
X1755Y1028D02*
X1762Y1028D01*
X0Y1027D02*
X7Y1027D01*
X1755Y1027D02*
X1762Y1027D01*
X0Y1026D02*
X7Y1026D01*
X1755Y1026D02*
X1762Y1026D01*
X0Y1025D02*
X7Y1025D01*
X1755Y1025D02*
X1762Y1025D01*
X0Y1024D02*
X7Y1024D01*
X1755Y1024D02*
X1762Y1024D01*
X0Y1023D02*
X7Y1023D01*
X1755Y1023D02*
X1762Y1023D01*
X0Y1022D02*
X7Y1022D01*
X1755Y1022D02*
X1762Y1022D01*
X0Y1021D02*
X7Y1021D01*
X1755Y1021D02*
X1762Y1021D01*
X0Y1020D02*
X7Y1020D01*
X1755Y1020D02*
X1762Y1020D01*
X0Y1019D02*
X7Y1019D01*
X1755Y1019D02*
X1762Y1019D01*
X0Y1018D02*
X7Y1018D01*
X1755Y1018D02*
X1762Y1018D01*
X0Y1017D02*
X7Y1017D01*
X1755Y1017D02*
X1762Y1017D01*
X0Y1016D02*
X7Y1016D01*
X0Y1015D02*
X7Y1015D01*
X0Y1014D02*
X7Y1014D01*
X0Y1013D02*
X7Y1013D01*
X0Y1012D02*
X7Y1012D01*
X0Y1011D02*
X7Y1011D01*
X0Y1010D02*
X7Y1010D01*
X0Y1009D02*
X7Y1009D01*
X0Y1008D02*
X7Y1008D01*
X0Y1007D02*
X7Y1007D01*
X0Y1006D02*
X7Y1006D01*
X0Y1005D02*
X7Y1005D01*
X0Y1004D02*
X7Y1004D01*
X0Y1003D02*
X7Y1003D01*
X0Y1002D02*
X7Y1002D01*
X0Y1001D02*
X7Y1001D01*
X0Y1000D02*
X7Y1000D01*
X0Y999D02*
X7Y999D01*
X0Y998D02*
X7Y998D01*
X0Y997D02*
X7Y997D01*
X0Y996D02*
X7Y996D01*
X1755Y996D02*
X1762Y996D01*
X0Y995D02*
X7Y995D01*
X1755Y995D02*
X1762Y995D01*
X0Y994D02*
X7Y994D01*
X1755Y994D02*
X1762Y994D01*
X0Y993D02*
X7Y993D01*
X1755Y993D02*
X1762Y993D01*
X0Y992D02*
X7Y992D01*
X1755Y992D02*
X1762Y992D01*
X0Y991D02*
X7Y991D01*
X1755Y991D02*
X1762Y991D01*
X0Y990D02*
X7Y990D01*
X1755Y990D02*
X1762Y990D01*
X0Y989D02*
X7Y989D01*
X1755Y989D02*
X1762Y989D01*
X0Y988D02*
X7Y988D01*
X1755Y988D02*
X1762Y988D01*
X0Y987D02*
X7Y987D01*
X1755Y987D02*
X1762Y987D01*
X0Y986D02*
X7Y986D01*
X1755Y986D02*
X1762Y986D01*
X0Y985D02*
X7Y985D01*
X1755Y985D02*
X1762Y985D01*
X0Y984D02*
X7Y984D01*
X1755Y984D02*
X1762Y984D01*
X0Y983D02*
X7Y983D01*
X1755Y983D02*
X1762Y983D01*
X0Y982D02*
X7Y982D01*
X1755Y982D02*
X1762Y982D01*
X0Y981D02*
X7Y981D01*
X1755Y981D02*
X1762Y981D01*
X0Y980D02*
X7Y980D01*
X1755Y980D02*
X1762Y980D01*
X0Y979D02*
X7Y979D01*
X1755Y979D02*
X1762Y979D01*
X0Y978D02*
X7Y978D01*
X1755Y978D02*
X1762Y978D01*
X0Y977D02*
X7Y977D01*
X1755Y977D02*
X1762Y977D01*
X0Y976D02*
X7Y976D01*
X1755Y976D02*
X1762Y976D01*
X0Y975D02*
X7Y975D01*
X278Y975D02*
X301Y975D01*
X710Y975D02*
X713Y975D01*
X738Y975D02*
X761Y975D01*
X1755Y975D02*
X1762Y975D01*
X0Y974D02*
X7Y974D01*
X277Y974D02*
X302Y974D01*
X709Y974D02*
X713Y974D01*
X738Y974D02*
X762Y974D01*
X1755Y974D02*
X1762Y974D01*
X0Y973D02*
X7Y973D01*
X277Y973D02*
X303Y973D01*
X709Y973D02*
X714Y973D01*
X738Y973D02*
X763Y973D01*
X1755Y973D02*
X1762Y973D01*
X0Y972D02*
X7Y972D01*
X277Y972D02*
X303Y972D01*
X708Y972D02*
X714Y972D01*
X738Y972D02*
X764Y972D01*
X1755Y972D02*
X1762Y972D01*
X0Y971D02*
X7Y971D01*
X278Y971D02*
X303Y971D01*
X708Y971D02*
X714Y971D01*
X739Y971D02*
X764Y971D01*
X1755Y971D02*
X1762Y971D01*
X0Y970D02*
X7Y970D01*
X299Y970D02*
X304Y970D01*
X708Y970D02*
X714Y970D01*
X759Y970D02*
X764Y970D01*
X1755Y970D02*
X1762Y970D01*
X0Y969D02*
X7Y969D01*
X299Y969D02*
X304Y969D01*
X708Y969D02*
X715Y969D01*
X759Y969D02*
X764Y969D01*
X1755Y969D02*
X1762Y969D01*
X0Y968D02*
X7Y968D01*
X299Y968D02*
X304Y968D01*
X707Y968D02*
X715Y968D01*
X759Y968D02*
X764Y968D01*
X1755Y968D02*
X1762Y968D01*
X0Y967D02*
X7Y967D01*
X299Y967D02*
X304Y967D01*
X707Y967D02*
X715Y967D01*
X759Y967D02*
X764Y967D01*
X1755Y967D02*
X1762Y967D01*
X0Y966D02*
X7Y966D01*
X299Y966D02*
X304Y966D01*
X707Y966D02*
X716Y966D01*
X759Y966D02*
X764Y966D01*
X1755Y966D02*
X1762Y966D01*
X0Y965D02*
X7Y965D01*
X299Y965D02*
X304Y965D01*
X706Y965D02*
X716Y965D01*
X759Y965D02*
X764Y965D01*
X1755Y965D02*
X1762Y965D01*
X0Y964D02*
X7Y964D01*
X299Y964D02*
X304Y964D01*
X706Y964D02*
X716Y964D01*
X759Y964D02*
X764Y964D01*
X1755Y964D02*
X1762Y964D01*
X0Y963D02*
X7Y963D01*
X299Y963D02*
X304Y963D01*
X706Y963D02*
X716Y963D01*
X759Y963D02*
X764Y963D01*
X1755Y963D02*
X1762Y963D01*
X0Y962D02*
X7Y962D01*
X299Y962D02*
X304Y962D01*
X705Y962D02*
X710Y962D01*
X712Y962D02*
X717Y962D01*
X759Y962D02*
X764Y962D01*
X0Y961D02*
X7Y961D01*
X299Y961D02*
X304Y961D01*
X705Y961D02*
X710Y961D01*
X712Y961D02*
X717Y961D01*
X759Y961D02*
X764Y961D01*
X0Y960D02*
X7Y960D01*
X299Y960D02*
X304Y960D01*
X705Y960D02*
X710Y960D01*
X713Y960D02*
X717Y960D01*
X759Y960D02*
X764Y960D01*
X0Y959D02*
X7Y959D01*
X299Y959D02*
X304Y959D01*
X705Y959D02*
X709Y959D01*
X713Y959D02*
X718Y959D01*
X759Y959D02*
X764Y959D01*
X0Y958D02*
X7Y958D01*
X299Y958D02*
X304Y958D01*
X704Y958D02*
X709Y958D01*
X713Y958D02*
X718Y958D01*
X758Y958D02*
X764Y958D01*
X0Y957D02*
X7Y957D01*
X282Y957D02*
X304Y957D01*
X704Y957D02*
X709Y957D01*
X713Y957D02*
X718Y957D01*
X745Y957D02*
X763Y957D01*
X0Y956D02*
X7Y956D01*
X280Y956D02*
X303Y956D01*
X704Y956D02*
X709Y956D01*
X714Y956D02*
X718Y956D01*
X744Y956D02*
X763Y956D01*
X0Y955D02*
X7Y955D01*
X279Y955D02*
X303Y955D01*
X703Y955D02*
X708Y955D01*
X714Y955D02*
X719Y955D01*
X743Y955D02*
X762Y955D01*
X0Y954D02*
X7Y954D01*
X278Y954D02*
X302Y954D01*
X703Y954D02*
X708Y954D01*
X714Y954D02*
X719Y954D01*
X743Y954D02*
X762Y954D01*
X0Y953D02*
X7Y953D01*
X277Y953D02*
X302Y953D01*
X703Y953D02*
X708Y953D01*
X715Y953D02*
X719Y953D01*
X743Y953D02*
X763Y953D01*
X0Y952D02*
X7Y952D01*
X277Y952D02*
X300Y952D01*
X703Y952D02*
X707Y952D01*
X715Y952D02*
X720Y952D01*
X744Y952D02*
X763Y952D01*
X0Y951D02*
X7Y951D01*
X277Y951D02*
X282Y951D01*
X702Y951D02*
X707Y951D01*
X715Y951D02*
X720Y951D01*
X758Y951D02*
X764Y951D01*
X0Y950D02*
X7Y950D01*
X277Y950D02*
X282Y950D01*
X702Y950D02*
X707Y950D01*
X715Y950D02*
X720Y950D01*
X759Y950D02*
X764Y950D01*
X0Y949D02*
X7Y949D01*
X277Y949D02*
X282Y949D01*
X702Y949D02*
X706Y949D01*
X716Y949D02*
X721Y949D01*
X759Y949D02*
X764Y949D01*
X0Y948D02*
X7Y948D01*
X277Y948D02*
X282Y948D01*
X701Y948D02*
X707Y948D01*
X716Y948D02*
X721Y948D01*
X759Y948D02*
X764Y948D01*
X0Y947D02*
X7Y947D01*
X277Y947D02*
X282Y947D01*
X701Y947D02*
X721Y947D01*
X759Y947D02*
X764Y947D01*
X0Y946D02*
X7Y946D01*
X277Y946D02*
X282Y946D01*
X701Y946D02*
X721Y946D01*
X759Y946D02*
X764Y946D01*
X0Y945D02*
X7Y945D01*
X277Y945D02*
X282Y945D01*
X700Y945D02*
X722Y945D01*
X759Y945D02*
X764Y945D01*
X0Y944D02*
X7Y944D01*
X277Y944D02*
X282Y944D01*
X700Y944D02*
X722Y944D01*
X759Y944D02*
X764Y944D01*
X0Y943D02*
X7Y943D01*
X277Y943D02*
X282Y943D01*
X516Y943D02*
X525Y943D01*
X700Y943D02*
X722Y943D01*
X759Y943D02*
X764Y943D01*
X0Y942D02*
X7Y942D01*
X277Y942D02*
X282Y942D01*
X516Y942D02*
X525Y942D01*
X700Y942D02*
X705Y942D01*
X718Y942D02*
X723Y942D01*
X759Y942D02*
X764Y942D01*
X1755Y942D02*
X1762Y942D01*
X0Y941D02*
X7Y941D01*
X277Y941D02*
X282Y941D01*
X516Y941D02*
X525Y941D01*
X699Y941D02*
X704Y941D01*
X718Y941D02*
X723Y941D01*
X759Y941D02*
X764Y941D01*
X1755Y941D02*
X1762Y941D01*
X0Y940D02*
X7Y940D01*
X277Y940D02*
X282Y940D01*
X516Y940D02*
X525Y940D01*
X699Y940D02*
X704Y940D01*
X718Y940D02*
X723Y940D01*
X759Y940D02*
X764Y940D01*
X1755Y940D02*
X1762Y940D01*
X0Y939D02*
X7Y939D01*
X277Y939D02*
X282Y939D01*
X516Y939D02*
X525Y939D01*
X699Y939D02*
X704Y939D01*
X719Y939D02*
X723Y939D01*
X759Y939D02*
X764Y939D01*
X1755Y939D02*
X1762Y939D01*
X0Y938D02*
X7Y938D01*
X277Y938D02*
X302Y938D01*
X516Y938D02*
X525Y938D01*
X698Y938D02*
X703Y938D01*
X719Y938D02*
X724Y938D01*
X739Y938D02*
X764Y938D01*
X1755Y938D02*
X1762Y938D01*
X0Y937D02*
X7Y937D01*
X277Y937D02*
X303Y937D01*
X516Y937D02*
X525Y937D01*
X698Y937D02*
X703Y937D01*
X719Y937D02*
X724Y937D01*
X738Y937D02*
X764Y937D01*
X1755Y937D02*
X1762Y937D01*
X0Y936D02*
X7Y936D01*
X277Y936D02*
X304Y936D01*
X516Y936D02*
X525Y936D01*
X698Y936D02*
X703Y936D01*
X720Y936D02*
X724Y936D01*
X738Y936D02*
X763Y936D01*
X1755Y936D02*
X1762Y936D01*
X0Y935D02*
X7Y935D01*
X277Y935D02*
X303Y935D01*
X516Y935D02*
X525Y935D01*
X698Y935D02*
X702Y935D01*
X720Y935D02*
X724Y935D01*
X738Y935D02*
X763Y935D01*
X1755Y935D02*
X1762Y935D01*
X0Y934D02*
X7Y934D01*
X277Y934D02*
X303Y934D01*
X516Y934D02*
X525Y934D01*
X698Y934D02*
X702Y934D01*
X720Y934D02*
X724Y934D01*
X738Y934D02*
X761Y934D01*
X1755Y934D02*
X1762Y934D01*
X0Y933D02*
X7Y933D01*
X278Y933D02*
X301Y933D01*
X516Y933D02*
X525Y933D01*
X700Y933D02*
X700Y933D01*
X722Y933D02*
X722Y933D01*
X740Y933D02*
X759Y933D01*
X1755Y933D02*
X1762Y933D01*
X0Y932D02*
X7Y932D01*
X516Y932D02*
X525Y932D01*
X1755Y932D02*
X1762Y932D01*
X0Y931D02*
X7Y931D01*
X516Y931D02*
X525Y931D01*
X1755Y931D02*
X1762Y931D01*
X0Y930D02*
X7Y930D01*
X516Y930D02*
X525Y930D01*
X1755Y930D02*
X1762Y930D01*
X0Y929D02*
X7Y929D01*
X516Y929D02*
X525Y929D01*
X1755Y929D02*
X1762Y929D01*
X0Y928D02*
X7Y928D01*
X516Y928D02*
X525Y928D01*
X1755Y928D02*
X1762Y928D01*
X0Y927D02*
X7Y927D01*
X516Y927D02*
X525Y927D01*
X1755Y927D02*
X1762Y927D01*
X0Y926D02*
X7Y926D01*
X516Y926D02*
X525Y926D01*
X1755Y926D02*
X1762Y926D01*
X0Y925D02*
X7Y925D01*
X516Y925D02*
X525Y925D01*
X1755Y925D02*
X1762Y925D01*
X0Y924D02*
X7Y924D01*
X516Y924D02*
X525Y924D01*
X1755Y924D02*
X1762Y924D01*
X0Y923D02*
X7Y923D01*
X516Y923D02*
X525Y923D01*
X1755Y923D02*
X1762Y923D01*
X0Y922D02*
X7Y922D01*
X516Y922D02*
X525Y922D01*
X1755Y922D02*
X1762Y922D01*
X0Y921D02*
X7Y921D01*
X516Y921D02*
X525Y921D01*
X1755Y921D02*
X1762Y921D01*
X0Y920D02*
X7Y920D01*
X516Y920D02*
X525Y920D01*
X1755Y920D02*
X1762Y920D01*
X0Y919D02*
X7Y919D01*
X516Y919D02*
X525Y919D01*
X1755Y919D02*
X1762Y919D01*
X0Y918D02*
X7Y918D01*
X516Y918D02*
X525Y918D01*
X1755Y918D02*
X1762Y918D01*
X0Y917D02*
X7Y917D01*
X516Y917D02*
X525Y917D01*
X1755Y917D02*
X1762Y917D01*
X0Y916D02*
X7Y916D01*
X516Y916D02*
X525Y916D01*
X1755Y916D02*
X1762Y916D01*
X0Y915D02*
X7Y915D01*
X516Y915D02*
X525Y915D01*
X1755Y915D02*
X1762Y915D01*
X0Y914D02*
X7Y914D01*
X516Y914D02*
X525Y914D01*
X1755Y914D02*
X1762Y914D01*
X0Y913D02*
X7Y913D01*
X516Y913D02*
X525Y913D01*
X1755Y913D02*
X1762Y913D01*
X0Y912D02*
X7Y912D01*
X516Y912D02*
X525Y912D01*
X1755Y912D02*
X1762Y912D01*
X0Y911D02*
X7Y911D01*
X516Y911D02*
X525Y911D01*
X1755Y911D02*
X1762Y911D01*
X0Y910D02*
X7Y910D01*
X501Y910D02*
X525Y910D01*
X1755Y910D02*
X1762Y910D01*
X0Y909D02*
X7Y909D01*
X500Y909D02*
X525Y909D01*
X1755Y909D02*
X1762Y909D01*
X0Y908D02*
X7Y908D01*
X499Y908D02*
X525Y908D01*
X0Y907D02*
X7Y907D01*
X499Y907D02*
X525Y907D01*
X0Y906D02*
X7Y906D01*
X499Y906D02*
X525Y906D01*
X0Y905D02*
X7Y905D01*
X500Y905D02*
X525Y905D01*
X0Y904D02*
X7Y904D01*
X501Y904D02*
X525Y904D01*
X0Y903D02*
X7Y903D01*
X516Y903D02*
X525Y903D01*
X0Y902D02*
X7Y902D01*
X516Y902D02*
X525Y902D01*
X0Y901D02*
X7Y901D01*
X516Y901D02*
X525Y901D01*
X0Y900D02*
X7Y900D01*
X516Y900D02*
X525Y900D01*
X0Y899D02*
X7Y899D01*
X516Y899D02*
X525Y899D01*
X0Y898D02*
X7Y898D01*
X516Y898D02*
X525Y898D01*
X0Y897D02*
X7Y897D01*
X516Y897D02*
X525Y897D01*
X0Y896D02*
X7Y896D01*
X470Y896D02*
X525Y896D01*
X0Y895D02*
X7Y895D01*
X470Y895D02*
X514Y895D01*
X0Y894D02*
X7Y894D01*
X470Y894D02*
X509Y894D01*
X0Y893D02*
X7Y893D01*
X470Y893D02*
X506Y893D01*
X0Y892D02*
X7Y892D01*
X470Y892D02*
X503Y892D01*
X0Y891D02*
X7Y891D01*
X470Y891D02*
X501Y891D01*
X0Y890D02*
X7Y890D01*
X470Y890D02*
X499Y890D01*
X0Y889D02*
X7Y889D01*
X470Y889D02*
X476Y889D01*
X0Y888D02*
X7Y888D01*
X470Y888D02*
X476Y888D01*
X1755Y888D02*
X1762Y888D01*
X0Y887D02*
X7Y887D01*
X470Y887D02*
X476Y887D01*
X1755Y887D02*
X1762Y887D01*
X0Y886D02*
X7Y886D01*
X470Y886D02*
X476Y886D01*
X1755Y886D02*
X1762Y886D01*
X0Y885D02*
X7Y885D01*
X470Y885D02*
X476Y885D01*
X1755Y885D02*
X1762Y885D01*
X0Y884D02*
X7Y884D01*
X470Y884D02*
X476Y884D01*
X1755Y884D02*
X1762Y884D01*
X0Y883D02*
X7Y883D01*
X470Y883D02*
X476Y883D01*
X1755Y883D02*
X1762Y883D01*
X0Y882D02*
X7Y882D01*
X470Y882D02*
X476Y882D01*
X1755Y882D02*
X1762Y882D01*
X0Y881D02*
X7Y881D01*
X470Y881D02*
X476Y881D01*
X1755Y881D02*
X1762Y881D01*
X0Y880D02*
X7Y880D01*
X470Y880D02*
X476Y880D01*
X1755Y880D02*
X1762Y880D01*
X0Y879D02*
X7Y879D01*
X470Y879D02*
X476Y879D01*
X1755Y879D02*
X1762Y879D01*
X0Y878D02*
X7Y878D01*
X470Y878D02*
X475Y878D01*
X1755Y878D02*
X1762Y878D01*
X0Y877D02*
X7Y877D01*
X471Y877D02*
X475Y877D01*
X1755Y877D02*
X1762Y877D01*
X0Y876D02*
X7Y876D01*
X1755Y876D02*
X1762Y876D01*
X0Y875D02*
X7Y875D01*
X278Y875D02*
X301Y875D01*
X710Y875D02*
X713Y875D01*
X738Y875D02*
X761Y875D01*
X1755Y875D02*
X1762Y875D01*
X0Y874D02*
X7Y874D01*
X277Y874D02*
X302Y874D01*
X709Y874D02*
X713Y874D01*
X738Y874D02*
X762Y874D01*
X1755Y874D02*
X1762Y874D01*
X0Y873D02*
X7Y873D01*
X277Y873D02*
X303Y873D01*
X709Y873D02*
X714Y873D01*
X738Y873D02*
X763Y873D01*
X1755Y873D02*
X1762Y873D01*
X0Y872D02*
X7Y872D01*
X277Y872D02*
X303Y872D01*
X708Y872D02*
X714Y872D01*
X738Y872D02*
X764Y872D01*
X1755Y872D02*
X1762Y872D01*
X0Y871D02*
X7Y871D01*
X278Y871D02*
X303Y871D01*
X708Y871D02*
X714Y871D01*
X739Y871D02*
X764Y871D01*
X1755Y871D02*
X1762Y871D01*
X0Y870D02*
X7Y870D01*
X299Y870D02*
X304Y870D01*
X708Y870D02*
X714Y870D01*
X759Y870D02*
X764Y870D01*
X1755Y870D02*
X1762Y870D01*
X0Y869D02*
X7Y869D01*
X299Y869D02*
X304Y869D01*
X708Y869D02*
X715Y869D01*
X759Y869D02*
X764Y869D01*
X1755Y869D02*
X1762Y869D01*
X0Y868D02*
X7Y868D01*
X299Y868D02*
X304Y868D01*
X707Y868D02*
X715Y868D01*
X759Y868D02*
X764Y868D01*
X1755Y868D02*
X1762Y868D01*
X0Y867D02*
X7Y867D01*
X299Y867D02*
X304Y867D01*
X707Y867D02*
X715Y867D01*
X759Y867D02*
X764Y867D01*
X1755Y867D02*
X1762Y867D01*
X0Y866D02*
X7Y866D01*
X299Y866D02*
X304Y866D01*
X707Y866D02*
X716Y866D01*
X759Y866D02*
X764Y866D01*
X1755Y866D02*
X1762Y866D01*
X0Y865D02*
X7Y865D01*
X299Y865D02*
X304Y865D01*
X706Y865D02*
X716Y865D01*
X759Y865D02*
X764Y865D01*
X1755Y865D02*
X1762Y865D01*
X0Y864D02*
X7Y864D01*
X299Y864D02*
X304Y864D01*
X706Y864D02*
X716Y864D01*
X759Y864D02*
X764Y864D01*
X1755Y864D02*
X1762Y864D01*
X0Y863D02*
X7Y863D01*
X299Y863D02*
X304Y863D01*
X706Y863D02*
X716Y863D01*
X759Y863D02*
X764Y863D01*
X1755Y863D02*
X1762Y863D01*
X0Y862D02*
X7Y862D01*
X299Y862D02*
X304Y862D01*
X705Y862D02*
X710Y862D01*
X712Y862D02*
X717Y862D01*
X759Y862D02*
X764Y862D01*
X1755Y862D02*
X1762Y862D01*
X0Y861D02*
X7Y861D01*
X299Y861D02*
X304Y861D01*
X705Y861D02*
X710Y861D01*
X712Y861D02*
X717Y861D01*
X759Y861D02*
X764Y861D01*
X1755Y861D02*
X1762Y861D01*
X0Y860D02*
X7Y860D01*
X299Y860D02*
X304Y860D01*
X705Y860D02*
X710Y860D01*
X713Y860D02*
X717Y860D01*
X759Y860D02*
X764Y860D01*
X1755Y860D02*
X1762Y860D01*
X0Y859D02*
X7Y859D01*
X299Y859D02*
X304Y859D01*
X705Y859D02*
X709Y859D01*
X713Y859D02*
X718Y859D01*
X759Y859D02*
X764Y859D01*
X1755Y859D02*
X1762Y859D01*
X0Y858D02*
X7Y858D01*
X298Y858D02*
X303Y858D01*
X704Y858D02*
X709Y858D01*
X713Y858D02*
X718Y858D01*
X759Y858D02*
X764Y858D01*
X1755Y858D02*
X1762Y858D01*
X0Y857D02*
X7Y857D01*
X284Y857D02*
X303Y857D01*
X704Y857D02*
X709Y857D01*
X713Y857D02*
X718Y857D01*
X742Y857D02*
X764Y857D01*
X1755Y857D02*
X1762Y857D01*
X0Y856D02*
X7Y856D01*
X283Y856D02*
X303Y856D01*
X704Y856D02*
X709Y856D01*
X714Y856D02*
X718Y856D01*
X740Y856D02*
X764Y856D01*
X1755Y856D02*
X1762Y856D01*
X0Y855D02*
X7Y855D01*
X283Y855D02*
X302Y855D01*
X703Y855D02*
X708Y855D01*
X714Y855D02*
X719Y855D01*
X739Y855D02*
X763Y855D01*
X1755Y855D02*
X1762Y855D01*
X0Y854D02*
X7Y854D01*
X283Y854D02*
X302Y854D01*
X703Y854D02*
X708Y854D01*
X714Y854D02*
X719Y854D01*
X738Y854D02*
X763Y854D01*
X0Y853D02*
X7Y853D01*
X283Y853D02*
X302Y853D01*
X703Y853D02*
X708Y853D01*
X715Y853D02*
X719Y853D01*
X738Y853D02*
X762Y853D01*
X0Y852D02*
X7Y852D01*
X284Y852D02*
X303Y852D01*
X320Y852D02*
X324Y852D01*
X703Y852D02*
X707Y852D01*
X715Y852D02*
X720Y852D01*
X738Y852D02*
X760Y852D01*
X0Y851D02*
X7Y851D01*
X298Y851D02*
X303Y851D01*
X318Y851D02*
X325Y851D01*
X702Y851D02*
X707Y851D01*
X715Y851D02*
X720Y851D01*
X738Y851D02*
X742Y851D01*
X0Y850D02*
X7Y850D01*
X299Y850D02*
X303Y850D01*
X317Y850D02*
X320Y850D01*
X324Y850D02*
X326Y850D01*
X336Y850D02*
X337Y850D01*
X702Y850D02*
X707Y850D01*
X715Y850D02*
X720Y850D01*
X738Y850D02*
X742Y850D01*
X0Y849D02*
X7Y849D01*
X299Y849D02*
X304Y849D01*
X316Y849D02*
X319Y849D01*
X325Y849D02*
X327Y849D01*
X335Y849D02*
X337Y849D01*
X702Y849D02*
X706Y849D01*
X716Y849D02*
X721Y849D01*
X738Y849D02*
X742Y849D01*
X0Y848D02*
X7Y848D01*
X299Y848D02*
X304Y848D01*
X316Y848D02*
X318Y848D01*
X326Y848D02*
X329Y848D01*
X334Y848D02*
X336Y848D01*
X701Y848D02*
X707Y848D01*
X716Y848D02*
X721Y848D01*
X738Y848D02*
X742Y848D01*
X0Y847D02*
X7Y847D01*
X299Y847D02*
X304Y847D01*
X316Y847D02*
X317Y847D01*
X327Y847D02*
X330Y847D01*
X333Y847D02*
X336Y847D01*
X701Y847D02*
X721Y847D01*
X738Y847D02*
X742Y847D01*
X0Y846D02*
X7Y846D01*
X299Y846D02*
X304Y846D01*
X329Y846D02*
X334Y846D01*
X701Y846D02*
X721Y846D01*
X738Y846D02*
X742Y846D01*
X0Y845D02*
X7Y845D01*
X299Y845D02*
X304Y845D01*
X330Y845D02*
X333Y845D01*
X700Y845D02*
X722Y845D01*
X738Y845D02*
X742Y845D01*
X0Y844D02*
X7Y844D01*
X299Y844D02*
X304Y844D01*
X700Y844D02*
X722Y844D01*
X738Y844D02*
X742Y844D01*
X0Y843D02*
X7Y843D01*
X299Y843D02*
X304Y843D01*
X700Y843D02*
X722Y843D01*
X738Y843D02*
X742Y843D01*
X0Y842D02*
X7Y842D01*
X299Y842D02*
X304Y842D01*
X700Y842D02*
X704Y842D01*
X718Y842D02*
X723Y842D01*
X738Y842D02*
X742Y842D01*
X0Y841D02*
X7Y841D01*
X299Y841D02*
X304Y841D01*
X699Y841D02*
X704Y841D01*
X718Y841D02*
X723Y841D01*
X738Y841D02*
X742Y841D01*
X0Y840D02*
X7Y840D01*
X299Y840D02*
X304Y840D01*
X699Y840D02*
X704Y840D01*
X718Y840D02*
X723Y840D01*
X738Y840D02*
X742Y840D01*
X0Y839D02*
X7Y839D01*
X299Y839D02*
X304Y839D01*
X699Y839D02*
X704Y839D01*
X719Y839D02*
X723Y839D01*
X738Y839D02*
X742Y839D01*
X0Y838D02*
X7Y838D01*
X278Y838D02*
X303Y838D01*
X698Y838D02*
X703Y838D01*
X719Y838D02*
X724Y838D01*
X738Y838D02*
X763Y838D01*
X0Y837D02*
X7Y837D01*
X278Y837D02*
X303Y837D01*
X698Y837D02*
X703Y837D01*
X719Y837D02*
X724Y837D01*
X738Y837D02*
X764Y837D01*
X0Y836D02*
X7Y836D01*
X277Y836D02*
X303Y836D01*
X698Y836D02*
X703Y836D01*
X720Y836D02*
X724Y836D01*
X738Y836D02*
X764Y836D01*
X0Y835D02*
X7Y835D01*
X277Y835D02*
X302Y835D01*
X698Y835D02*
X702Y835D01*
X720Y835D02*
X724Y835D01*
X738Y835D02*
X764Y835D01*
X0Y834D02*
X7Y834D01*
X278Y834D02*
X301Y834D01*
X699Y834D02*
X702Y834D01*
X720Y834D02*
X724Y834D01*
X738Y834D02*
X763Y834D01*
X1755Y834D02*
X1762Y834D01*
X0Y833D02*
X7Y833D01*
X280Y833D02*
X298Y833D01*
X738Y833D02*
X761Y833D01*
X1755Y833D02*
X1762Y833D01*
X0Y832D02*
X7Y832D01*
X1755Y832D02*
X1762Y832D01*
X0Y831D02*
X7Y831D01*
X1755Y831D02*
X1762Y831D01*
X0Y830D02*
X7Y830D01*
X1755Y830D02*
X1762Y830D01*
X0Y829D02*
X7Y829D01*
X1755Y829D02*
X1762Y829D01*
X0Y828D02*
X7Y828D01*
X1755Y828D02*
X1762Y828D01*
X0Y827D02*
X7Y827D01*
X1755Y827D02*
X1762Y827D01*
X0Y826D02*
X7Y826D01*
X1755Y826D02*
X1762Y826D01*
X0Y825D02*
X7Y825D01*
X1755Y825D02*
X1762Y825D01*
X0Y824D02*
X7Y824D01*
X1755Y824D02*
X1762Y824D01*
X0Y823D02*
X7Y823D01*
X1755Y823D02*
X1762Y823D01*
X0Y822D02*
X7Y822D01*
X1755Y822D02*
X1762Y822D01*
X0Y821D02*
X7Y821D01*
X1755Y821D02*
X1762Y821D01*
X0Y820D02*
X7Y820D01*
X1755Y820D02*
X1762Y820D01*
X0Y819D02*
X7Y819D01*
X1755Y819D02*
X1762Y819D01*
X0Y818D02*
X7Y818D01*
X1755Y818D02*
X1762Y818D01*
X0Y817D02*
X7Y817D01*
X1755Y817D02*
X1762Y817D01*
X0Y816D02*
X7Y816D01*
X1755Y816D02*
X1762Y816D01*
X0Y815D02*
X7Y815D01*
X1755Y815D02*
X1762Y815D01*
X0Y814D02*
X7Y814D01*
X1755Y814D02*
X1762Y814D01*
X0Y813D02*
X7Y813D01*
X1755Y813D02*
X1762Y813D01*
X0Y812D02*
X7Y812D01*
X1755Y812D02*
X1762Y812D01*
X0Y811D02*
X7Y811D01*
X1755Y811D02*
X1762Y811D01*
X0Y810D02*
X7Y810D01*
X491Y810D02*
X497Y810D01*
X1755Y810D02*
X1762Y810D01*
X0Y809D02*
X7Y809D01*
X489Y809D02*
X498Y809D01*
X1755Y809D02*
X1762Y809D01*
X0Y808D02*
X7Y808D01*
X488Y808D02*
X499Y808D01*
X1755Y808D02*
X1762Y808D01*
X0Y807D02*
X7Y807D01*
X487Y807D02*
X499Y807D01*
X591Y807D02*
X643Y807D01*
X1755Y807D02*
X1762Y807D01*
X0Y806D02*
X7Y806D01*
X486Y806D02*
X499Y806D01*
X590Y806D02*
X643Y806D01*
X1755Y806D02*
X1762Y806D01*
X0Y805D02*
X7Y805D01*
X486Y805D02*
X498Y805D01*
X590Y805D02*
X643Y805D01*
X1755Y805D02*
X1762Y805D01*
X0Y804D02*
X7Y804D01*
X485Y804D02*
X497Y804D01*
X590Y804D02*
X643Y804D01*
X1755Y804D02*
X1762Y804D01*
X0Y803D02*
X7Y803D01*
X485Y803D02*
X492Y803D01*
X590Y803D02*
X643Y803D01*
X1755Y803D02*
X1762Y803D01*
X0Y802D02*
X7Y802D01*
X484Y802D02*
X491Y802D01*
X590Y802D02*
X643Y802D01*
X1755Y802D02*
X1762Y802D01*
X0Y801D02*
X7Y801D01*
X484Y801D02*
X490Y801D01*
X592Y801D02*
X643Y801D01*
X0Y800D02*
X7Y800D01*
X484Y800D02*
X490Y800D01*
X619Y800D02*
X625Y800D01*
X637Y800D02*
X643Y800D01*
X0Y799D02*
X7Y799D01*
X484Y799D02*
X490Y799D01*
X619Y799D02*
X625Y799D01*
X637Y799D02*
X643Y799D01*
X0Y798D02*
X7Y798D01*
X484Y798D02*
X490Y798D01*
X619Y798D02*
X625Y798D01*
X637Y798D02*
X643Y798D01*
X0Y797D02*
X7Y797D01*
X484Y797D02*
X490Y797D01*
X619Y797D02*
X625Y797D01*
X637Y797D02*
X643Y797D01*
X0Y796D02*
X7Y796D01*
X484Y796D02*
X490Y796D01*
X619Y796D02*
X625Y796D01*
X637Y796D02*
X643Y796D01*
X0Y795D02*
X7Y795D01*
X484Y795D02*
X490Y795D01*
X618Y795D02*
X625Y795D01*
X637Y795D02*
X643Y795D01*
X0Y794D02*
X7Y794D01*
X484Y794D02*
X491Y794D01*
X616Y794D02*
X625Y794D01*
X637Y794D02*
X643Y794D01*
X0Y793D02*
X7Y793D01*
X484Y793D02*
X492Y793D01*
X614Y793D02*
X625Y793D01*
X637Y793D02*
X643Y793D01*
X0Y792D02*
X7Y792D01*
X485Y792D02*
X492Y792D01*
X612Y792D02*
X625Y792D01*
X637Y792D02*
X643Y792D01*
X0Y791D02*
X7Y791D01*
X485Y791D02*
X493Y791D01*
X611Y791D02*
X625Y791D01*
X637Y791D02*
X643Y791D01*
X0Y790D02*
X7Y790D01*
X486Y790D02*
X494Y790D01*
X609Y790D02*
X625Y790D01*
X637Y790D02*
X643Y790D01*
X0Y789D02*
X7Y789D01*
X487Y789D02*
X495Y789D01*
X607Y789D02*
X625Y789D01*
X637Y789D02*
X643Y789D01*
X0Y788D02*
X7Y788D01*
X488Y788D02*
X496Y788D01*
X606Y788D02*
X625Y788D01*
X637Y788D02*
X643Y788D01*
X0Y787D02*
X7Y787D01*
X489Y787D02*
X497Y787D01*
X604Y787D02*
X617Y787D01*
X619Y787D02*
X625Y787D01*
X637Y787D02*
X643Y787D01*
X0Y786D02*
X7Y786D01*
X489Y786D02*
X498Y786D01*
X602Y786D02*
X615Y786D01*
X619Y786D02*
X625Y786D01*
X637Y786D02*
X643Y786D01*
X0Y785D02*
X7Y785D01*
X490Y785D02*
X499Y785D01*
X601Y785D02*
X614Y785D01*
X619Y785D02*
X625Y785D01*
X637Y785D02*
X643Y785D01*
X0Y784D02*
X7Y784D01*
X491Y784D02*
X499Y784D01*
X599Y784D02*
X612Y784D01*
X619Y784D02*
X625Y784D01*
X637Y784D02*
X643Y784D01*
X0Y783D02*
X7Y783D01*
X488Y783D02*
X519Y783D01*
X597Y783D02*
X610Y783D01*
X619Y783D02*
X625Y783D01*
X637Y783D02*
X643Y783D01*
X0Y782D02*
X7Y782D01*
X485Y782D02*
X522Y782D01*
X595Y782D02*
X608Y782D01*
X619Y782D02*
X626Y782D01*
X636Y782D02*
X643Y782D01*
X0Y781D02*
X7Y781D01*
X485Y781D02*
X522Y781D01*
X594Y781D02*
X607Y781D01*
X619Y781D02*
X626Y781D01*
X635Y781D02*
X642Y781D01*
X1755Y781D02*
X1762Y781D01*
X0Y780D02*
X7Y780D01*
X484Y780D02*
X523Y780D01*
X592Y780D02*
X605Y780D01*
X620Y780D02*
X642Y780D01*
X1755Y780D02*
X1762Y780D01*
X0Y779D02*
X7Y779D01*
X484Y779D02*
X523Y779D01*
X591Y779D02*
X603Y779D01*
X620Y779D02*
X642Y779D01*
X1755Y779D02*
X1762Y779D01*
X0Y778D02*
X7Y778D01*
X485Y778D02*
X522Y778D01*
X590Y778D02*
X602Y778D01*
X621Y778D02*
X641Y778D01*
X1755Y778D02*
X1762Y778D01*
X0Y777D02*
X7Y777D01*
X485Y777D02*
X522Y777D01*
X590Y777D02*
X600Y777D01*
X622Y777D02*
X640Y777D01*
X1755Y777D02*
X1762Y777D01*
X0Y776D02*
X7Y776D01*
X488Y776D02*
X519Y776D01*
X590Y776D02*
X598Y776D01*
X623Y776D02*
X639Y776D01*
X1755Y776D02*
X1762Y776D01*
X0Y775D02*
X7Y775D01*
X279Y775D02*
X282Y775D01*
X590Y775D02*
X596Y775D01*
X624Y775D02*
X638Y775D01*
X710Y775D02*
X713Y775D01*
X738Y775D02*
X753Y775D01*
X1755Y775D02*
X1762Y775D01*
X0Y774D02*
X7Y774D01*
X279Y774D02*
X283Y774D01*
X591Y774D02*
X595Y774D01*
X625Y774D02*
X637Y774D01*
X709Y774D02*
X713Y774D01*
X738Y774D02*
X753Y774D01*
X1755Y774D02*
X1762Y774D01*
X0Y773D02*
X7Y773D01*
X279Y773D02*
X283Y773D01*
X709Y773D02*
X714Y773D01*
X738Y773D02*
X753Y773D01*
X1755Y773D02*
X1762Y773D01*
X0Y772D02*
X7Y772D01*
X279Y772D02*
X283Y772D01*
X708Y772D02*
X714Y772D01*
X738Y772D02*
X753Y772D01*
X1755Y772D02*
X1762Y772D01*
X0Y771D02*
X7Y771D01*
X279Y771D02*
X283Y771D01*
X297Y771D02*
X298Y771D01*
X708Y771D02*
X714Y771D01*
X739Y771D02*
X753Y771D01*
X1755Y771D02*
X1762Y771D01*
X0Y770D02*
X7Y770D01*
X279Y770D02*
X283Y770D01*
X295Y770D02*
X299Y770D01*
X708Y770D02*
X714Y770D01*
X748Y770D02*
X753Y770D01*
X1755Y770D02*
X1762Y770D01*
X0Y769D02*
X7Y769D01*
X279Y769D02*
X283Y769D01*
X295Y769D02*
X299Y769D01*
X707Y769D02*
X715Y769D01*
X748Y769D02*
X753Y769D01*
X1755Y769D02*
X1762Y769D01*
X0Y768D02*
X7Y768D01*
X279Y768D02*
X283Y768D01*
X295Y768D02*
X299Y768D01*
X707Y768D02*
X715Y768D01*
X748Y768D02*
X753Y768D01*
X1755Y768D02*
X1762Y768D01*
X0Y767D02*
X7Y767D01*
X279Y767D02*
X283Y767D01*
X295Y767D02*
X299Y767D01*
X707Y767D02*
X715Y767D01*
X748Y767D02*
X753Y767D01*
X1755Y767D02*
X1762Y767D01*
X0Y766D02*
X7Y766D01*
X279Y766D02*
X283Y766D01*
X295Y766D02*
X299Y766D01*
X707Y766D02*
X716Y766D01*
X748Y766D02*
X753Y766D01*
X1755Y766D02*
X1762Y766D01*
X0Y765D02*
X7Y765D01*
X279Y765D02*
X283Y765D01*
X295Y765D02*
X299Y765D01*
X706Y765D02*
X716Y765D01*
X748Y765D02*
X753Y765D01*
X1755Y765D02*
X1762Y765D01*
X0Y764D02*
X7Y764D01*
X279Y764D02*
X283Y764D01*
X295Y764D02*
X299Y764D01*
X706Y764D02*
X716Y764D01*
X748Y764D02*
X753Y764D01*
X1755Y764D02*
X1762Y764D01*
X0Y763D02*
X7Y763D01*
X279Y763D02*
X283Y763D01*
X295Y763D02*
X299Y763D01*
X706Y763D02*
X716Y763D01*
X748Y763D02*
X753Y763D01*
X1755Y763D02*
X1762Y763D01*
X0Y762D02*
X7Y762D01*
X279Y762D02*
X283Y762D01*
X295Y762D02*
X299Y762D01*
X705Y762D02*
X710Y762D01*
X712Y762D02*
X717Y762D01*
X748Y762D02*
X753Y762D01*
X1755Y762D02*
X1762Y762D01*
X0Y761D02*
X7Y761D01*
X279Y761D02*
X283Y761D01*
X295Y761D02*
X299Y761D01*
X705Y761D02*
X710Y761D01*
X712Y761D02*
X717Y761D01*
X748Y761D02*
X753Y761D01*
X1755Y761D02*
X1762Y761D01*
X0Y760D02*
X7Y760D01*
X279Y760D02*
X283Y760D01*
X295Y760D02*
X299Y760D01*
X486Y760D02*
X489Y760D01*
X518Y760D02*
X521Y760D01*
X705Y760D02*
X710Y760D01*
X713Y760D02*
X717Y760D01*
X748Y760D02*
X753Y760D01*
X1755Y760D02*
X1762Y760D01*
X0Y759D02*
X7Y759D01*
X279Y759D02*
X283Y759D01*
X295Y759D02*
X299Y759D01*
X485Y759D02*
X490Y759D01*
X517Y759D02*
X522Y759D01*
X705Y759D02*
X709Y759D01*
X713Y759D02*
X718Y759D01*
X748Y759D02*
X753Y759D01*
X1755Y759D02*
X1762Y759D01*
X0Y758D02*
X7Y758D01*
X279Y758D02*
X283Y758D01*
X295Y758D02*
X299Y758D01*
X485Y758D02*
X490Y758D01*
X517Y758D02*
X523Y758D01*
X704Y758D02*
X709Y758D01*
X713Y758D02*
X718Y758D01*
X748Y758D02*
X753Y758D01*
X1755Y758D02*
X1762Y758D01*
X0Y757D02*
X7Y757D01*
X279Y757D02*
X283Y757D01*
X295Y757D02*
X299Y757D01*
X484Y757D02*
X490Y757D01*
X517Y757D02*
X523Y757D01*
X591Y757D02*
X641Y757D01*
X704Y757D02*
X709Y757D01*
X713Y757D02*
X718Y757D01*
X748Y757D02*
X753Y757D01*
X1755Y757D02*
X1762Y757D01*
X0Y756D02*
X7Y756D01*
X279Y756D02*
X283Y756D01*
X295Y756D02*
X299Y756D01*
X484Y756D02*
X490Y756D01*
X517Y756D02*
X523Y756D01*
X590Y756D02*
X642Y756D01*
X704Y756D02*
X708Y756D01*
X714Y756D02*
X719Y756D01*
X748Y756D02*
X753Y756D01*
X1755Y756D02*
X1762Y756D01*
X0Y755D02*
X7Y755D01*
X279Y755D02*
X283Y755D01*
X295Y755D02*
X299Y755D01*
X484Y755D02*
X490Y755D01*
X517Y755D02*
X523Y755D01*
X590Y755D02*
X643Y755D01*
X703Y755D02*
X708Y755D01*
X714Y755D02*
X719Y755D01*
X748Y755D02*
X753Y755D01*
X1755Y755D02*
X1762Y755D01*
X0Y754D02*
X7Y754D01*
X279Y754D02*
X283Y754D01*
X295Y754D02*
X299Y754D01*
X484Y754D02*
X490Y754D01*
X517Y754D02*
X523Y754D01*
X590Y754D02*
X643Y754D01*
X703Y754D02*
X708Y754D01*
X714Y754D02*
X719Y754D01*
X748Y754D02*
X753Y754D01*
X1755Y754D02*
X1762Y754D01*
X0Y753D02*
X7Y753D01*
X279Y753D02*
X283Y753D01*
X295Y753D02*
X300Y753D01*
X484Y753D02*
X490Y753D01*
X517Y753D02*
X523Y753D01*
X590Y753D02*
X643Y753D01*
X703Y753D02*
X708Y753D01*
X715Y753D02*
X719Y753D01*
X748Y753D02*
X753Y753D01*
X1755Y753D02*
X1762Y753D01*
X0Y752D02*
X7Y752D01*
X279Y752D02*
X301Y752D01*
X484Y752D02*
X490Y752D01*
X517Y752D02*
X523Y752D01*
X590Y752D02*
X643Y752D01*
X703Y752D02*
X707Y752D01*
X715Y752D02*
X720Y752D01*
X748Y752D02*
X753Y752D01*
X760Y752D02*
X763Y752D01*
X1755Y752D02*
X1762Y752D01*
X0Y751D02*
X7Y751D01*
X279Y751D02*
X302Y751D01*
X484Y751D02*
X490Y751D01*
X517Y751D02*
X523Y751D01*
X590Y751D02*
X643Y751D01*
X702Y751D02*
X707Y751D01*
X715Y751D02*
X720Y751D01*
X748Y751D02*
X753Y751D01*
X760Y751D02*
X764Y751D01*
X1755Y751D02*
X1762Y751D01*
X0Y750D02*
X7Y750D01*
X279Y750D02*
X302Y750D01*
X484Y750D02*
X490Y750D01*
X517Y750D02*
X523Y750D01*
X590Y750D02*
X596Y750D01*
X607Y750D02*
X613Y750D01*
X637Y750D02*
X643Y750D01*
X702Y750D02*
X707Y750D01*
X715Y750D02*
X720Y750D01*
X748Y750D02*
X753Y750D01*
X759Y750D02*
X764Y750D01*
X1755Y750D02*
X1762Y750D01*
X0Y749D02*
X7Y749D01*
X279Y749D02*
X302Y749D01*
X484Y749D02*
X490Y749D01*
X517Y749D02*
X523Y749D01*
X590Y749D02*
X596Y749D01*
X607Y749D02*
X613Y749D01*
X637Y749D02*
X642Y749D01*
X702Y749D02*
X706Y749D01*
X716Y749D02*
X721Y749D01*
X748Y749D02*
X753Y749D01*
X759Y749D02*
X764Y749D01*
X1755Y749D02*
X1762Y749D01*
X0Y748D02*
X7Y748D01*
X279Y748D02*
X301Y748D01*
X484Y748D02*
X490Y748D01*
X517Y748D02*
X523Y748D01*
X590Y748D02*
X596Y748D01*
X607Y748D02*
X613Y748D01*
X638Y748D02*
X641Y748D01*
X701Y748D02*
X707Y748D01*
X716Y748D02*
X721Y748D01*
X748Y748D02*
X753Y748D01*
X759Y748D02*
X764Y748D01*
X1755Y748D02*
X1762Y748D01*
X0Y747D02*
X7Y747D01*
X295Y747D02*
X300Y747D01*
X484Y747D02*
X490Y747D01*
X517Y747D02*
X523Y747D01*
X590Y747D02*
X596Y747D01*
X607Y747D02*
X613Y747D01*
X701Y747D02*
X721Y747D01*
X748Y747D02*
X753Y747D01*
X759Y747D02*
X764Y747D01*
X0Y746D02*
X7Y746D01*
X295Y746D02*
X299Y746D01*
X484Y746D02*
X490Y746D01*
X517Y746D02*
X523Y746D01*
X590Y746D02*
X596Y746D01*
X607Y746D02*
X613Y746D01*
X701Y746D02*
X721Y746D01*
X748Y746D02*
X753Y746D01*
X759Y746D02*
X764Y746D01*
X0Y745D02*
X7Y745D01*
X295Y745D02*
X299Y745D01*
X484Y745D02*
X490Y745D01*
X517Y745D02*
X523Y745D01*
X590Y745D02*
X596Y745D01*
X607Y745D02*
X613Y745D01*
X700Y745D02*
X722Y745D01*
X748Y745D02*
X753Y745D01*
X759Y745D02*
X764Y745D01*
X0Y744D02*
X7Y744D01*
X295Y744D02*
X299Y744D01*
X484Y744D02*
X490Y744D01*
X517Y744D02*
X523Y744D01*
X590Y744D02*
X596Y744D01*
X607Y744D02*
X613Y744D01*
X700Y744D02*
X722Y744D01*
X748Y744D02*
X753Y744D01*
X759Y744D02*
X764Y744D01*
X0Y743D02*
X7Y743D01*
X295Y743D02*
X299Y743D01*
X484Y743D02*
X490Y743D01*
X517Y743D02*
X523Y743D01*
X590Y743D02*
X596Y743D01*
X607Y743D02*
X613Y743D01*
X700Y743D02*
X722Y743D01*
X748Y743D02*
X753Y743D01*
X759Y743D02*
X764Y743D01*
X0Y742D02*
X7Y742D01*
X295Y742D02*
X299Y742D01*
X484Y742D02*
X490Y742D01*
X517Y742D02*
X523Y742D01*
X590Y742D02*
X596Y742D01*
X607Y742D02*
X613Y742D01*
X700Y742D02*
X704Y742D01*
X718Y742D02*
X723Y742D01*
X748Y742D02*
X753Y742D01*
X759Y742D02*
X764Y742D01*
X0Y741D02*
X7Y741D01*
X295Y741D02*
X299Y741D01*
X484Y741D02*
X491Y741D01*
X516Y741D02*
X523Y741D01*
X590Y741D02*
X596Y741D01*
X607Y741D02*
X613Y741D01*
X699Y741D02*
X704Y741D01*
X718Y741D02*
X723Y741D01*
X748Y741D02*
X753Y741D01*
X759Y741D02*
X764Y741D01*
X0Y740D02*
X7Y740D01*
X295Y740D02*
X299Y740D01*
X485Y740D02*
X491Y740D01*
X516Y740D02*
X522Y740D01*
X590Y740D02*
X596Y740D01*
X607Y740D02*
X613Y740D01*
X699Y740D02*
X704Y740D01*
X718Y740D02*
X723Y740D01*
X748Y740D02*
X753Y740D01*
X759Y740D02*
X764Y740D01*
X0Y739D02*
X7Y739D01*
X295Y739D02*
X299Y739D01*
X485Y739D02*
X492Y739D01*
X515Y739D02*
X522Y739D01*
X590Y739D02*
X596Y739D01*
X607Y739D02*
X613Y739D01*
X699Y739D02*
X704Y739D01*
X719Y739D02*
X723Y739D01*
X748Y739D02*
X753Y739D01*
X759Y739D02*
X764Y739D01*
X0Y738D02*
X7Y738D01*
X295Y738D02*
X299Y738D01*
X485Y738D02*
X493Y738D01*
X514Y738D02*
X522Y738D01*
X590Y738D02*
X596Y738D01*
X607Y738D02*
X613Y738D01*
X698Y738D02*
X703Y738D01*
X719Y738D02*
X724Y738D01*
X739Y738D02*
X764Y738D01*
X0Y737D02*
X7Y737D01*
X295Y737D02*
X299Y737D01*
X486Y737D02*
X494Y737D01*
X513Y737D02*
X521Y737D01*
X590Y737D02*
X596Y737D01*
X607Y737D02*
X613Y737D01*
X698Y737D02*
X703Y737D01*
X719Y737D02*
X724Y737D01*
X738Y737D02*
X764Y737D01*
X0Y736D02*
X7Y736D01*
X295Y736D02*
X299Y736D01*
X486Y736D02*
X495Y736D01*
X512Y736D02*
X521Y736D01*
X590Y736D02*
X596Y736D01*
X607Y736D02*
X613Y736D01*
X698Y736D02*
X703Y736D01*
X720Y736D02*
X724Y736D01*
X738Y736D02*
X764Y736D01*
X0Y735D02*
X7Y735D01*
X295Y735D02*
X299Y735D01*
X487Y735D02*
X496Y735D01*
X512Y735D02*
X520Y735D01*
X590Y735D02*
X596Y735D01*
X607Y735D02*
X613Y735D01*
X698Y735D02*
X702Y735D01*
X720Y735D02*
X724Y735D01*
X738Y735D02*
X764Y735D01*
X0Y734D02*
X7Y734D01*
X296Y734D02*
X299Y734D01*
X488Y734D02*
X497Y734D01*
X511Y734D02*
X519Y734D01*
X590Y734D02*
X596Y734D01*
X607Y734D02*
X613Y734D01*
X699Y734D02*
X702Y734D01*
X721Y734D02*
X724Y734D01*
X738Y734D02*
X763Y734D01*
X0Y733D02*
X7Y733D01*
X489Y733D02*
X518Y733D01*
X590Y733D02*
X596Y733D01*
X607Y733D02*
X613Y733D01*
X0Y732D02*
X7Y732D01*
X490Y732D02*
X517Y732D01*
X590Y732D02*
X596Y732D01*
X607Y732D02*
X613Y732D01*
X0Y731D02*
X7Y731D01*
X491Y731D02*
X516Y731D01*
X590Y731D02*
X596Y731D01*
X607Y731D02*
X613Y731D01*
X0Y730D02*
X7Y730D01*
X492Y730D02*
X515Y730D01*
X590Y730D02*
X613Y730D01*
X0Y729D02*
X7Y729D01*
X493Y729D02*
X514Y729D01*
X590Y729D02*
X613Y729D01*
X0Y728D02*
X7Y728D01*
X494Y728D02*
X513Y728D01*
X590Y728D02*
X613Y728D01*
X0Y727D02*
X7Y727D01*
X495Y727D02*
X512Y727D01*
X590Y727D02*
X613Y727D01*
X1755Y727D02*
X1762Y727D01*
X0Y726D02*
X7Y726D01*
X590Y726D02*
X613Y726D01*
X1755Y726D02*
X1762Y726D01*
X0Y725D02*
X7Y725D01*
X590Y725D02*
X613Y725D01*
X1755Y725D02*
X1762Y725D01*
X0Y724D02*
X7Y724D01*
X591Y724D02*
X612Y724D01*
X1755Y724D02*
X1762Y724D01*
X0Y723D02*
X7Y723D01*
X1755Y723D02*
X1762Y723D01*
X0Y722D02*
X7Y722D01*
X1755Y722D02*
X1762Y722D01*
X0Y721D02*
X7Y721D01*
X1755Y721D02*
X1762Y721D01*
X0Y720D02*
X7Y720D01*
X1755Y720D02*
X1762Y720D01*
X0Y719D02*
X7Y719D01*
X1755Y719D02*
X1762Y719D01*
X0Y718D02*
X7Y718D01*
X1755Y718D02*
X1762Y718D01*
X0Y717D02*
X7Y717D01*
X1755Y717D02*
X1762Y717D01*
X0Y716D02*
X7Y716D01*
X1755Y716D02*
X1762Y716D01*
X0Y715D02*
X7Y715D01*
X1755Y715D02*
X1762Y715D01*
X0Y714D02*
X7Y714D01*
X1755Y714D02*
X1762Y714D01*
X0Y713D02*
X7Y713D01*
X1755Y713D02*
X1762Y713D01*
X0Y712D02*
X7Y712D01*
X1755Y712D02*
X1762Y712D01*
X0Y711D02*
X7Y711D01*
X1755Y711D02*
X1762Y711D01*
X0Y710D02*
X7Y710D01*
X1755Y710D02*
X1762Y710D01*
X0Y709D02*
X7Y709D01*
X1755Y709D02*
X1762Y709D01*
X0Y708D02*
X7Y708D01*
X1755Y708D02*
X1762Y708D01*
X0Y707D02*
X7Y707D01*
X520Y707D02*
X520Y707D01*
X1755Y707D02*
X1762Y707D01*
X0Y706D02*
X7Y706D01*
X518Y706D02*
X522Y706D01*
X1755Y706D02*
X1762Y706D01*
X0Y705D02*
X7Y705D01*
X517Y705D02*
X522Y705D01*
X1755Y705D02*
X1762Y705D01*
X0Y704D02*
X7Y704D01*
X517Y704D02*
X523Y704D01*
X1755Y704D02*
X1762Y704D01*
X0Y703D02*
X7Y703D01*
X517Y703D02*
X523Y703D01*
X1755Y703D02*
X1762Y703D01*
X0Y702D02*
X7Y702D01*
X517Y702D02*
X523Y702D01*
X1755Y702D02*
X1762Y702D01*
X0Y701D02*
X7Y701D01*
X517Y701D02*
X523Y701D01*
X1755Y701D02*
X1762Y701D01*
X0Y700D02*
X7Y700D01*
X517Y700D02*
X523Y700D01*
X1755Y700D02*
X1762Y700D01*
X0Y699D02*
X7Y699D01*
X517Y699D02*
X523Y699D01*
X1755Y699D02*
X1762Y699D01*
X0Y698D02*
X7Y698D01*
X517Y698D02*
X523Y698D01*
X1755Y698D02*
X1762Y698D01*
X0Y697D02*
X7Y697D01*
X517Y697D02*
X523Y697D01*
X1755Y697D02*
X1762Y697D01*
X0Y696D02*
X7Y696D01*
X468Y696D02*
X474Y696D01*
X486Y696D02*
X523Y696D01*
X1755Y696D02*
X1762Y696D01*
X0Y695D02*
X7Y695D01*
X467Y695D02*
X475Y695D01*
X485Y695D02*
X523Y695D01*
X1755Y695D02*
X1762Y695D01*
X0Y694D02*
X7Y694D01*
X467Y694D02*
X475Y694D01*
X484Y694D02*
X523Y694D01*
X1755Y694D02*
X1762Y694D01*
X0Y693D02*
X7Y693D01*
X467Y693D02*
X476Y693D01*
X484Y693D02*
X523Y693D01*
X0Y692D02*
X7Y692D01*
X467Y692D02*
X476Y692D01*
X484Y692D02*
X523Y692D01*
X0Y691D02*
X7Y691D01*
X467Y691D02*
X476Y691D01*
X484Y691D02*
X523Y691D01*
X0Y690D02*
X7Y690D01*
X467Y690D02*
X476Y690D01*
X484Y690D02*
X523Y690D01*
X0Y689D02*
X7Y689D01*
X467Y689D02*
X475Y689D01*
X484Y689D02*
X490Y689D01*
X517Y689D02*
X523Y689D01*
X0Y688D02*
X7Y688D01*
X467Y688D02*
X475Y688D01*
X484Y688D02*
X490Y688D01*
X517Y688D02*
X523Y688D01*
X0Y687D02*
X7Y687D01*
X468Y687D02*
X474Y687D01*
X484Y687D02*
X490Y687D01*
X517Y687D02*
X523Y687D01*
X0Y686D02*
X7Y686D01*
X484Y686D02*
X490Y686D01*
X517Y686D02*
X523Y686D01*
X0Y685D02*
X7Y685D01*
X484Y685D02*
X490Y685D01*
X517Y685D02*
X523Y685D01*
X0Y684D02*
X7Y684D01*
X484Y684D02*
X490Y684D01*
X517Y684D02*
X523Y684D01*
X0Y683D02*
X7Y683D01*
X484Y683D02*
X490Y683D01*
X517Y683D02*
X523Y683D01*
X0Y682D02*
X7Y682D01*
X485Y682D02*
X490Y682D01*
X517Y682D02*
X523Y682D01*
X0Y681D02*
X7Y681D01*
X485Y681D02*
X490Y681D01*
X517Y681D02*
X522Y681D01*
X0Y680D02*
X7Y680D01*
X486Y680D02*
X489Y680D01*
X518Y680D02*
X521Y680D01*
X0Y679D02*
X7Y679D01*
X0Y678D02*
X7Y678D01*
X0Y677D02*
X7Y677D01*
X0Y676D02*
X7Y676D01*
X0Y675D02*
X7Y675D01*
X283Y675D02*
X303Y675D01*
X710Y675D02*
X713Y675D01*
X740Y675D02*
X761Y675D01*
X0Y674D02*
X7Y674D01*
X283Y674D02*
X303Y674D01*
X709Y674D02*
X713Y674D01*
X739Y674D02*
X762Y674D01*
X0Y673D02*
X7Y673D01*
X283Y673D02*
X304Y673D01*
X709Y673D02*
X714Y673D01*
X738Y673D02*
X763Y673D01*
X1755Y673D02*
X1762Y673D01*
X0Y672D02*
X7Y672D01*
X283Y672D02*
X303Y672D01*
X708Y672D02*
X714Y672D01*
X738Y672D02*
X764Y672D01*
X1755Y672D02*
X1762Y672D01*
X0Y671D02*
X7Y671D01*
X283Y671D02*
X302Y671D01*
X708Y671D02*
X714Y671D01*
X738Y671D02*
X764Y671D01*
X1755Y671D02*
X1762Y671D01*
X0Y670D02*
X7Y670D01*
X283Y670D02*
X287Y670D01*
X708Y670D02*
X714Y670D01*
X738Y670D02*
X742Y670D01*
X759Y670D02*
X764Y670D01*
X1755Y670D02*
X1762Y670D01*
X0Y669D02*
X7Y669D01*
X283Y669D02*
X287Y669D01*
X707Y669D02*
X715Y669D01*
X738Y669D02*
X742Y669D01*
X759Y669D02*
X764Y669D01*
X1755Y669D02*
X1762Y669D01*
X0Y668D02*
X7Y668D01*
X283Y668D02*
X287Y668D01*
X707Y668D02*
X715Y668D01*
X738Y668D02*
X742Y668D01*
X759Y668D02*
X764Y668D01*
X1755Y668D02*
X1762Y668D01*
X0Y667D02*
X7Y667D01*
X283Y667D02*
X287Y667D01*
X707Y667D02*
X715Y667D01*
X738Y667D02*
X742Y667D01*
X759Y667D02*
X764Y667D01*
X1755Y667D02*
X1762Y667D01*
X0Y666D02*
X7Y666D01*
X283Y666D02*
X287Y666D01*
X707Y666D02*
X716Y666D01*
X738Y666D02*
X742Y666D01*
X759Y666D02*
X764Y666D01*
X1755Y666D02*
X1762Y666D01*
X0Y665D02*
X7Y665D01*
X283Y665D02*
X287Y665D01*
X706Y665D02*
X716Y665D01*
X738Y665D02*
X742Y665D01*
X759Y665D02*
X764Y665D01*
X1755Y665D02*
X1762Y665D01*
X0Y664D02*
X7Y664D01*
X283Y664D02*
X287Y664D01*
X706Y664D02*
X716Y664D01*
X738Y664D02*
X742Y664D01*
X759Y664D02*
X764Y664D01*
X1755Y664D02*
X1762Y664D01*
X0Y663D02*
X7Y663D01*
X283Y663D02*
X287Y663D01*
X706Y663D02*
X716Y663D01*
X738Y663D02*
X742Y663D01*
X759Y663D02*
X764Y663D01*
X1755Y663D02*
X1762Y663D01*
X0Y662D02*
X7Y662D01*
X283Y662D02*
X287Y662D01*
X705Y662D02*
X710Y662D01*
X712Y662D02*
X717Y662D01*
X738Y662D02*
X742Y662D01*
X759Y662D02*
X764Y662D01*
X1755Y662D02*
X1762Y662D01*
X0Y661D02*
X7Y661D01*
X283Y661D02*
X287Y661D01*
X705Y661D02*
X710Y661D01*
X712Y661D02*
X717Y661D01*
X738Y661D02*
X742Y661D01*
X759Y661D02*
X764Y661D01*
X1755Y661D02*
X1762Y661D01*
X0Y660D02*
X7Y660D01*
X283Y660D02*
X287Y660D01*
X470Y660D02*
X521Y660D01*
X705Y660D02*
X710Y660D01*
X713Y660D02*
X717Y660D01*
X738Y660D02*
X742Y660D01*
X759Y660D02*
X764Y660D01*
X1755Y660D02*
X1762Y660D01*
X0Y659D02*
X7Y659D01*
X283Y659D02*
X287Y659D01*
X470Y659D02*
X522Y659D01*
X705Y659D02*
X709Y659D01*
X713Y659D02*
X718Y659D01*
X738Y659D02*
X742Y659D01*
X759Y659D02*
X764Y659D01*
X1755Y659D02*
X1762Y659D01*
X0Y658D02*
X7Y658D01*
X283Y658D02*
X287Y658D01*
X470Y658D02*
X523Y658D01*
X704Y658D02*
X709Y658D01*
X713Y658D02*
X718Y658D01*
X738Y658D02*
X742Y658D01*
X759Y658D02*
X764Y658D01*
X1755Y658D02*
X1762Y658D01*
X0Y657D02*
X7Y657D01*
X283Y657D02*
X300Y657D01*
X470Y657D02*
X523Y657D01*
X704Y657D02*
X709Y657D01*
X713Y657D02*
X718Y657D01*
X738Y657D02*
X742Y657D01*
X759Y657D02*
X764Y657D01*
X1755Y657D02*
X1762Y657D01*
X0Y656D02*
X7Y656D01*
X283Y656D02*
X301Y656D01*
X470Y656D02*
X523Y656D01*
X704Y656D02*
X708Y656D01*
X714Y656D02*
X719Y656D01*
X738Y656D02*
X742Y656D01*
X759Y656D02*
X764Y656D01*
X1755Y656D02*
X1762Y656D01*
X0Y655D02*
X7Y655D01*
X283Y655D02*
X302Y655D01*
X470Y655D02*
X522Y655D01*
X703Y655D02*
X708Y655D01*
X714Y655D02*
X719Y655D01*
X738Y655D02*
X742Y655D01*
X759Y655D02*
X764Y655D01*
X1755Y655D02*
X1762Y655D01*
X0Y654D02*
X7Y654D01*
X283Y654D02*
X303Y654D01*
X470Y654D02*
X521Y654D01*
X703Y654D02*
X708Y654D01*
X714Y654D02*
X719Y654D01*
X738Y654D02*
X742Y654D01*
X759Y654D02*
X764Y654D01*
X1755Y654D02*
X1762Y654D01*
X0Y653D02*
X7Y653D01*
X283Y653D02*
X303Y653D01*
X470Y653D02*
X479Y653D01*
X703Y653D02*
X708Y653D01*
X715Y653D02*
X719Y653D01*
X738Y653D02*
X742Y653D01*
X759Y653D02*
X764Y653D01*
X1755Y653D02*
X1762Y653D01*
X0Y652D02*
X7Y652D01*
X283Y652D02*
X304Y652D01*
X320Y652D02*
X324Y652D01*
X470Y652D02*
X481Y652D01*
X702Y652D02*
X707Y652D01*
X715Y652D02*
X720Y652D01*
X738Y652D02*
X742Y652D01*
X759Y652D02*
X764Y652D01*
X1755Y652D02*
X1762Y652D01*
X0Y651D02*
X7Y651D01*
X299Y651D02*
X304Y651D01*
X318Y651D02*
X325Y651D01*
X471Y651D02*
X482Y651D01*
X702Y651D02*
X707Y651D01*
X715Y651D02*
X720Y651D01*
X738Y651D02*
X742Y651D01*
X759Y651D02*
X764Y651D01*
X1755Y651D02*
X1762Y651D01*
X0Y650D02*
X7Y650D01*
X299Y650D02*
X304Y650D01*
X317Y650D02*
X320Y650D01*
X324Y650D02*
X326Y650D01*
X336Y650D02*
X337Y650D01*
X472Y650D02*
X483Y650D01*
X702Y650D02*
X707Y650D01*
X715Y650D02*
X720Y650D01*
X738Y650D02*
X742Y650D01*
X759Y650D02*
X764Y650D01*
X1755Y650D02*
X1762Y650D01*
X0Y649D02*
X7Y649D01*
X299Y649D02*
X304Y649D01*
X316Y649D02*
X319Y649D01*
X325Y649D02*
X328Y649D01*
X335Y649D02*
X337Y649D01*
X474Y649D02*
X485Y649D01*
X702Y649D02*
X706Y649D01*
X716Y649D02*
X721Y649D01*
X738Y649D02*
X742Y649D01*
X759Y649D02*
X764Y649D01*
X1755Y649D02*
X1762Y649D01*
X0Y648D02*
X7Y648D01*
X299Y648D02*
X304Y648D01*
X316Y648D02*
X318Y648D01*
X326Y648D02*
X329Y648D01*
X334Y648D02*
X336Y648D01*
X475Y648D02*
X486Y648D01*
X701Y648D02*
X707Y648D01*
X716Y648D02*
X721Y648D01*
X738Y648D02*
X742Y648D01*
X759Y648D02*
X764Y648D01*
X1755Y648D02*
X1762Y648D01*
X0Y647D02*
X7Y647D01*
X299Y647D02*
X304Y647D01*
X316Y647D02*
X317Y647D01*
X327Y647D02*
X335Y647D01*
X476Y647D02*
X488Y647D01*
X701Y647D02*
X721Y647D01*
X738Y647D02*
X742Y647D01*
X759Y647D02*
X764Y647D01*
X1755Y647D02*
X1762Y647D01*
X0Y646D02*
X7Y646D01*
X299Y646D02*
X304Y646D01*
X329Y646D02*
X334Y646D01*
X478Y646D02*
X492Y646D01*
X701Y646D02*
X721Y646D01*
X738Y646D02*
X742Y646D01*
X759Y646D02*
X764Y646D01*
X1755Y646D02*
X1762Y646D01*
X0Y645D02*
X7Y645D01*
X299Y645D02*
X304Y645D01*
X330Y645D02*
X332Y645D01*
X479Y645D02*
X493Y645D01*
X700Y645D02*
X722Y645D01*
X738Y645D02*
X742Y645D01*
X759Y645D02*
X764Y645D01*
X1755Y645D02*
X1762Y645D01*
X0Y644D02*
X7Y644D01*
X299Y644D02*
X304Y644D01*
X481Y644D02*
X493Y644D01*
X700Y644D02*
X722Y644D01*
X738Y644D02*
X742Y644D01*
X759Y644D02*
X764Y644D01*
X1755Y644D02*
X1762Y644D01*
X0Y643D02*
X7Y643D01*
X299Y643D02*
X304Y643D01*
X481Y643D02*
X493Y643D01*
X700Y643D02*
X722Y643D01*
X738Y643D02*
X742Y643D01*
X759Y643D02*
X764Y643D01*
X1755Y643D02*
X1762Y643D01*
X0Y642D02*
X7Y642D01*
X299Y642D02*
X304Y642D01*
X480Y642D02*
X493Y642D01*
X700Y642D02*
X704Y642D01*
X718Y642D02*
X723Y642D01*
X738Y642D02*
X742Y642D01*
X759Y642D02*
X764Y642D01*
X1755Y642D02*
X1762Y642D01*
X0Y641D02*
X7Y641D01*
X299Y641D02*
X304Y641D01*
X478Y641D02*
X492Y641D01*
X699Y641D02*
X704Y641D01*
X718Y641D02*
X723Y641D01*
X738Y641D02*
X742Y641D01*
X759Y641D02*
X764Y641D01*
X1755Y641D02*
X1762Y641D01*
X0Y640D02*
X7Y640D01*
X278Y640D02*
X282Y640D01*
X299Y640D02*
X304Y640D01*
X477Y640D02*
X491Y640D01*
X699Y640D02*
X704Y640D01*
X718Y640D02*
X723Y640D01*
X738Y640D02*
X742Y640D01*
X759Y640D02*
X764Y640D01*
X1755Y640D02*
X1762Y640D01*
X0Y639D02*
X7Y639D01*
X277Y639D02*
X284Y639D01*
X299Y639D02*
X304Y639D01*
X476Y639D02*
X487Y639D01*
X699Y639D02*
X703Y639D01*
X719Y639D02*
X723Y639D01*
X738Y639D02*
X742Y639D01*
X759Y639D02*
X764Y639D01*
X0Y638D02*
X7Y638D01*
X277Y638D02*
X303Y638D01*
X474Y638D02*
X485Y638D01*
X698Y638D02*
X703Y638D01*
X719Y638D02*
X724Y638D01*
X738Y638D02*
X764Y638D01*
X0Y637D02*
X7Y637D01*
X277Y637D02*
X303Y637D01*
X473Y637D02*
X484Y637D01*
X698Y637D02*
X703Y637D01*
X719Y637D02*
X724Y637D01*
X738Y637D02*
X764Y637D01*
X0Y636D02*
X7Y636D01*
X278Y636D02*
X303Y636D01*
X471Y636D02*
X483Y636D01*
X698Y636D02*
X703Y636D01*
X720Y636D02*
X724Y636D01*
X738Y636D02*
X763Y636D01*
X0Y635D02*
X7Y635D01*
X280Y635D02*
X302Y635D01*
X470Y635D02*
X481Y635D01*
X698Y635D02*
X702Y635D01*
X720Y635D02*
X724Y635D01*
X739Y635D02*
X762Y635D01*
X0Y634D02*
X7Y634D01*
X282Y634D02*
X301Y634D01*
X470Y634D02*
X480Y634D01*
X699Y634D02*
X702Y634D01*
X721Y634D02*
X724Y634D01*
X740Y634D02*
X761Y634D01*
X0Y633D02*
X7Y633D01*
X470Y633D02*
X520Y633D01*
X0Y632D02*
X7Y632D01*
X470Y632D02*
X522Y632D01*
X0Y631D02*
X7Y631D01*
X470Y631D02*
X522Y631D01*
X0Y630D02*
X7Y630D01*
X470Y630D02*
X523Y630D01*
X0Y629D02*
X7Y629D01*
X470Y629D02*
X523Y629D01*
X0Y628D02*
X7Y628D01*
X470Y628D02*
X522Y628D01*
X0Y627D02*
X7Y627D01*
X470Y627D02*
X522Y627D01*
X0Y626D02*
X7Y626D01*
X0Y625D02*
X7Y625D01*
X0Y624D02*
X7Y624D01*
X0Y623D02*
X7Y623D01*
X0Y622D02*
X7Y622D01*
X0Y621D02*
X7Y621D01*
X0Y620D02*
X7Y620D01*
X0Y619D02*
X7Y619D01*
X1755Y619D02*
X1762Y619D01*
X0Y618D02*
X7Y618D01*
X1755Y618D02*
X1762Y618D01*
X0Y617D02*
X7Y617D01*
X1755Y617D02*
X1762Y617D01*
X0Y616D02*
X7Y616D01*
X1755Y616D02*
X1762Y616D01*
X0Y615D02*
X7Y615D01*
X1755Y615D02*
X1762Y615D01*
X0Y614D02*
X7Y614D01*
X1755Y614D02*
X1762Y614D01*
X0Y613D02*
X7Y613D01*
X1755Y613D02*
X1762Y613D01*
X0Y612D02*
X7Y612D01*
X1755Y612D02*
X1762Y612D01*
X0Y611D02*
X7Y611D01*
X1755Y611D02*
X1762Y611D01*
X0Y610D02*
X7Y610D01*
X1755Y610D02*
X1762Y610D01*
X0Y609D02*
X7Y609D01*
X1755Y609D02*
X1762Y609D01*
X0Y608D02*
X7Y608D01*
X1755Y608D02*
X1762Y608D01*
X0Y607D02*
X7Y607D01*
X1755Y607D02*
X1762Y607D01*
X0Y606D02*
X7Y606D01*
X1755Y606D02*
X1762Y606D01*
X0Y605D02*
X7Y605D01*
X1755Y605D02*
X1762Y605D01*
X0Y604D02*
X7Y604D01*
X1755Y604D02*
X1762Y604D01*
X0Y603D02*
X7Y603D01*
X1755Y603D02*
X1762Y603D01*
X0Y602D02*
X7Y602D01*
X1755Y602D02*
X1762Y602D01*
X0Y601D02*
X7Y601D01*
X1755Y601D02*
X1762Y601D01*
X0Y600D02*
X7Y600D01*
X1755Y600D02*
X1762Y600D01*
X0Y599D02*
X7Y599D01*
X1755Y599D02*
X1762Y599D01*
X0Y598D02*
X7Y598D01*
X1755Y598D02*
X1762Y598D01*
X0Y597D02*
X7Y597D01*
X1755Y597D02*
X1762Y597D01*
X0Y596D02*
X7Y596D01*
X1755Y596D02*
X1762Y596D01*
X0Y595D02*
X7Y595D01*
X1755Y595D02*
X1762Y595D01*
X0Y594D02*
X7Y594D01*
X1755Y594D02*
X1762Y594D01*
X0Y593D02*
X7Y593D01*
X1755Y593D02*
X1762Y593D01*
X0Y592D02*
X7Y592D01*
X1755Y592D02*
X1762Y592D01*
X0Y591D02*
X7Y591D01*
X1755Y591D02*
X1762Y591D01*
X0Y590D02*
X7Y590D01*
X1755Y590D02*
X1762Y590D01*
X0Y589D02*
X7Y589D01*
X1755Y589D02*
X1762Y589D01*
X0Y588D02*
X7Y588D01*
X1755Y588D02*
X1762Y588D01*
X0Y587D02*
X7Y587D01*
X1755Y587D02*
X1762Y587D01*
X0Y586D02*
X7Y586D01*
X1755Y586D02*
X1762Y586D01*
X0Y585D02*
X7Y585D01*
X0Y584D02*
X7Y584D01*
X0Y583D02*
X7Y583D01*
X0Y582D02*
X7Y582D01*
X0Y581D02*
X7Y581D01*
X0Y580D02*
X7Y580D01*
X0Y579D02*
X7Y579D01*
X0Y578D02*
X7Y578D01*
X0Y577D02*
X7Y577D01*
X0Y576D02*
X7Y576D01*
X280Y576D02*
X282Y576D01*
X701Y576D02*
X713Y576D01*
X743Y576D02*
X761Y576D01*
X0Y575D02*
X7Y575D01*
X278Y575D02*
X284Y575D01*
X699Y575D02*
X713Y575D01*
X743Y575D02*
X763Y575D01*
X0Y574D02*
X7Y574D01*
X277Y574D02*
X284Y574D01*
X698Y574D02*
X713Y574D01*
X743Y574D02*
X764Y574D01*
X0Y573D02*
X7Y573D01*
X277Y573D02*
X284Y573D01*
X698Y573D02*
X713Y573D01*
X743Y573D02*
X764Y573D01*
X0Y572D02*
X7Y572D01*
X277Y572D02*
X284Y572D01*
X698Y572D02*
X713Y572D01*
X743Y572D02*
X764Y572D01*
X0Y571D02*
X7Y571D01*
X277Y571D02*
X283Y571D01*
X699Y571D02*
X713Y571D01*
X743Y571D02*
X763Y571D01*
X0Y570D02*
X7Y570D01*
X277Y570D02*
X282Y570D01*
X709Y570D02*
X713Y570D01*
X743Y570D02*
X748Y570D01*
X0Y569D02*
X7Y569D01*
X277Y569D02*
X282Y569D01*
X709Y569D02*
X713Y569D01*
X743Y569D02*
X748Y569D01*
X0Y568D02*
X7Y568D01*
X277Y568D02*
X282Y568D01*
X709Y568D02*
X713Y568D01*
X743Y568D02*
X748Y568D01*
X0Y567D02*
X7Y567D01*
X277Y567D02*
X282Y567D01*
X709Y567D02*
X713Y567D01*
X743Y567D02*
X748Y567D01*
X0Y566D02*
X7Y566D01*
X277Y566D02*
X282Y566D01*
X709Y566D02*
X713Y566D01*
X743Y566D02*
X748Y566D01*
X0Y565D02*
X7Y565D01*
X277Y565D02*
X282Y565D01*
X709Y565D02*
X713Y565D01*
X743Y565D02*
X748Y565D01*
X1755Y565D02*
X1762Y565D01*
X0Y564D02*
X7Y564D01*
X277Y564D02*
X282Y564D01*
X709Y564D02*
X713Y564D01*
X743Y564D02*
X748Y564D01*
X1755Y564D02*
X1762Y564D01*
X0Y563D02*
X7Y563D01*
X277Y563D02*
X282Y563D01*
X709Y563D02*
X713Y563D01*
X743Y563D02*
X748Y563D01*
X1755Y563D02*
X1762Y563D01*
X0Y562D02*
X7Y562D01*
X277Y562D02*
X282Y562D01*
X709Y562D02*
X713Y562D01*
X743Y562D02*
X748Y562D01*
X1755Y562D02*
X1762Y562D01*
X0Y561D02*
X7Y561D01*
X277Y561D02*
X282Y561D01*
X709Y561D02*
X713Y561D01*
X743Y561D02*
X748Y561D01*
X1755Y561D02*
X1762Y561D01*
X0Y560D02*
X7Y560D01*
X277Y560D02*
X282Y560D01*
X493Y560D02*
X514Y560D01*
X709Y560D02*
X713Y560D01*
X743Y560D02*
X748Y560D01*
X1755Y560D02*
X1762Y560D01*
X0Y559D02*
X7Y559D01*
X277Y559D02*
X282Y559D01*
X491Y559D02*
X516Y559D01*
X709Y559D02*
X713Y559D01*
X743Y559D02*
X748Y559D01*
X1755Y559D02*
X1762Y559D01*
X0Y558D02*
X7Y558D01*
X277Y558D02*
X282Y558D01*
X490Y558D02*
X517Y558D01*
X709Y558D02*
X713Y558D01*
X743Y558D02*
X748Y558D01*
X1755Y558D02*
X1762Y558D01*
X0Y557D02*
X7Y557D01*
X277Y557D02*
X282Y557D01*
X489Y557D02*
X518Y557D01*
X709Y557D02*
X713Y557D01*
X743Y557D02*
X760Y557D01*
X1755Y557D02*
X1762Y557D01*
X0Y556D02*
X7Y556D01*
X277Y556D02*
X282Y556D01*
X488Y556D02*
X519Y556D01*
X709Y556D02*
X713Y556D01*
X743Y556D02*
X762Y556D01*
X1755Y556D02*
X1762Y556D01*
X0Y555D02*
X7Y555D01*
X277Y555D02*
X282Y555D01*
X487Y555D02*
X520Y555D01*
X709Y555D02*
X713Y555D01*
X743Y555D02*
X763Y555D01*
X1755Y555D02*
X1762Y555D01*
X0Y554D02*
X7Y554D01*
X277Y554D02*
X282Y554D01*
X486Y554D02*
X521Y554D01*
X709Y554D02*
X713Y554D01*
X743Y554D02*
X763Y554D01*
X1755Y554D02*
X1762Y554D01*
X0Y553D02*
X7Y553D01*
X277Y553D02*
X282Y553D01*
X486Y553D02*
X494Y553D01*
X513Y553D02*
X521Y553D01*
X709Y553D02*
X713Y553D01*
X743Y553D02*
X764Y553D01*
X1755Y553D02*
X1762Y553D01*
X0Y552D02*
X7Y552D01*
X277Y552D02*
X303Y552D01*
X320Y552D02*
X324Y552D01*
X485Y552D02*
X493Y552D01*
X514Y552D02*
X522Y552D01*
X709Y552D02*
X713Y552D01*
X721Y552D02*
X723Y552D01*
X743Y552D02*
X764Y552D01*
X1755Y552D02*
X1762Y552D01*
X0Y551D02*
X7Y551D01*
X277Y551D02*
X303Y551D01*
X318Y551D02*
X325Y551D01*
X485Y551D02*
X492Y551D01*
X515Y551D02*
X522Y551D01*
X709Y551D02*
X713Y551D01*
X720Y551D02*
X724Y551D01*
X759Y551D02*
X764Y551D01*
X1755Y551D02*
X1762Y551D01*
X0Y550D02*
X7Y550D01*
X277Y550D02*
X304Y550D01*
X317Y550D02*
X320Y550D01*
X324Y550D02*
X326Y550D01*
X336Y550D02*
X337Y550D01*
X485Y550D02*
X491Y550D01*
X516Y550D02*
X522Y550D01*
X709Y550D02*
X713Y550D01*
X720Y550D02*
X724Y550D01*
X759Y550D02*
X764Y550D01*
X1755Y550D02*
X1762Y550D01*
X0Y549D02*
X7Y549D01*
X277Y549D02*
X304Y549D01*
X316Y549D02*
X319Y549D01*
X325Y549D02*
X328Y549D01*
X335Y549D02*
X337Y549D01*
X484Y549D02*
X491Y549D01*
X516Y549D02*
X523Y549D01*
X709Y549D02*
X713Y549D01*
X720Y549D02*
X724Y549D01*
X759Y549D02*
X764Y549D01*
X1755Y549D02*
X1762Y549D01*
X0Y548D02*
X7Y548D01*
X277Y548D02*
X304Y548D01*
X316Y548D02*
X317Y548D01*
X326Y548D02*
X329Y548D01*
X334Y548D02*
X336Y548D01*
X484Y548D02*
X490Y548D01*
X517Y548D02*
X523Y548D01*
X709Y548D02*
X713Y548D01*
X720Y548D02*
X724Y548D01*
X759Y548D02*
X764Y548D01*
X1755Y548D02*
X1762Y548D01*
X0Y547D02*
X7Y547D01*
X277Y547D02*
X282Y547D01*
X299Y547D02*
X304Y547D01*
X316Y547D02*
X316Y547D01*
X328Y547D02*
X335Y547D01*
X484Y547D02*
X490Y547D01*
X517Y547D02*
X523Y547D01*
X709Y547D02*
X713Y547D01*
X720Y547D02*
X724Y547D01*
X759Y547D02*
X764Y547D01*
X1755Y547D02*
X1762Y547D01*
X0Y546D02*
X7Y546D01*
X277Y546D02*
X282Y546D01*
X299Y546D02*
X304Y546D01*
X329Y546D02*
X334Y546D01*
X484Y546D02*
X490Y546D01*
X517Y546D02*
X523Y546D01*
X709Y546D02*
X713Y546D01*
X720Y546D02*
X724Y546D01*
X759Y546D02*
X764Y546D01*
X1755Y546D02*
X1762Y546D01*
X0Y545D02*
X7Y545D01*
X277Y545D02*
X282Y545D01*
X299Y545D02*
X304Y545D01*
X331Y545D02*
X332Y545D01*
X484Y545D02*
X490Y545D01*
X517Y545D02*
X523Y545D01*
X709Y545D02*
X713Y545D01*
X720Y545D02*
X724Y545D01*
X759Y545D02*
X764Y545D01*
X1755Y545D02*
X1762Y545D01*
X0Y544D02*
X7Y544D01*
X277Y544D02*
X282Y544D01*
X299Y544D02*
X304Y544D01*
X484Y544D02*
X490Y544D01*
X517Y544D02*
X523Y544D01*
X709Y544D02*
X713Y544D01*
X720Y544D02*
X724Y544D01*
X759Y544D02*
X764Y544D01*
X1755Y544D02*
X1762Y544D01*
X0Y543D02*
X7Y543D01*
X277Y543D02*
X282Y543D01*
X299Y543D02*
X304Y543D01*
X484Y543D02*
X490Y543D01*
X517Y543D02*
X523Y543D01*
X709Y543D02*
X713Y543D01*
X720Y543D02*
X724Y543D01*
X759Y543D02*
X764Y543D01*
X1755Y543D02*
X1762Y543D01*
X0Y542D02*
X7Y542D01*
X277Y542D02*
X282Y542D01*
X299Y542D02*
X304Y542D01*
X484Y542D02*
X490Y542D01*
X517Y542D02*
X523Y542D01*
X709Y542D02*
X713Y542D01*
X720Y542D02*
X724Y542D01*
X759Y542D02*
X764Y542D01*
X1755Y542D02*
X1762Y542D01*
X0Y541D02*
X7Y541D01*
X277Y541D02*
X282Y541D01*
X299Y541D02*
X304Y541D01*
X484Y541D02*
X490Y541D01*
X517Y541D02*
X523Y541D01*
X709Y541D02*
X713Y541D01*
X720Y541D02*
X724Y541D01*
X759Y541D02*
X764Y541D01*
X1755Y541D02*
X1762Y541D01*
X0Y540D02*
X7Y540D01*
X277Y540D02*
X282Y540D01*
X299Y540D02*
X304Y540D01*
X484Y540D02*
X490Y540D01*
X517Y540D02*
X523Y540D01*
X709Y540D02*
X713Y540D01*
X720Y540D02*
X724Y540D01*
X738Y540D02*
X742Y540D01*
X759Y540D02*
X764Y540D01*
X1755Y540D02*
X1762Y540D01*
X0Y539D02*
X7Y539D01*
X277Y539D02*
X282Y539D01*
X299Y539D02*
X304Y539D01*
X484Y539D02*
X490Y539D01*
X517Y539D02*
X523Y539D01*
X709Y539D02*
X714Y539D01*
X720Y539D02*
X724Y539D01*
X738Y539D02*
X745Y539D01*
X759Y539D02*
X764Y539D01*
X1755Y539D02*
X1762Y539D01*
X0Y538D02*
X7Y538D01*
X277Y538D02*
X304Y538D01*
X484Y538D02*
X490Y538D01*
X517Y538D02*
X523Y538D01*
X699Y538D02*
X724Y538D01*
X738Y538D02*
X764Y538D01*
X1755Y538D02*
X1762Y538D01*
X0Y537D02*
X7Y537D01*
X277Y537D02*
X304Y537D01*
X485Y537D02*
X491Y537D01*
X516Y537D02*
X523Y537D01*
X698Y537D02*
X724Y537D01*
X738Y537D02*
X764Y537D01*
X1755Y537D02*
X1762Y537D01*
X0Y536D02*
X7Y536D01*
X277Y536D02*
X304Y536D01*
X485Y536D02*
X492Y536D01*
X515Y536D02*
X522Y536D01*
X698Y536D02*
X724Y536D01*
X739Y536D02*
X763Y536D01*
X1755Y536D02*
X1762Y536D01*
X0Y535D02*
X7Y535D01*
X277Y535D02*
X303Y535D01*
X485Y535D02*
X493Y535D01*
X514Y535D02*
X522Y535D01*
X698Y535D02*
X724Y535D01*
X741Y535D02*
X762Y535D01*
X1755Y535D02*
X1762Y535D01*
X0Y534D02*
X7Y534D01*
X278Y534D02*
X303Y534D01*
X486Y534D02*
X494Y534D01*
X513Y534D02*
X521Y534D01*
X699Y534D02*
X723Y534D01*
X743Y534D02*
X761Y534D01*
X1755Y534D02*
X1762Y534D01*
X0Y533D02*
X7Y533D01*
X486Y533D02*
X521Y533D01*
X1755Y533D02*
X1762Y533D01*
X0Y532D02*
X7Y532D01*
X487Y532D02*
X520Y532D01*
X1755Y532D02*
X1762Y532D01*
X0Y531D02*
X7Y531D01*
X488Y531D02*
X519Y531D01*
X0Y530D02*
X7Y530D01*
X489Y530D02*
X518Y530D01*
X0Y529D02*
X7Y529D01*
X490Y529D02*
X517Y529D01*
X0Y528D02*
X7Y528D01*
X491Y528D02*
X516Y528D01*
X0Y527D02*
X7Y527D01*
X493Y527D02*
X515Y527D01*
X0Y526D02*
X7Y526D01*
X0Y525D02*
X7Y525D01*
X0Y524D02*
X7Y524D01*
X0Y523D02*
X7Y523D01*
X0Y522D02*
X7Y522D01*
X0Y521D02*
X7Y521D01*
X0Y520D02*
X7Y520D01*
X0Y519D02*
X7Y519D01*
X0Y518D02*
X7Y518D01*
X0Y517D02*
X7Y517D01*
X0Y516D02*
X7Y516D01*
X0Y515D02*
X7Y515D01*
X0Y514D02*
X7Y514D01*
X0Y513D02*
X7Y513D01*
X0Y512D02*
X7Y512D01*
X0Y511D02*
X7Y511D01*
X1755Y511D02*
X1762Y511D01*
X0Y510D02*
X7Y510D01*
X491Y510D02*
X498Y510D01*
X1755Y510D02*
X1762Y510D01*
X0Y509D02*
X7Y509D01*
X489Y509D02*
X499Y509D01*
X1755Y509D02*
X1762Y509D01*
X0Y508D02*
X7Y508D01*
X488Y508D02*
X499Y508D01*
X1755Y508D02*
X1762Y508D01*
X0Y507D02*
X7Y507D01*
X487Y507D02*
X499Y507D01*
X1755Y507D02*
X1762Y507D01*
X0Y506D02*
X7Y506D01*
X486Y506D02*
X499Y506D01*
X1755Y506D02*
X1762Y506D01*
X0Y505D02*
X7Y505D01*
X486Y505D02*
X498Y505D01*
X1755Y505D02*
X1762Y505D01*
X0Y504D02*
X7Y504D01*
X485Y504D02*
X497Y504D01*
X1755Y504D02*
X1762Y504D01*
X0Y503D02*
X7Y503D01*
X485Y503D02*
X492Y503D01*
X1755Y503D02*
X1762Y503D01*
X0Y502D02*
X7Y502D01*
X484Y502D02*
X491Y502D01*
X1755Y502D02*
X1762Y502D01*
X0Y501D02*
X7Y501D01*
X484Y501D02*
X490Y501D01*
X1755Y501D02*
X1762Y501D01*
X0Y500D02*
X7Y500D01*
X484Y500D02*
X490Y500D01*
X1755Y500D02*
X1762Y500D01*
X0Y499D02*
X7Y499D01*
X484Y499D02*
X490Y499D01*
X1755Y499D02*
X1762Y499D01*
X0Y498D02*
X7Y498D01*
X484Y498D02*
X490Y498D01*
X1755Y498D02*
X1762Y498D01*
X0Y497D02*
X7Y497D01*
X484Y497D02*
X490Y497D01*
X1755Y497D02*
X1762Y497D01*
X0Y496D02*
X7Y496D01*
X484Y496D02*
X490Y496D01*
X1755Y496D02*
X1762Y496D01*
X0Y495D02*
X7Y495D01*
X484Y495D02*
X490Y495D01*
X1755Y495D02*
X1762Y495D01*
X0Y494D02*
X7Y494D01*
X484Y494D02*
X491Y494D01*
X1755Y494D02*
X1762Y494D01*
X0Y493D02*
X7Y493D01*
X484Y493D02*
X492Y493D01*
X1755Y493D02*
X1762Y493D01*
X0Y492D02*
X7Y492D01*
X485Y492D02*
X493Y492D01*
X1755Y492D02*
X1762Y492D01*
X0Y491D02*
X7Y491D01*
X485Y491D02*
X493Y491D01*
X1755Y491D02*
X1762Y491D01*
X0Y490D02*
X7Y490D01*
X486Y490D02*
X494Y490D01*
X1755Y490D02*
X1762Y490D01*
X0Y489D02*
X7Y489D01*
X487Y489D02*
X495Y489D01*
X1755Y489D02*
X1762Y489D01*
X0Y488D02*
X7Y488D01*
X488Y488D02*
X496Y488D01*
X1755Y488D02*
X1762Y488D01*
X0Y487D02*
X7Y487D01*
X489Y487D02*
X497Y487D01*
X1755Y487D02*
X1762Y487D01*
X0Y486D02*
X7Y486D01*
X489Y486D02*
X498Y486D01*
X1755Y486D02*
X1762Y486D01*
X0Y485D02*
X7Y485D01*
X490Y485D02*
X499Y485D01*
X1755Y485D02*
X1762Y485D01*
X0Y484D02*
X7Y484D01*
X491Y484D02*
X500Y484D01*
X1755Y484D02*
X1762Y484D01*
X0Y483D02*
X7Y483D01*
X487Y483D02*
X520Y483D01*
X1755Y483D02*
X1762Y483D01*
X0Y482D02*
X7Y482D01*
X485Y482D02*
X522Y482D01*
X1755Y482D02*
X1762Y482D01*
X0Y481D02*
X7Y481D01*
X485Y481D02*
X522Y481D01*
X1755Y481D02*
X1762Y481D01*
X0Y480D02*
X7Y480D01*
X484Y480D02*
X523Y480D01*
X1755Y480D02*
X1762Y480D01*
X0Y479D02*
X7Y479D01*
X484Y479D02*
X523Y479D01*
X1755Y479D02*
X1762Y479D01*
X0Y478D02*
X7Y478D01*
X485Y478D02*
X522Y478D01*
X1755Y478D02*
X1762Y478D01*
X0Y477D02*
X7Y477D01*
X486Y477D02*
X521Y477D01*
X1755Y477D02*
X1762Y477D01*
X0Y476D02*
X7Y476D01*
X280Y476D02*
X303Y476D01*
X700Y476D02*
X713Y476D01*
X741Y476D02*
X741Y476D01*
X1755Y476D02*
X1762Y476D01*
X0Y475D02*
X7Y475D01*
X278Y475D02*
X304Y475D01*
X699Y475D02*
X713Y475D01*
X740Y475D02*
X743Y475D01*
X1755Y475D02*
X1762Y475D01*
X0Y474D02*
X7Y474D01*
X277Y474D02*
X304Y474D01*
X698Y474D02*
X713Y474D01*
X739Y474D02*
X743Y474D01*
X1755Y474D02*
X1762Y474D01*
X0Y473D02*
X7Y473D01*
X277Y473D02*
X304Y473D01*
X698Y473D02*
X713Y473D01*
X739Y473D02*
X743Y473D01*
X1755Y473D02*
X1762Y473D01*
X0Y472D02*
X7Y472D01*
X277Y472D02*
X304Y472D01*
X698Y472D02*
X713Y472D01*
X739Y472D02*
X743Y472D01*
X1755Y472D02*
X1762Y472D01*
X0Y471D02*
X7Y471D01*
X277Y471D02*
X304Y471D01*
X699Y471D02*
X713Y471D01*
X739Y471D02*
X743Y471D01*
X757Y471D02*
X758Y471D01*
X1755Y471D02*
X1762Y471D01*
X0Y470D02*
X7Y470D01*
X277Y470D02*
X282Y470D01*
X299Y470D02*
X304Y470D01*
X709Y470D02*
X713Y470D01*
X739Y470D02*
X743Y470D01*
X756Y470D02*
X759Y470D01*
X1755Y470D02*
X1762Y470D01*
X0Y469D02*
X7Y469D01*
X278Y469D02*
X281Y469D01*
X299Y469D02*
X304Y469D01*
X709Y469D02*
X713Y469D01*
X739Y469D02*
X743Y469D01*
X755Y469D02*
X760Y469D01*
X1755Y469D02*
X1762Y469D01*
X0Y468D02*
X7Y468D01*
X299Y468D02*
X304Y468D01*
X709Y468D02*
X713Y468D01*
X739Y468D02*
X743Y468D01*
X755Y468D02*
X760Y468D01*
X1755Y468D02*
X1762Y468D01*
X0Y467D02*
X7Y467D01*
X299Y467D02*
X304Y467D01*
X709Y467D02*
X713Y467D01*
X739Y467D02*
X743Y467D01*
X755Y467D02*
X760Y467D01*
X1755Y467D02*
X1762Y467D01*
X0Y466D02*
X7Y466D01*
X299Y466D02*
X304Y466D01*
X709Y466D02*
X713Y466D01*
X739Y466D02*
X743Y466D01*
X755Y466D02*
X760Y466D01*
X1755Y466D02*
X1762Y466D01*
X0Y465D02*
X7Y465D01*
X299Y465D02*
X304Y465D01*
X709Y465D02*
X713Y465D01*
X739Y465D02*
X743Y465D01*
X755Y465D02*
X760Y465D01*
X1755Y465D02*
X1762Y465D01*
X0Y464D02*
X7Y464D01*
X299Y464D02*
X304Y464D01*
X709Y464D02*
X713Y464D01*
X739Y464D02*
X743Y464D01*
X755Y464D02*
X760Y464D01*
X1755Y464D02*
X1762Y464D01*
X0Y463D02*
X7Y463D01*
X299Y463D02*
X304Y463D01*
X709Y463D02*
X713Y463D01*
X739Y463D02*
X743Y463D01*
X755Y463D02*
X760Y463D01*
X1755Y463D02*
X1762Y463D01*
X0Y462D02*
X7Y462D01*
X299Y462D02*
X304Y462D01*
X709Y462D02*
X713Y462D01*
X739Y462D02*
X743Y462D01*
X755Y462D02*
X760Y462D01*
X1755Y462D02*
X1762Y462D01*
X0Y461D02*
X7Y461D01*
X299Y461D02*
X304Y461D01*
X709Y461D02*
X713Y461D01*
X739Y461D02*
X743Y461D01*
X755Y461D02*
X760Y461D01*
X1755Y461D02*
X1762Y461D01*
X0Y460D02*
X7Y460D01*
X298Y460D02*
X304Y460D01*
X476Y460D02*
X495Y460D01*
X709Y460D02*
X713Y460D01*
X739Y460D02*
X743Y460D01*
X755Y460D02*
X760Y460D01*
X1755Y460D02*
X1762Y460D01*
X0Y459D02*
X7Y459D01*
X297Y459D02*
X304Y459D01*
X474Y459D02*
X497Y459D01*
X709Y459D02*
X713Y459D01*
X739Y459D02*
X743Y459D01*
X755Y459D02*
X760Y459D01*
X1755Y459D02*
X1762Y459D01*
X0Y458D02*
X7Y458D01*
X296Y458D02*
X303Y458D01*
X473Y458D02*
X499Y458D01*
X709Y458D02*
X713Y458D01*
X739Y458D02*
X743Y458D01*
X755Y458D02*
X760Y458D01*
X1755Y458D02*
X1762Y458D01*
X0Y457D02*
X7Y457D01*
X295Y457D02*
X302Y457D01*
X472Y457D02*
X500Y457D01*
X709Y457D02*
X713Y457D01*
X739Y457D02*
X743Y457D01*
X755Y457D02*
X760Y457D01*
X1755Y457D02*
X1762Y457D01*
X0Y456D02*
X7Y456D01*
X294Y456D02*
X301Y456D01*
X471Y456D02*
X500Y456D01*
X709Y456D02*
X713Y456D01*
X739Y456D02*
X743Y456D01*
X755Y456D02*
X760Y456D01*
X1755Y456D02*
X1762Y456D01*
X0Y455D02*
X7Y455D01*
X292Y455D02*
X300Y455D01*
X471Y455D02*
X501Y455D01*
X709Y455D02*
X713Y455D01*
X739Y455D02*
X743Y455D01*
X755Y455D02*
X760Y455D01*
X1755Y455D02*
X1762Y455D01*
X0Y454D02*
X7Y454D01*
X291Y454D02*
X299Y454D01*
X470Y454D02*
X501Y454D01*
X709Y454D02*
X713Y454D01*
X739Y454D02*
X743Y454D01*
X755Y454D02*
X760Y454D01*
X1755Y454D02*
X1762Y454D01*
X0Y453D02*
X7Y453D01*
X290Y453D02*
X298Y453D01*
X470Y453D02*
X477Y453D01*
X495Y453D02*
X502Y453D01*
X709Y453D02*
X713Y453D01*
X739Y453D02*
X744Y453D01*
X755Y453D02*
X760Y453D01*
X1755Y453D02*
X1762Y453D01*
X0Y452D02*
X7Y452D01*
X289Y452D02*
X297Y452D01*
X470Y452D02*
X476Y452D01*
X496Y452D02*
X502Y452D01*
X709Y452D02*
X713Y452D01*
X721Y452D02*
X723Y452D01*
X739Y452D02*
X762Y452D01*
X1755Y452D02*
X1762Y452D01*
X0Y451D02*
X7Y451D01*
X288Y451D02*
X295Y451D01*
X470Y451D02*
X476Y451D01*
X496Y451D02*
X502Y451D01*
X709Y451D02*
X713Y451D01*
X720Y451D02*
X724Y451D01*
X739Y451D02*
X762Y451D01*
X1755Y451D02*
X1762Y451D01*
X0Y450D02*
X7Y450D01*
X288Y450D02*
X294Y450D01*
X470Y450D02*
X476Y450D01*
X496Y450D02*
X502Y450D01*
X709Y450D02*
X713Y450D01*
X720Y450D02*
X724Y450D01*
X739Y450D02*
X763Y450D01*
X1755Y450D02*
X1762Y450D01*
X0Y449D02*
X7Y449D01*
X288Y449D02*
X293Y449D01*
X470Y449D02*
X476Y449D01*
X496Y449D02*
X502Y449D01*
X709Y449D02*
X713Y449D01*
X720Y449D02*
X724Y449D01*
X739Y449D02*
X762Y449D01*
X1755Y449D02*
X1762Y449D01*
X0Y448D02*
X7Y448D01*
X288Y448D02*
X293Y448D01*
X470Y448D02*
X476Y448D01*
X496Y448D02*
X502Y448D01*
X709Y448D02*
X713Y448D01*
X720Y448D02*
X724Y448D01*
X739Y448D02*
X762Y448D01*
X1755Y448D02*
X1762Y448D01*
X0Y447D02*
X7Y447D01*
X288Y447D02*
X293Y447D01*
X470Y447D02*
X476Y447D01*
X496Y447D02*
X502Y447D01*
X709Y447D02*
X713Y447D01*
X720Y447D02*
X724Y447D01*
X755Y447D02*
X760Y447D01*
X1755Y447D02*
X1762Y447D01*
X0Y446D02*
X7Y446D01*
X288Y446D02*
X293Y446D01*
X470Y446D02*
X476Y446D01*
X496Y446D02*
X502Y446D01*
X709Y446D02*
X713Y446D01*
X720Y446D02*
X724Y446D01*
X755Y446D02*
X760Y446D01*
X1755Y446D02*
X1762Y446D01*
X0Y445D02*
X7Y445D01*
X288Y445D02*
X293Y445D01*
X470Y445D02*
X476Y445D01*
X496Y445D02*
X502Y445D01*
X709Y445D02*
X713Y445D01*
X720Y445D02*
X724Y445D01*
X755Y445D02*
X760Y445D01*
X1755Y445D02*
X1762Y445D01*
X0Y444D02*
X7Y444D01*
X288Y444D02*
X293Y444D01*
X470Y444D02*
X476Y444D01*
X496Y444D02*
X502Y444D01*
X709Y444D02*
X713Y444D01*
X720Y444D02*
X724Y444D01*
X755Y444D02*
X760Y444D01*
X1755Y444D02*
X1762Y444D01*
X0Y443D02*
X7Y443D01*
X288Y443D02*
X293Y443D01*
X470Y443D02*
X476Y443D01*
X496Y443D02*
X502Y443D01*
X709Y443D02*
X713Y443D01*
X720Y443D02*
X724Y443D01*
X755Y443D02*
X760Y443D01*
X1755Y443D02*
X1762Y443D01*
X0Y442D02*
X7Y442D01*
X288Y442D02*
X293Y442D01*
X470Y442D02*
X476Y442D01*
X496Y442D02*
X502Y442D01*
X709Y442D02*
X713Y442D01*
X720Y442D02*
X724Y442D01*
X755Y442D02*
X760Y442D01*
X1755Y442D02*
X1762Y442D01*
X0Y441D02*
X7Y441D01*
X288Y441D02*
X293Y441D01*
X470Y441D02*
X476Y441D01*
X496Y441D02*
X502Y441D01*
X709Y441D02*
X713Y441D01*
X720Y441D02*
X724Y441D01*
X755Y441D02*
X760Y441D01*
X1755Y441D02*
X1762Y441D01*
X0Y440D02*
X7Y440D01*
X288Y440D02*
X293Y440D01*
X470Y440D02*
X476Y440D01*
X496Y440D02*
X502Y440D01*
X709Y440D02*
X713Y440D01*
X720Y440D02*
X724Y440D01*
X755Y440D02*
X760Y440D01*
X1755Y440D02*
X1762Y440D01*
X0Y439D02*
X7Y439D01*
X288Y439D02*
X293Y439D01*
X470Y439D02*
X476Y439D01*
X496Y439D02*
X502Y439D01*
X709Y439D02*
X714Y439D01*
X720Y439D02*
X724Y439D01*
X755Y439D02*
X760Y439D01*
X1755Y439D02*
X1762Y439D01*
X0Y438D02*
X7Y438D01*
X288Y438D02*
X293Y438D01*
X470Y438D02*
X476Y438D01*
X496Y438D02*
X502Y438D01*
X699Y438D02*
X724Y438D01*
X755Y438D02*
X760Y438D01*
X1755Y438D02*
X1762Y438D01*
X0Y437D02*
X7Y437D01*
X288Y437D02*
X293Y437D01*
X470Y437D02*
X476Y437D01*
X496Y437D02*
X502Y437D01*
X698Y437D02*
X724Y437D01*
X755Y437D02*
X760Y437D01*
X1755Y437D02*
X1762Y437D01*
X0Y436D02*
X7Y436D01*
X288Y436D02*
X293Y436D01*
X470Y436D02*
X476Y436D01*
X496Y436D02*
X502Y436D01*
X698Y436D02*
X724Y436D01*
X755Y436D02*
X760Y436D01*
X1755Y436D02*
X1762Y436D01*
X0Y435D02*
X7Y435D01*
X288Y435D02*
X292Y435D01*
X470Y435D02*
X476Y435D01*
X496Y435D02*
X502Y435D01*
X698Y435D02*
X724Y435D01*
X755Y435D02*
X760Y435D01*
X1755Y435D02*
X1762Y435D01*
X0Y434D02*
X7Y434D01*
X289Y434D02*
X292Y434D01*
X470Y434D02*
X476Y434D01*
X496Y434D02*
X502Y434D01*
X699Y434D02*
X723Y434D01*
X756Y434D02*
X759Y434D01*
X1755Y434D02*
X1762Y434D01*
X0Y433D02*
X7Y433D01*
X470Y433D02*
X520Y433D01*
X1755Y433D02*
X1762Y433D01*
X0Y432D02*
X7Y432D01*
X470Y432D02*
X522Y432D01*
X1755Y432D02*
X1762Y432D01*
X0Y431D02*
X7Y431D01*
X470Y431D02*
X522Y431D01*
X1755Y431D02*
X1762Y431D01*
X0Y430D02*
X7Y430D01*
X470Y430D02*
X523Y430D01*
X1755Y430D02*
X1762Y430D01*
X0Y429D02*
X7Y429D01*
X470Y429D02*
X523Y429D01*
X1755Y429D02*
X1762Y429D01*
X0Y428D02*
X7Y428D01*
X470Y428D02*
X522Y428D01*
X1755Y428D02*
X1762Y428D01*
X0Y427D02*
X7Y427D01*
X470Y427D02*
X521Y427D01*
X1755Y427D02*
X1762Y427D01*
X0Y426D02*
X7Y426D01*
X1755Y426D02*
X1762Y426D01*
X0Y425D02*
X7Y425D01*
X1755Y425D02*
X1762Y425D01*
X0Y424D02*
X7Y424D01*
X1755Y424D02*
X1762Y424D01*
X0Y423D02*
X7Y423D01*
X1755Y423D02*
X1762Y423D01*
X0Y422D02*
X7Y422D01*
X1755Y422D02*
X1762Y422D01*
X0Y421D02*
X7Y421D01*
X1755Y421D02*
X1762Y421D01*
X0Y420D02*
X7Y420D01*
X1755Y420D02*
X1762Y420D01*
X0Y419D02*
X7Y419D01*
X1755Y419D02*
X1762Y419D01*
X0Y418D02*
X7Y418D01*
X1755Y418D02*
X1762Y418D01*
X0Y417D02*
X7Y417D01*
X1755Y417D02*
X1762Y417D01*
X0Y416D02*
X7Y416D01*
X1755Y416D02*
X1762Y416D01*
X0Y415D02*
X7Y415D01*
X1755Y415D02*
X1762Y415D01*
X0Y414D02*
X7Y414D01*
X1755Y414D02*
X1762Y414D01*
X0Y413D02*
X7Y413D01*
X1755Y413D02*
X1762Y413D01*
X0Y412D02*
X7Y412D01*
X1755Y412D02*
X1762Y412D01*
X0Y411D02*
X7Y411D01*
X1755Y411D02*
X1762Y411D01*
X0Y410D02*
X7Y410D01*
X1755Y410D02*
X1762Y410D01*
X0Y409D02*
X7Y409D01*
X1755Y409D02*
X1762Y409D01*
X0Y408D02*
X7Y408D01*
X1755Y408D02*
X1762Y408D01*
X0Y407D02*
X7Y407D01*
X1755Y407D02*
X1762Y407D01*
X0Y406D02*
X7Y406D01*
X1755Y406D02*
X1762Y406D01*
X0Y405D02*
X7Y405D01*
X1755Y405D02*
X1762Y405D01*
X0Y404D02*
X7Y404D01*
X1755Y404D02*
X1762Y404D01*
X0Y403D02*
X7Y403D01*
X1755Y403D02*
X1762Y403D01*
X0Y402D02*
X7Y402D01*
X1755Y402D02*
X1762Y402D01*
X0Y401D02*
X7Y401D01*
X1755Y401D02*
X1762Y401D01*
X0Y400D02*
X7Y400D01*
X1755Y400D02*
X1762Y400D01*
X0Y399D02*
X7Y399D01*
X1755Y399D02*
X1762Y399D01*
X0Y398D02*
X7Y398D01*
X1755Y398D02*
X1762Y398D01*
X0Y397D02*
X7Y397D01*
X1755Y397D02*
X1762Y397D01*
X0Y396D02*
X7Y396D01*
X1755Y396D02*
X1762Y396D01*
X0Y395D02*
X7Y395D01*
X1755Y395D02*
X1762Y395D01*
X0Y394D02*
X7Y394D01*
X1755Y394D02*
X1762Y394D01*
X0Y393D02*
X7Y393D01*
X1755Y393D02*
X1762Y393D01*
X0Y392D02*
X7Y392D01*
X1755Y392D02*
X1762Y392D01*
X0Y391D02*
X7Y391D01*
X1755Y391D02*
X1762Y391D01*
X0Y390D02*
X7Y390D01*
X1755Y390D02*
X1762Y390D01*
X0Y389D02*
X7Y389D01*
X1755Y389D02*
X1762Y389D01*
X0Y388D02*
X7Y388D01*
X1755Y388D02*
X1762Y388D01*
X0Y387D02*
X7Y387D01*
X1755Y387D02*
X1762Y387D01*
X0Y386D02*
X7Y386D01*
X1755Y386D02*
X1762Y386D01*
X0Y385D02*
X7Y385D01*
X1755Y385D02*
X1762Y385D01*
X0Y384D02*
X7Y384D01*
X1755Y384D02*
X1762Y384D01*
X0Y383D02*
X7Y383D01*
X1755Y383D02*
X1762Y383D01*
X0Y382D02*
X7Y382D01*
X1755Y382D02*
X1762Y382D01*
X0Y381D02*
X7Y381D01*
X1755Y381D02*
X1762Y381D01*
X0Y380D02*
X7Y380D01*
X1755Y380D02*
X1762Y380D01*
X0Y379D02*
X7Y379D01*
X1755Y379D02*
X1762Y379D01*
X0Y378D02*
X7Y378D01*
X1755Y378D02*
X1762Y378D01*
X0Y377D02*
X7Y377D01*
X1755Y377D02*
X1762Y377D01*
X0Y376D02*
X7Y376D01*
X285Y376D02*
X296Y376D01*
X700Y376D02*
X713Y376D01*
X740Y376D02*
X743Y376D01*
X1755Y376D02*
X1762Y376D01*
X0Y375D02*
X7Y375D01*
X283Y375D02*
X297Y375D01*
X699Y375D02*
X713Y375D01*
X738Y375D02*
X744Y375D01*
X1755Y375D02*
X1762Y375D01*
X0Y374D02*
X7Y374D01*
X283Y374D02*
X298Y374D01*
X698Y374D02*
X713Y374D01*
X738Y374D02*
X745Y374D01*
X1755Y374D02*
X1762Y374D01*
X0Y373D02*
X7Y373D01*
X283Y373D02*
X298Y373D01*
X698Y373D02*
X713Y373D01*
X738Y373D02*
X745Y373D01*
X1755Y373D02*
X1762Y373D01*
X0Y372D02*
X7Y372D01*
X283Y372D02*
X298Y372D01*
X698Y372D02*
X713Y372D01*
X738Y372D02*
X744Y372D01*
X1755Y372D02*
X1762Y372D01*
X0Y371D02*
X7Y371D01*
X283Y371D02*
X298Y371D01*
X699Y371D02*
X713Y371D01*
X738Y371D02*
X743Y371D01*
X1755Y371D02*
X1762Y371D01*
X0Y370D02*
X7Y370D01*
X283Y370D02*
X287Y370D01*
X294Y370D02*
X298Y370D01*
X709Y370D02*
X713Y370D01*
X738Y370D02*
X742Y370D01*
X1755Y370D02*
X1762Y370D01*
X0Y369D02*
X7Y369D01*
X283Y369D02*
X287Y369D01*
X294Y369D02*
X298Y369D01*
X709Y369D02*
X713Y369D01*
X738Y369D02*
X742Y369D01*
X1755Y369D02*
X1762Y369D01*
X0Y368D02*
X7Y368D01*
X283Y368D02*
X287Y368D01*
X294Y368D02*
X298Y368D01*
X709Y368D02*
X713Y368D01*
X738Y368D02*
X742Y368D01*
X1755Y368D02*
X1762Y368D01*
X0Y367D02*
X7Y367D01*
X283Y367D02*
X287Y367D01*
X294Y367D02*
X298Y367D01*
X709Y367D02*
X713Y367D01*
X738Y367D02*
X742Y367D01*
X1755Y367D02*
X1762Y367D01*
X0Y366D02*
X7Y366D01*
X283Y366D02*
X287Y366D01*
X294Y366D02*
X298Y366D01*
X709Y366D02*
X713Y366D01*
X738Y366D02*
X742Y366D01*
X1755Y366D02*
X1762Y366D01*
X0Y365D02*
X7Y365D01*
X283Y365D02*
X287Y365D01*
X294Y365D02*
X298Y365D01*
X709Y365D02*
X713Y365D01*
X738Y365D02*
X742Y365D01*
X1755Y365D02*
X1762Y365D01*
X0Y364D02*
X7Y364D01*
X283Y364D02*
X287Y364D01*
X294Y364D02*
X298Y364D01*
X709Y364D02*
X713Y364D01*
X738Y364D02*
X742Y364D01*
X1755Y364D02*
X1762Y364D01*
X0Y363D02*
X7Y363D01*
X283Y363D02*
X287Y363D01*
X294Y363D02*
X298Y363D01*
X709Y363D02*
X713Y363D01*
X738Y363D02*
X742Y363D01*
X1755Y363D02*
X1762Y363D01*
X0Y362D02*
X7Y362D01*
X283Y362D02*
X287Y362D01*
X294Y362D02*
X298Y362D01*
X709Y362D02*
X713Y362D01*
X738Y362D02*
X742Y362D01*
X1755Y362D02*
X1762Y362D01*
X0Y361D02*
X7Y361D01*
X283Y361D02*
X287Y361D01*
X294Y361D02*
X298Y361D01*
X709Y361D02*
X713Y361D01*
X738Y361D02*
X742Y361D01*
X1755Y361D02*
X1762Y361D01*
X0Y360D02*
X7Y360D01*
X283Y360D02*
X287Y360D01*
X294Y360D02*
X298Y360D01*
X709Y360D02*
X713Y360D01*
X738Y360D02*
X742Y360D01*
X1755Y360D02*
X1762Y360D01*
X0Y359D02*
X7Y359D01*
X283Y359D02*
X287Y359D01*
X294Y359D02*
X298Y359D01*
X709Y359D02*
X713Y359D01*
X738Y359D02*
X742Y359D01*
X1755Y359D02*
X1762Y359D01*
X0Y358D02*
X7Y358D01*
X283Y358D02*
X287Y358D01*
X294Y358D02*
X298Y358D01*
X709Y358D02*
X713Y358D01*
X738Y358D02*
X742Y358D01*
X1755Y358D02*
X1762Y358D01*
X0Y357D02*
X7Y357D01*
X281Y357D02*
X300Y357D01*
X709Y357D02*
X713Y357D01*
X738Y357D02*
X742Y357D01*
X1755Y357D02*
X1762Y357D01*
X0Y356D02*
X7Y356D01*
X279Y356D02*
X302Y356D01*
X709Y356D02*
X713Y356D01*
X738Y356D02*
X742Y356D01*
X1755Y356D02*
X1762Y356D01*
X0Y355D02*
X7Y355D01*
X278Y355D02*
X302Y355D01*
X709Y355D02*
X713Y355D01*
X738Y355D02*
X742Y355D01*
X1755Y355D02*
X1762Y355D01*
X0Y354D02*
X7Y354D01*
X278Y354D02*
X303Y354D01*
X709Y354D02*
X713Y354D01*
X738Y354D02*
X742Y354D01*
X1755Y354D02*
X1762Y354D01*
X0Y353D02*
X7Y353D01*
X277Y353D02*
X303Y353D01*
X709Y353D02*
X713Y353D01*
X738Y353D02*
X742Y353D01*
X1755Y353D02*
X1762Y353D01*
X0Y352D02*
X7Y352D01*
X277Y352D02*
X304Y352D01*
X709Y352D02*
X713Y352D01*
X721Y352D02*
X723Y352D01*
X738Y352D02*
X763Y352D01*
X1755Y352D02*
X1762Y352D01*
X0Y351D02*
X7Y351D01*
X277Y351D02*
X282Y351D01*
X299Y351D02*
X304Y351D01*
X709Y351D02*
X713Y351D01*
X720Y351D02*
X724Y351D01*
X738Y351D02*
X764Y351D01*
X1755Y351D02*
X1762Y351D01*
X0Y350D02*
X7Y350D01*
X277Y350D02*
X282Y350D01*
X299Y350D02*
X304Y350D01*
X709Y350D02*
X713Y350D01*
X720Y350D02*
X724Y350D01*
X738Y350D02*
X764Y350D01*
X1755Y350D02*
X1762Y350D01*
X0Y349D02*
X7Y349D01*
X277Y349D02*
X282Y349D01*
X299Y349D02*
X304Y349D01*
X709Y349D02*
X713Y349D01*
X720Y349D02*
X724Y349D01*
X738Y349D02*
X764Y349D01*
X1755Y349D02*
X1762Y349D01*
X0Y348D02*
X7Y348D01*
X277Y348D02*
X282Y348D01*
X299Y348D02*
X304Y348D01*
X709Y348D02*
X713Y348D01*
X720Y348D02*
X724Y348D01*
X738Y348D02*
X764Y348D01*
X1755Y348D02*
X1762Y348D01*
X0Y347D02*
X7Y347D01*
X277Y347D02*
X282Y347D01*
X299Y347D02*
X304Y347D01*
X709Y347D02*
X713Y347D01*
X720Y347D02*
X724Y347D01*
X738Y347D02*
X742Y347D01*
X759Y347D02*
X764Y347D01*
X1755Y347D02*
X1762Y347D01*
X0Y346D02*
X7Y346D01*
X277Y346D02*
X282Y346D01*
X299Y346D02*
X304Y346D01*
X709Y346D02*
X713Y346D01*
X720Y346D02*
X724Y346D01*
X738Y346D02*
X742Y346D01*
X759Y346D02*
X764Y346D01*
X1755Y346D02*
X1762Y346D01*
X0Y345D02*
X7Y345D01*
X277Y345D02*
X282Y345D01*
X299Y345D02*
X304Y345D01*
X709Y345D02*
X713Y345D01*
X720Y345D02*
X724Y345D01*
X738Y345D02*
X742Y345D01*
X759Y345D02*
X764Y345D01*
X1755Y345D02*
X1762Y345D01*
X0Y344D02*
X7Y344D01*
X277Y344D02*
X282Y344D01*
X299Y344D02*
X304Y344D01*
X709Y344D02*
X713Y344D01*
X720Y344D02*
X724Y344D01*
X738Y344D02*
X742Y344D01*
X759Y344D02*
X764Y344D01*
X1755Y344D02*
X1762Y344D01*
X0Y343D02*
X7Y343D01*
X277Y343D02*
X282Y343D01*
X299Y343D02*
X304Y343D01*
X709Y343D02*
X713Y343D01*
X720Y343D02*
X724Y343D01*
X738Y343D02*
X742Y343D01*
X759Y343D02*
X764Y343D01*
X1755Y343D02*
X1762Y343D01*
X0Y342D02*
X7Y342D01*
X277Y342D02*
X282Y342D01*
X299Y342D02*
X304Y342D01*
X709Y342D02*
X713Y342D01*
X720Y342D02*
X724Y342D01*
X738Y342D02*
X742Y342D01*
X759Y342D02*
X764Y342D01*
X1755Y342D02*
X1762Y342D01*
X0Y341D02*
X7Y341D01*
X277Y341D02*
X282Y341D01*
X299Y341D02*
X304Y341D01*
X709Y341D02*
X713Y341D01*
X720Y341D02*
X724Y341D01*
X738Y341D02*
X742Y341D01*
X759Y341D02*
X764Y341D01*
X1755Y341D02*
X1762Y341D01*
X0Y340D02*
X7Y340D01*
X277Y340D02*
X282Y340D01*
X299Y340D02*
X304Y340D01*
X709Y340D02*
X713Y340D01*
X720Y340D02*
X724Y340D01*
X738Y340D02*
X742Y340D01*
X759Y340D02*
X764Y340D01*
X1755Y340D02*
X1762Y340D01*
X0Y339D02*
X7Y339D01*
X277Y339D02*
X282Y339D01*
X299Y339D02*
X304Y339D01*
X709Y339D02*
X714Y339D01*
X720Y339D02*
X724Y339D01*
X738Y339D02*
X742Y339D01*
X759Y339D02*
X764Y339D01*
X1755Y339D02*
X1762Y339D01*
X0Y338D02*
X7Y338D01*
X277Y338D02*
X303Y338D01*
X699Y338D02*
X724Y338D01*
X738Y338D02*
X764Y338D01*
X1755Y338D02*
X1762Y338D01*
X0Y337D02*
X7Y337D01*
X278Y337D02*
X303Y337D01*
X698Y337D02*
X724Y337D01*
X738Y337D02*
X764Y337D01*
X1755Y337D02*
X1762Y337D01*
X0Y336D02*
X7Y336D01*
X278Y336D02*
X303Y336D01*
X698Y336D02*
X724Y336D01*
X738Y336D02*
X764Y336D01*
X1755Y336D02*
X1762Y336D01*
X0Y335D02*
X7Y335D01*
X279Y335D02*
X302Y335D01*
X698Y335D02*
X724Y335D01*
X738Y335D02*
X764Y335D01*
X1755Y335D02*
X1762Y335D01*
X0Y334D02*
X7Y334D01*
X280Y334D02*
X301Y334D01*
X699Y334D02*
X723Y334D01*
X738Y334D02*
X763Y334D01*
X1755Y334D02*
X1762Y334D01*
X0Y333D02*
X7Y333D01*
X1755Y333D02*
X1762Y333D01*
X0Y332D02*
X7Y332D01*
X1755Y332D02*
X1762Y332D01*
X0Y331D02*
X7Y331D01*
X1755Y331D02*
X1762Y331D01*
X0Y330D02*
X7Y330D01*
X1755Y330D02*
X1762Y330D01*
X0Y329D02*
X7Y329D01*
X1755Y329D02*
X1762Y329D01*
X0Y328D02*
X7Y328D01*
X1755Y328D02*
X1762Y328D01*
X0Y327D02*
X7Y327D01*
X1755Y327D02*
X1762Y327D01*
X0Y326D02*
X7Y326D01*
X1755Y326D02*
X1762Y326D01*
X0Y325D02*
X7Y325D01*
X1755Y325D02*
X1762Y325D01*
X0Y324D02*
X7Y324D01*
X1755Y324D02*
X1762Y324D01*
X0Y323D02*
X7Y323D01*
X1755Y323D02*
X1762Y323D01*
X0Y322D02*
X7Y322D01*
X1755Y322D02*
X1762Y322D01*
X0Y321D02*
X7Y321D01*
X1755Y321D02*
X1762Y321D01*
X0Y320D02*
X7Y320D01*
X1755Y320D02*
X1762Y320D01*
X0Y319D02*
X7Y319D01*
X1755Y319D02*
X1762Y319D01*
X0Y318D02*
X7Y318D01*
X1755Y318D02*
X1762Y318D01*
X0Y317D02*
X7Y317D01*
X1755Y317D02*
X1762Y317D01*
X0Y316D02*
X7Y316D01*
X1755Y316D02*
X1762Y316D01*
X0Y315D02*
X7Y315D01*
X1755Y315D02*
X1762Y315D01*
X0Y314D02*
X7Y314D01*
X1755Y314D02*
X1762Y314D01*
X0Y313D02*
X7Y313D01*
X1755Y313D02*
X1762Y313D01*
X0Y312D02*
X7Y312D01*
X1755Y312D02*
X1762Y312D01*
X0Y311D02*
X7Y311D01*
X1755Y311D02*
X1762Y311D01*
X0Y310D02*
X7Y310D01*
X1755Y310D02*
X1762Y310D01*
X0Y309D02*
X7Y309D01*
X1755Y309D02*
X1762Y309D01*
X0Y308D02*
X7Y308D01*
X1755Y308D02*
X1762Y308D01*
X0Y307D02*
X7Y307D01*
X1755Y307D02*
X1762Y307D01*
X0Y306D02*
X7Y306D01*
X1755Y306D02*
X1762Y306D01*
X0Y305D02*
X7Y305D01*
X1755Y305D02*
X1762Y305D01*
X0Y304D02*
X7Y304D01*
X1755Y304D02*
X1762Y304D01*
X0Y303D02*
X7Y303D01*
X1755Y303D02*
X1762Y303D01*
X0Y302D02*
X7Y302D01*
X1755Y302D02*
X1762Y302D01*
X0Y301D02*
X7Y301D01*
X1755Y301D02*
X1762Y301D01*
X0Y300D02*
X7Y300D01*
X1755Y300D02*
X1762Y300D01*
X0Y299D02*
X7Y299D01*
X1755Y299D02*
X1762Y299D01*
X0Y298D02*
X7Y298D01*
X1755Y298D02*
X1762Y298D01*
X0Y297D02*
X7Y297D01*
X1755Y297D02*
X1762Y297D01*
X0Y296D02*
X7Y296D01*
X1755Y296D02*
X1762Y296D01*
X0Y295D02*
X7Y295D01*
X1755Y295D02*
X1762Y295D01*
X0Y294D02*
X7Y294D01*
X1755Y294D02*
X1762Y294D01*
X0Y293D02*
X7Y293D01*
X1755Y293D02*
X1762Y293D01*
X0Y292D02*
X7Y292D01*
X1755Y292D02*
X1762Y292D01*
X0Y291D02*
X7Y291D01*
X1755Y291D02*
X1762Y291D01*
X0Y290D02*
X7Y290D01*
X1755Y290D02*
X1762Y290D01*
X0Y289D02*
X7Y289D01*
X1755Y289D02*
X1762Y289D01*
X0Y288D02*
X7Y288D01*
X1755Y288D02*
X1762Y288D01*
X0Y287D02*
X7Y287D01*
X1755Y287D02*
X1762Y287D01*
X0Y286D02*
X7Y286D01*
X1755Y286D02*
X1762Y286D01*
X0Y285D02*
X7Y285D01*
X1755Y285D02*
X1762Y285D01*
X0Y284D02*
X7Y284D01*
X1755Y284D02*
X1762Y284D01*
X0Y283D02*
X7Y283D01*
X1755Y283D02*
X1762Y283D01*
X0Y282D02*
X7Y282D01*
X1755Y282D02*
X1762Y282D01*
X0Y281D02*
X7Y281D01*
X1755Y281D02*
X1762Y281D01*
X0Y280D02*
X7Y280D01*
X1755Y280D02*
X1762Y280D01*
X0Y279D02*
X7Y279D01*
X1755Y279D02*
X1762Y279D01*
X0Y278D02*
X7Y278D01*
X1755Y278D02*
X1762Y278D01*
X0Y277D02*
X7Y277D01*
X1755Y277D02*
X1762Y277D01*
X0Y276D02*
X7Y276D01*
X279Y276D02*
X302Y276D01*
X667Y276D02*
X680Y276D01*
X709Y276D02*
X726Y276D01*
X1755Y276D02*
X1762Y276D01*
X0Y275D02*
X7Y275D01*
X278Y275D02*
X303Y275D01*
X666Y275D02*
X680Y275D01*
X707Y275D02*
X729Y275D01*
X1755Y275D02*
X1762Y275D01*
X0Y274D02*
X7Y274D01*
X277Y274D02*
X303Y274D01*
X665Y274D02*
X680Y274D01*
X706Y274D02*
X730Y274D01*
X1755Y274D02*
X1762Y274D01*
X0Y273D02*
X7Y273D01*
X277Y273D02*
X304Y273D01*
X665Y273D02*
X680Y273D01*
X705Y273D02*
X730Y273D01*
X1755Y273D02*
X1762Y273D01*
X0Y272D02*
X7Y272D01*
X277Y272D02*
X304Y272D01*
X665Y272D02*
X680Y272D01*
X705Y272D02*
X731Y272D01*
X1755Y272D02*
X1762Y272D01*
X0Y271D02*
X7Y271D01*
X277Y271D02*
X304Y271D01*
X666Y271D02*
X680Y271D01*
X705Y271D02*
X731Y271D01*
X1755Y271D02*
X1762Y271D01*
X0Y270D02*
X7Y270D01*
X277Y270D02*
X282Y270D01*
X299Y270D02*
X304Y270D01*
X676Y270D02*
X680Y270D01*
X705Y270D02*
X709Y270D01*
X726Y270D02*
X731Y270D01*
X1755Y270D02*
X1762Y270D01*
X0Y269D02*
X7Y269D01*
X277Y269D02*
X282Y269D01*
X299Y269D02*
X304Y269D01*
X676Y269D02*
X680Y269D01*
X705Y269D02*
X709Y269D01*
X726Y269D02*
X731Y269D01*
X1755Y269D02*
X1762Y269D01*
X0Y268D02*
X7Y268D01*
X277Y268D02*
X282Y268D01*
X299Y268D02*
X304Y268D01*
X676Y268D02*
X680Y268D01*
X705Y268D02*
X709Y268D01*
X726Y268D02*
X731Y268D01*
X1755Y268D02*
X1762Y268D01*
X0Y267D02*
X7Y267D01*
X277Y267D02*
X282Y267D01*
X299Y267D02*
X304Y267D01*
X676Y267D02*
X680Y267D01*
X705Y267D02*
X709Y267D01*
X726Y267D02*
X731Y267D01*
X1755Y267D02*
X1762Y267D01*
X0Y266D02*
X7Y266D01*
X277Y266D02*
X282Y266D01*
X299Y266D02*
X304Y266D01*
X676Y266D02*
X680Y266D01*
X705Y266D02*
X709Y266D01*
X726Y266D02*
X731Y266D01*
X1755Y266D02*
X1762Y266D01*
X0Y265D02*
X7Y265D01*
X277Y265D02*
X282Y265D01*
X299Y265D02*
X304Y265D01*
X676Y265D02*
X680Y265D01*
X705Y265D02*
X709Y265D01*
X726Y265D02*
X731Y265D01*
X1755Y265D02*
X1762Y265D01*
X0Y264D02*
X7Y264D01*
X277Y264D02*
X282Y264D01*
X299Y264D02*
X304Y264D01*
X676Y264D02*
X680Y264D01*
X705Y264D02*
X709Y264D01*
X726Y264D02*
X731Y264D01*
X1755Y264D02*
X1762Y264D01*
X0Y263D02*
X7Y263D01*
X277Y263D02*
X282Y263D01*
X299Y263D02*
X304Y263D01*
X676Y263D02*
X680Y263D01*
X705Y263D02*
X709Y263D01*
X726Y263D02*
X731Y263D01*
X1755Y263D02*
X1762Y263D01*
X0Y262D02*
X7Y262D01*
X277Y262D02*
X304Y262D01*
X676Y262D02*
X680Y262D01*
X705Y262D02*
X709Y262D01*
X726Y262D02*
X731Y262D01*
X1755Y262D02*
X1762Y262D01*
X0Y261D02*
X7Y261D01*
X277Y261D02*
X304Y261D01*
X676Y261D02*
X680Y261D01*
X705Y261D02*
X709Y261D01*
X726Y261D02*
X731Y261D01*
X1755Y261D02*
X1762Y261D01*
X0Y260D02*
X7Y260D01*
X277Y260D02*
X304Y260D01*
X676Y260D02*
X680Y260D01*
X705Y260D02*
X709Y260D01*
X726Y260D02*
X731Y260D01*
X1755Y260D02*
X1762Y260D01*
X0Y259D02*
X7Y259D01*
X277Y259D02*
X304Y259D01*
X676Y259D02*
X680Y259D01*
X705Y259D02*
X709Y259D01*
X726Y259D02*
X731Y259D01*
X1755Y259D02*
X1762Y259D01*
X0Y258D02*
X7Y258D01*
X278Y258D02*
X304Y258D01*
X676Y258D02*
X680Y258D01*
X705Y258D02*
X709Y258D01*
X726Y258D02*
X731Y258D01*
X1755Y258D02*
X1762Y258D01*
X0Y257D02*
X7Y257D01*
X279Y257D02*
X304Y257D01*
X676Y257D02*
X680Y257D01*
X705Y257D02*
X709Y257D01*
X726Y257D02*
X731Y257D01*
X1755Y257D02*
X1762Y257D01*
X0Y256D02*
X7Y256D01*
X299Y256D02*
X304Y256D01*
X676Y256D02*
X680Y256D01*
X705Y256D02*
X709Y256D01*
X726Y256D02*
X731Y256D01*
X1755Y256D02*
X1762Y256D01*
X0Y255D02*
X7Y255D01*
X299Y255D02*
X304Y255D01*
X676Y255D02*
X680Y255D01*
X705Y255D02*
X709Y255D01*
X726Y255D02*
X731Y255D01*
X1755Y255D02*
X1762Y255D01*
X0Y254D02*
X7Y254D01*
X299Y254D02*
X304Y254D01*
X676Y254D02*
X680Y254D01*
X705Y254D02*
X709Y254D01*
X726Y254D02*
X731Y254D01*
X1755Y254D02*
X1762Y254D01*
X0Y253D02*
X7Y253D01*
X299Y253D02*
X304Y253D01*
X676Y253D02*
X680Y253D01*
X705Y253D02*
X709Y253D01*
X726Y253D02*
X731Y253D01*
X1755Y253D02*
X1762Y253D01*
X0Y252D02*
X7Y252D01*
X299Y252D02*
X304Y252D01*
X319Y252D02*
X324Y252D01*
X676Y252D02*
X680Y252D01*
X688Y252D02*
X690Y252D01*
X705Y252D02*
X709Y252D01*
X726Y252D02*
X731Y252D01*
X747Y252D02*
X751Y252D01*
X1755Y252D02*
X1762Y252D01*
X0Y251D02*
X7Y251D01*
X299Y251D02*
X304Y251D01*
X318Y251D02*
X325Y251D01*
X337Y251D02*
X337Y251D01*
X676Y251D02*
X680Y251D01*
X687Y251D02*
X691Y251D01*
X705Y251D02*
X709Y251D01*
X726Y251D02*
X731Y251D01*
X745Y251D02*
X753Y251D01*
X764Y251D02*
X764Y251D01*
X1755Y251D02*
X1762Y251D01*
X0Y250D02*
X7Y250D01*
X299Y250D02*
X304Y250D01*
X317Y250D02*
X319Y250D01*
X324Y250D02*
X327Y250D01*
X336Y250D02*
X337Y250D01*
X676Y250D02*
X680Y250D01*
X687Y250D02*
X691Y250D01*
X705Y250D02*
X709Y250D01*
X726Y250D02*
X731Y250D01*
X744Y250D02*
X747Y250D01*
X751Y250D02*
X754Y250D01*
X763Y250D02*
X765Y250D01*
X1755Y250D02*
X1762Y250D01*
X0Y249D02*
X7Y249D01*
X299Y249D02*
X304Y249D01*
X316Y249D02*
X318Y249D01*
X325Y249D02*
X328Y249D01*
X335Y249D02*
X337Y249D01*
X676Y249D02*
X680Y249D01*
X687Y249D02*
X691Y249D01*
X705Y249D02*
X709Y249D01*
X726Y249D02*
X731Y249D01*
X744Y249D02*
X746Y249D01*
X753Y249D02*
X755Y249D01*
X762Y249D02*
X764Y249D01*
X1755Y249D02*
X1762Y249D01*
X0Y248D02*
X7Y248D01*
X299Y248D02*
X304Y248D01*
X316Y248D02*
X317Y248D01*
X327Y248D02*
X329Y248D01*
X334Y248D02*
X336Y248D01*
X676Y248D02*
X680Y248D01*
X687Y248D02*
X691Y248D01*
X705Y248D02*
X709Y248D01*
X726Y248D02*
X731Y248D01*
X743Y248D02*
X745Y248D01*
X754Y248D02*
X756Y248D01*
X761Y248D02*
X764Y248D01*
X1755Y248D02*
X1762Y248D01*
X0Y247D02*
X7Y247D01*
X299Y247D02*
X304Y247D01*
X316Y247D02*
X316Y247D01*
X328Y247D02*
X335Y247D01*
X676Y247D02*
X680Y247D01*
X687Y247D02*
X691Y247D01*
X705Y247D02*
X709Y247D01*
X726Y247D02*
X731Y247D01*
X744Y247D02*
X744Y247D01*
X755Y247D02*
X762Y247D01*
X1755Y247D02*
X1762Y247D01*
X0Y246D02*
X7Y246D01*
X299Y246D02*
X304Y246D01*
X329Y246D02*
X334Y246D01*
X676Y246D02*
X680Y246D01*
X687Y246D02*
X691Y246D01*
X705Y246D02*
X709Y246D01*
X726Y246D02*
X731Y246D01*
X756Y246D02*
X761Y246D01*
X1755Y246D02*
X1762Y246D01*
X0Y245D02*
X7Y245D01*
X299Y245D02*
X304Y245D01*
X331Y245D02*
X332Y245D01*
X676Y245D02*
X680Y245D01*
X687Y245D02*
X691Y245D01*
X705Y245D02*
X709Y245D01*
X726Y245D02*
X731Y245D01*
X759Y245D02*
X759Y245D01*
X1755Y245D02*
X1762Y245D01*
X0Y244D02*
X7Y244D01*
X299Y244D02*
X304Y244D01*
X676Y244D02*
X680Y244D01*
X687Y244D02*
X691Y244D01*
X705Y244D02*
X709Y244D01*
X726Y244D02*
X731Y244D01*
X1755Y244D02*
X1762Y244D01*
X0Y243D02*
X7Y243D01*
X299Y243D02*
X304Y243D01*
X676Y243D02*
X680Y243D01*
X687Y243D02*
X691Y243D01*
X705Y243D02*
X709Y243D01*
X726Y243D02*
X731Y243D01*
X1755Y243D02*
X1762Y243D01*
X0Y242D02*
X7Y242D01*
X299Y242D02*
X304Y242D01*
X676Y242D02*
X680Y242D01*
X687Y242D02*
X691Y242D01*
X705Y242D02*
X709Y242D01*
X726Y242D02*
X731Y242D01*
X1755Y242D02*
X1762Y242D01*
X0Y241D02*
X7Y241D01*
X299Y241D02*
X304Y241D01*
X676Y241D02*
X680Y241D01*
X687Y241D02*
X691Y241D01*
X705Y241D02*
X709Y241D01*
X726Y241D02*
X731Y241D01*
X1755Y241D02*
X1762Y241D01*
X0Y240D02*
X7Y240D01*
X299Y240D02*
X304Y240D01*
X676Y240D02*
X680Y240D01*
X687Y240D02*
X691Y240D01*
X705Y240D02*
X709Y240D01*
X726Y240D02*
X731Y240D01*
X1755Y240D02*
X1762Y240D01*
X0Y239D02*
X7Y239D01*
X299Y239D02*
X304Y239D01*
X676Y239D02*
X681Y239D01*
X687Y239D02*
X691Y239D01*
X705Y239D02*
X709Y239D01*
X726Y239D02*
X731Y239D01*
X1755Y239D02*
X1762Y239D01*
X0Y238D02*
X7Y238D01*
X297Y238D02*
X304Y238D01*
X666Y238D02*
X691Y238D01*
X705Y238D02*
X731Y238D01*
X1755Y238D02*
X1762Y238D01*
X0Y237D02*
X7Y237D01*
X296Y237D02*
X304Y237D01*
X665Y237D02*
X691Y237D01*
X705Y237D02*
X731Y237D01*
X1755Y237D02*
X1762Y237D01*
X0Y236D02*
X7Y236D01*
X296Y236D02*
X304Y236D01*
X665Y236D02*
X691Y236D01*
X705Y236D02*
X730Y236D01*
X1755Y236D02*
X1762Y236D01*
X0Y235D02*
X7Y235D01*
X297Y235D02*
X303Y235D01*
X665Y235D02*
X691Y235D01*
X706Y235D02*
X729Y235D01*
X1755Y235D02*
X1762Y235D01*
X0Y234D02*
X7Y234D01*
X297Y234D02*
X303Y234D01*
X666Y234D02*
X690Y234D01*
X708Y234D02*
X728Y234D01*
X1755Y234D02*
X1762Y234D01*
X0Y233D02*
X7Y233D01*
X1755Y233D02*
X1762Y233D01*
X0Y232D02*
X7Y232D01*
X1755Y232D02*
X1762Y232D01*
X0Y231D02*
X7Y231D01*
X1755Y231D02*
X1762Y231D01*
X0Y230D02*
X7Y230D01*
X1755Y230D02*
X1762Y230D01*
X0Y229D02*
X7Y229D01*
X1755Y229D02*
X1762Y229D01*
X0Y228D02*
X7Y228D01*
X1755Y228D02*
X1762Y228D01*
X0Y227D02*
X7Y227D01*
X1755Y227D02*
X1762Y227D01*
X0Y226D02*
X7Y226D01*
X1755Y226D02*
X1762Y226D01*
X0Y225D02*
X7Y225D01*
X1755Y225D02*
X1762Y225D01*
X0Y224D02*
X7Y224D01*
X1755Y224D02*
X1762Y224D01*
X0Y223D02*
X7Y223D01*
X1755Y223D02*
X1762Y223D01*
X0Y222D02*
X7Y222D01*
X1755Y222D02*
X1762Y222D01*
X0Y221D02*
X7Y221D01*
X1755Y221D02*
X1762Y221D01*
X0Y220D02*
X7Y220D01*
X1755Y220D02*
X1762Y220D01*
X0Y219D02*
X7Y219D01*
X1755Y219D02*
X1762Y219D01*
X0Y218D02*
X7Y218D01*
X1755Y218D02*
X1762Y218D01*
X0Y217D02*
X7Y217D01*
X1755Y217D02*
X1762Y217D01*
X0Y216D02*
X7Y216D01*
X1755Y216D02*
X1762Y216D01*
X0Y215D02*
X7Y215D01*
X1755Y215D02*
X1762Y215D01*
X0Y214D02*
X7Y214D01*
X1755Y214D02*
X1762Y214D01*
X0Y213D02*
X7Y213D01*
X1755Y213D02*
X1762Y213D01*
X0Y212D02*
X7Y212D01*
X1755Y212D02*
X1762Y212D01*
X0Y211D02*
X7Y211D01*
X1755Y211D02*
X1762Y211D01*
X0Y210D02*
X7Y210D01*
X1755Y210D02*
X1762Y210D01*
X0Y209D02*
X7Y209D01*
X1755Y209D02*
X1762Y209D01*
X0Y208D02*
X7Y208D01*
X1755Y208D02*
X1762Y208D01*
X0Y207D02*
X7Y207D01*
X1755Y207D02*
X1762Y207D01*
X0Y206D02*
X7Y206D01*
X1755Y206D02*
X1762Y206D01*
X0Y205D02*
X7Y205D01*
X1755Y205D02*
X1762Y205D01*
X0Y204D02*
X7Y204D01*
X1755Y204D02*
X1762Y204D01*
X0Y203D02*
X7Y203D01*
X1755Y203D02*
X1762Y203D01*
X0Y202D02*
X7Y202D01*
X1755Y202D02*
X1762Y202D01*
X0Y201D02*
X7Y201D01*
X1755Y201D02*
X1762Y201D01*
X0Y200D02*
X7Y200D01*
X1755Y200D02*
X1762Y200D01*
X0Y199D02*
X7Y199D01*
X1755Y199D02*
X1762Y199D01*
X0Y198D02*
X7Y198D01*
X1755Y198D02*
X1762Y198D01*
X0Y197D02*
X7Y197D01*
X1755Y197D02*
X1762Y197D01*
X0Y196D02*
X7Y196D01*
X1755Y196D02*
X1762Y196D01*
X0Y195D02*
X7Y195D01*
X1755Y195D02*
X1762Y195D01*
X0Y194D02*
X7Y194D01*
X1755Y194D02*
X1762Y194D01*
X0Y193D02*
X7Y193D01*
X1755Y193D02*
X1762Y193D01*
X0Y192D02*
X7Y192D01*
X1755Y192D02*
X1762Y192D01*
X0Y191D02*
X7Y191D01*
X1755Y191D02*
X1762Y191D01*
X0Y190D02*
X7Y190D01*
X1755Y190D02*
X1762Y190D01*
X0Y189D02*
X7Y189D01*
X1755Y189D02*
X1762Y189D01*
X0Y188D02*
X7Y188D01*
X1755Y188D02*
X1762Y188D01*
X0Y187D02*
X7Y187D01*
X1755Y187D02*
X1762Y187D01*
X0Y186D02*
X7Y186D01*
X1755Y186D02*
X1762Y186D01*
X0Y185D02*
X7Y185D01*
X1755Y185D02*
X1762Y185D01*
X0Y184D02*
X7Y184D01*
X1755Y184D02*
X1762Y184D01*
X0Y183D02*
X7Y183D01*
X1755Y183D02*
X1762Y183D01*
X0Y182D02*
X7Y182D01*
X1755Y182D02*
X1762Y182D01*
X0Y181D02*
X7Y181D01*
X1755Y181D02*
X1762Y181D01*
X0Y180D02*
X7Y180D01*
X1755Y180D02*
X1762Y180D01*
X0Y179D02*
X7Y179D01*
X1755Y179D02*
X1762Y179D01*
X0Y178D02*
X7Y178D01*
X1755Y178D02*
X1762Y178D01*
X0Y177D02*
X7Y177D01*
X1755Y177D02*
X1762Y177D01*
X0Y176D02*
X7Y176D01*
X1755Y176D02*
X1762Y176D01*
X0Y175D02*
X7Y175D01*
X1755Y175D02*
X1762Y175D01*
X0Y174D02*
X7Y174D01*
X1755Y174D02*
X1762Y174D01*
X0Y173D02*
X7Y173D01*
X1755Y173D02*
X1762Y173D01*
X0Y172D02*
X7Y172D01*
X1755Y172D02*
X1762Y172D01*
X0Y171D02*
X7Y171D01*
X1755Y171D02*
X1762Y171D01*
X0Y170D02*
X7Y170D01*
X1755Y170D02*
X1762Y170D01*
X0Y169D02*
X7Y169D01*
X1755Y169D02*
X1762Y169D01*
X0Y168D02*
X7Y168D01*
X1755Y168D02*
X1762Y168D01*
X0Y167D02*
X7Y167D01*
X1755Y167D02*
X1762Y167D01*
X0Y166D02*
X7Y166D01*
X1755Y166D02*
X1762Y166D01*
X0Y165D02*
X7Y165D01*
X1755Y165D02*
X1762Y165D01*
X0Y164D02*
X7Y164D01*
X1755Y164D02*
X1762Y164D01*
X0Y163D02*
X7Y163D01*
X1755Y163D02*
X1762Y163D01*
X0Y162D02*
X7Y162D01*
X1755Y162D02*
X1762Y162D01*
X0Y161D02*
X7Y161D01*
X1755Y161D02*
X1762Y161D01*
X0Y160D02*
X7Y160D01*
X1755Y160D02*
X1762Y160D01*
X0Y159D02*
X7Y159D01*
X1755Y159D02*
X1762Y159D01*
X0Y158D02*
X7Y158D01*
X1755Y158D02*
X1762Y158D01*
X0Y157D02*
X7Y157D01*
X1755Y157D02*
X1762Y157D01*
X0Y156D02*
X7Y156D01*
X1755Y156D02*
X1762Y156D01*
X0Y155D02*
X7Y155D01*
X1755Y155D02*
X1762Y155D01*
X0Y154D02*
X7Y154D01*
X1755Y154D02*
X1762Y154D01*
X0Y153D02*
X7Y153D01*
X1755Y153D02*
X1762Y153D01*
X0Y152D02*
X7Y152D01*
X1755Y152D02*
X1762Y152D01*
X0Y151D02*
X7Y151D01*
X1755Y151D02*
X1762Y151D01*
X0Y150D02*
X7Y150D01*
X1755Y150D02*
X1762Y150D01*
X0Y149D02*
X7Y149D01*
X1755Y149D02*
X1762Y149D01*
X0Y148D02*
X7Y148D01*
X1755Y148D02*
X1762Y148D01*
X0Y147D02*
X7Y147D01*
X1755Y147D02*
X1762Y147D01*
X0Y146D02*
X7Y146D01*
X1755Y146D02*
X1762Y146D01*
X0Y145D02*
X7Y145D01*
X1755Y145D02*
X1762Y145D01*
X0Y144D02*
X7Y144D01*
X1755Y144D02*
X1762Y144D01*
X0Y143D02*
X7Y143D01*
X1755Y143D02*
X1762Y143D01*
X0Y142D02*
X7Y142D01*
X1755Y142D02*
X1762Y142D01*
X0Y141D02*
X7Y141D01*
X1755Y141D02*
X1762Y141D01*
X0Y140D02*
X7Y140D01*
X1755Y140D02*
X1762Y140D01*
X0Y139D02*
X7Y139D01*
X1755Y139D02*
X1762Y139D01*
X0Y138D02*
X7Y138D01*
X1755Y138D02*
X1762Y138D01*
X0Y137D02*
X7Y137D01*
X1755Y137D02*
X1762Y137D01*
X0Y136D02*
X7Y136D01*
X1755Y136D02*
X1762Y136D01*
X0Y135D02*
X7Y135D01*
X1755Y135D02*
X1762Y135D01*
X0Y134D02*
X7Y134D01*
X1755Y134D02*
X1762Y134D01*
X0Y133D02*
X7Y133D01*
X1755Y133D02*
X1762Y133D01*
X0Y132D02*
X7Y132D01*
X1755Y132D02*
X1762Y132D01*
X0Y131D02*
X7Y131D01*
X1755Y131D02*
X1762Y131D01*
X0Y130D02*
X7Y130D01*
X1755Y130D02*
X1762Y130D01*
X0Y129D02*
X7Y129D01*
X1755Y129D02*
X1762Y129D01*
X0Y128D02*
X7Y128D01*
X1755Y128D02*
X1762Y128D01*
X0Y127D02*
X7Y127D01*
X1755Y127D02*
X1762Y127D01*
X0Y126D02*
X7Y126D01*
X1755Y126D02*
X1762Y126D01*
X0Y125D02*
X7Y125D01*
X1755Y125D02*
X1762Y125D01*
X0Y124D02*
X7Y124D01*
X1755Y124D02*
X1762Y124D01*
X0Y123D02*
X7Y123D01*
X1755Y123D02*
X1762Y123D01*
X0Y122D02*
X7Y122D01*
X1755Y122D02*
X1762Y122D01*
X0Y121D02*
X7Y121D01*
X1755Y121D02*
X1762Y121D01*
X0Y120D02*
X7Y120D01*
X1755Y120D02*
X1762Y120D01*
X0Y119D02*
X7Y119D01*
X1755Y119D02*
X1762Y119D01*
X0Y118D02*
X7Y118D01*
X1755Y118D02*
X1762Y118D01*
X0Y117D02*
X7Y117D01*
X1755Y117D02*
X1762Y117D01*
X0Y116D02*
X7Y116D01*
X1755Y116D02*
X1762Y116D01*
X0Y115D02*
X7Y115D01*
X1755Y115D02*
X1762Y115D01*
X0Y114D02*
X7Y114D01*
X1755Y114D02*
X1762Y114D01*
X0Y113D02*
X7Y113D01*
X1755Y113D02*
X1762Y113D01*
X0Y112D02*
X7Y112D01*
X1755Y112D02*
X1762Y112D01*
X0Y111D02*
X7Y111D01*
X1755Y111D02*
X1762Y111D01*
X0Y110D02*
X7Y110D01*
X1755Y110D02*
X1762Y110D01*
X0Y109D02*
X7Y109D01*
X1755Y109D02*
X1762Y109D01*
X0Y108D02*
X7Y108D01*
X1755Y108D02*
X1762Y108D01*
X0Y107D02*
X7Y107D01*
X1755Y107D02*
X1762Y107D01*
X0Y106D02*
X7Y106D01*
X1755Y106D02*
X1762Y106D01*
X0Y105D02*
X7Y105D01*
X1755Y105D02*
X1762Y105D01*
X0Y104D02*
X7Y104D01*
X1755Y104D02*
X1762Y104D01*
X0Y103D02*
X7Y103D01*
X1755Y103D02*
X1762Y103D01*
X0Y102D02*
X7Y102D01*
X1755Y102D02*
X1762Y102D01*
X0Y101D02*
X7Y101D01*
X1755Y101D02*
X1762Y101D01*
X0Y100D02*
X7Y100D01*
X1755Y100D02*
X1762Y100D01*
X0Y99D02*
X7Y99D01*
X1755Y99D02*
X1762Y99D01*
X0Y98D02*
X7Y98D01*
X1755Y98D02*
X1762Y98D01*
X0Y97D02*
X7Y97D01*
X1755Y97D02*
X1762Y97D01*
X0Y96D02*
X7Y96D01*
X1755Y96D02*
X1762Y96D01*
X0Y95D02*
X7Y95D01*
X1755Y95D02*
X1762Y95D01*
X0Y94D02*
X7Y94D01*
X1755Y94D02*
X1762Y94D01*
X0Y93D02*
X7Y93D01*
X1755Y93D02*
X1762Y93D01*
X0Y92D02*
X7Y92D01*
X1755Y92D02*
X1762Y92D01*
X0Y91D02*
X7Y91D01*
X1755Y91D02*
X1762Y91D01*
X0Y90D02*
X7Y90D01*
X1755Y90D02*
X1762Y90D01*
X0Y89D02*
X7Y89D01*
X1755Y89D02*
X1762Y89D01*
X0Y88D02*
X7Y88D01*
X1755Y88D02*
X1762Y88D01*
X0Y87D02*
X7Y87D01*
X1755Y87D02*
X1762Y87D01*
X0Y86D02*
X7Y86D01*
X1755Y86D02*
X1762Y86D01*
X0Y85D02*
X7Y85D01*
X1755Y85D02*
X1762Y85D01*
X0Y84D02*
X7Y84D01*
X1755Y84D02*
X1762Y84D01*
X0Y83D02*
X7Y83D01*
X1755Y83D02*
X1762Y83D01*
X0Y82D02*
X7Y82D01*
X1755Y82D02*
X1762Y82D01*
X0Y81D02*
X7Y81D01*
X1755Y81D02*
X1762Y81D01*
X0Y80D02*
X7Y80D01*
X1755Y80D02*
X1762Y80D01*
X0Y79D02*
X7Y79D01*
X1755Y79D02*
X1762Y79D01*
X0Y78D02*
X7Y78D01*
X1755Y78D02*
X1762Y78D01*
X0Y77D02*
X7Y77D01*
X1755Y77D02*
X1762Y77D01*
X0Y76D02*
X7Y76D01*
X1755Y76D02*
X1762Y76D01*
X0Y75D02*
X7Y75D01*
X1755Y75D02*
X1762Y75D01*
X0Y74D02*
X7Y74D01*
X1755Y74D02*
X1762Y74D01*
X0Y73D02*
X7Y73D01*
X1755Y73D02*
X1762Y73D01*
X0Y72D02*
X7Y72D01*
X1755Y72D02*
X1762Y72D01*
X0Y71D02*
X7Y71D01*
X1755Y71D02*
X1762Y71D01*
X0Y70D02*
X7Y70D01*
X1755Y70D02*
X1762Y70D01*
X0Y69D02*
X7Y69D01*
X1755Y69D02*
X1762Y69D01*
X0Y68D02*
X7Y68D01*
X1755Y68D02*
X1762Y68D01*
X0Y67D02*
X7Y67D01*
X1755Y67D02*
X1762Y67D01*
X0Y66D02*
X7Y66D01*
X1755Y66D02*
X1762Y66D01*
X0Y65D02*
X7Y65D01*
X1755Y65D02*
X1762Y65D01*
X0Y64D02*
X7Y64D01*
X1755Y64D02*
X1762Y64D01*
X0Y63D02*
X7Y63D01*
X1755Y63D02*
X1762Y63D01*
X0Y62D02*
X7Y62D01*
X1755Y62D02*
X1762Y62D01*
X0Y61D02*
X7Y61D01*
X1755Y61D02*
X1762Y61D01*
X0Y60D02*
X7Y60D01*
X1755Y60D02*
X1762Y60D01*
X0Y59D02*
X7Y59D01*
X1755Y59D02*
X1762Y59D01*
X0Y58D02*
X7Y58D01*
X1755Y58D02*
X1762Y58D01*
X0Y57D02*
X7Y57D01*
X1755Y57D02*
X1762Y57D01*
X0Y56D02*
X7Y56D01*
X1755Y56D02*
X1762Y56D01*
X0Y55D02*
X7Y55D01*
X1755Y55D02*
X1762Y55D01*
X0Y54D02*
X7Y54D01*
X1755Y54D02*
X1762Y54D01*
X0Y53D02*
X7Y53D01*
X1755Y53D02*
X1762Y53D01*
X0Y52D02*
X7Y52D01*
X1755Y52D02*
X1762Y52D01*
X0Y51D02*
X7Y51D01*
X1755Y51D02*
X1762Y51D01*
X0Y50D02*
X7Y50D01*
X1755Y50D02*
X1762Y50D01*
X0Y49D02*
X7Y49D01*
X1755Y49D02*
X1762Y49D01*
X0Y48D02*
X7Y48D01*
X1755Y48D02*
X1762Y48D01*
X0Y47D02*
X7Y47D01*
X1755Y47D02*
X1762Y47D01*
X0Y46D02*
X7Y46D01*
X1755Y46D02*
X1762Y46D01*
X0Y45D02*
X7Y45D01*
X1755Y45D02*
X1762Y45D01*
X0Y44D02*
X7Y44D01*
X1755Y44D02*
X1762Y44D01*
X0Y43D02*
X7Y43D01*
X1755Y43D02*
X1762Y43D01*
X0Y42D02*
X7Y42D01*
X1755Y42D02*
X1762Y42D01*
X0Y41D02*
X7Y41D01*
X1755Y41D02*
X1762Y41D01*
X0Y40D02*
X7Y40D01*
X1755Y40D02*
X1762Y40D01*
X0Y39D02*
X7Y39D01*
X1755Y39D02*
X1762Y39D01*
X0Y38D02*
X7Y38D01*
X1755Y38D02*
X1762Y38D01*
X0Y37D02*
X7Y37D01*
X1755Y37D02*
X1762Y37D01*
X0Y36D02*
X7Y36D01*
X1755Y36D02*
X1762Y36D01*
X0Y35D02*
X7Y35D01*
X1755Y35D02*
X1762Y35D01*
X0Y34D02*
X7Y34D01*
X1755Y34D02*
X1762Y34D01*
X0Y33D02*
X7Y33D01*
X1755Y33D02*
X1762Y33D01*
X0Y32D02*
X7Y32D01*
X1755Y32D02*
X1762Y32D01*
X0Y31D02*
X7Y31D01*
X1755Y31D02*
X1762Y31D01*
X0Y30D02*
X7Y30D01*
X1755Y30D02*
X1762Y30D01*
X0Y29D02*
X7Y29D01*
X1755Y29D02*
X1762Y29D01*
X0Y28D02*
X7Y28D01*
X1755Y28D02*
X1762Y28D01*
X0Y27D02*
X7Y27D01*
X1755Y27D02*
X1762Y27D01*
X0Y26D02*
X7Y26D01*
X1755Y26D02*
X1762Y26D01*
X0Y25D02*
X7Y25D01*
X1755Y25D02*
X1762Y25D01*
X0Y24D02*
X7Y24D01*
X1755Y24D02*
X1762Y24D01*
X0Y23D02*
X7Y23D01*
X1755Y23D02*
X1762Y23D01*
X0Y22D02*
X7Y22D01*
X1755Y22D02*
X1762Y22D01*
X0Y21D02*
X7Y21D01*
X1755Y21D02*
X1762Y21D01*
X0Y20D02*
X7Y20D01*
X1755Y20D02*
X1762Y20D01*
X0Y19D02*
X7Y19D01*
X1755Y19D02*
X1762Y19D01*
X0Y18D02*
X7Y18D01*
X1755Y18D02*
X1762Y18D01*
X0Y17D02*
X7Y17D01*
X1755Y17D02*
X1762Y17D01*
X0Y16D02*
X7Y16D01*
X1755Y16D02*
X1762Y16D01*
X0Y15D02*
X7Y15D01*
X1755Y15D02*
X1762Y15D01*
X0Y14D02*
X7Y14D01*
X1755Y14D02*
X1762Y14D01*
X0Y13D02*
X7Y13D01*
X1755Y13D02*
X1762Y13D01*
X0Y12D02*
X7Y12D01*
X1755Y12D02*
X1762Y12D01*
X0Y11D02*
X7Y11D01*
X1755Y11D02*
X1762Y11D01*
X0Y10D02*
X7Y10D01*
X1755Y10D02*
X1762Y10D01*
X0Y9D02*
X1762Y9D01*
X0Y8D02*
X1762Y8D01*
X0Y7D02*
X1762Y7D01*
X0Y6D02*
X1762Y6D01*
X0Y5D02*
X1762Y5D01*
X0Y4D02*
X1762Y4D01*
X0Y3D02*
X1762Y3D01*
X0Y2D02*
X1762Y2D01*
D02*
G04 End of Silk1*
M02*